STARTFONT 2.1
FONT -FontForge-Roboto Medium-Medium-R-Normal--20-200-72-72-P-113-ISO10646-1
SIZE 20 72 72
FONTBOUNDINGBOX 39 25 -15 -5
COMMENT "Generated by fontforge, http://fontforge.sourceforge.net"
COMMENT "Copyright 2011 Google Inc. All Rights Reserved."
STARTPROPERTIES 41
FOUNDRY "FontForge"
FAMILY_NAME "Roboto Medium"
WEIGHT_NAME "Medium"
SLANT "R"
SETWIDTH_NAME "Normal"
ADD_STYLE_NAME ""
PIXEL_SIZE 20
POINT_SIZE 200
RESOLUTION_X 72
RESOLUTION_Y 72
SPACING "P"
AVERAGE_WIDTH 113
CHARSET_REGISTRY "ISO10646"
CHARSET_ENCODING "1"
FONTNAME_REGISTRY ""
CHARSET_COLLECTIONS "ISO8859-2 ISO8859-5 ISO8859-7 ISO8859-9 ISO8859-4 ISO10646-1"
FONT_NAME "Roboto-Medium"
FACE_NAME "Roboto Medium"
COPYRIGHT "Copyright 2011 Google Inc. All Rights Reserved."
FONT_VERSION "2.137; 2017"
FONT_ASCENT 15
FONT_DESCENT 5
UNDERLINE_POSITION -2
UNDERLINE_THICKNESS 1
X_HEIGHT 10
CAP_HEIGHT 13
DEFAULT_CHAR 1
RAW_ASCENT 750
RAW_DESCENT 250
NORM_SPACE 5
RELATIVE_WEIGHT 50
RELATIVE_SETWIDTH 50
SUPERSCRIPT_X 0
SUPERSCRIPT_Y 9
SUPERSCRIPT_SIZE 12
SUBSCRIPT_X 0
SUBSCRIPT_Y 2
SUBSCRIPT_SIZE 12
FIGURE_WIDTH 11
AVG_LOWERCASE_WIDTH 110
AVG_UPPERCASE_WIDTH 132
ENDPROPERTIES
CHARS 1296
STARTCHAR glyph1.dup1
ENCODING 0
SWIDTH 0 0
DWIDTH 0 0
BBX 1 1 0 0
BITMAP
00
ENDCHAR
STARTCHAR uni0002
ENCODING 2
SWIDTH 0 0
DWIDTH 0 0
BBX 1 1 0 0
BITMAP
00
ENDCHAR
STARTCHAR uni000D
ENCODING 13
SWIDTH 249 0
DWIDTH 5 0
BBX 1 1 0 0
BITMAP
00
ENDCHAR
STARTCHAR space
ENCODING 32
SWIDTH 249 0
DWIDTH 5 0
BBX 1 1 0 0
BITMAP
00
ENDCHAR
STARTCHAR exclam
ENCODING 33
SWIDTH 268 0
DWIDTH 5 0
BBX 3 14 1 0
BITMAP
E0
E0
E0
E0
E0
E0
E0
E0
60
00
00
60
E0
60
ENDCHAR
STARTCHAR quotedbl
ENCODING 34
SWIDTH 324 0
DWIDTH 6 0
BBX 5 5 1 10
BITMAP
D8
D8
D8
90
90
ENDCHAR
STARTCHAR numbersign
ENCODING 35
SWIDTH 610 0
DWIDTH 12 0
BBX 11 14 1 0
BITMAP
0CC0
0880
0980
1980
7FE0
7FE0
1900
1100
1300
FFC0
FFC0
3300
2200
6600
ENDCHAR
STARTCHAR dollar
ENCODING 36
SWIDTH 568 0
DWIDTH 11 0
BBX 9 18 1 -2
BITMAP
0C00
0C00
3E00
7F00
6380
E180
E000
7000
3C00
1F00
0380
0180
C180
E380
7F00
3E00
0800
0800
ENDCHAR
STARTCHAR percent
ENCODING 37
SWIDTH 734 0
DWIDTH 15 0
BBX 13 14 1 0
BITMAP
7800
CC40
CCE0
CC80
CD80
CD00
7B00
06F0
0598
0D98
0998
1998
3198
00F0
ENDCHAR
STARTCHAR ampersand
ENCODING 38
SWIDTH 639 0
DWIDTH 13 0
BBX 12 14 1 0
BITMAP
1E00
3F00
7300
6300
7300
3E00
1C00
7C60
EE60
C7E0
C3C0
E1C0
7FC0
3E70
ENDCHAR
STARTCHAR quotesingle
ENCODING 39
SWIDTH 168 0
DWIDTH 3 0
BBX 2 5 1 10
BITMAP
C0
C0
C0
80
80
ENDCHAR
STARTCHAR parenleft
ENCODING 40
SWIDTH 348 0
DWIDTH 7 0
BBX 6 21 1 -5
BITMAP
08
1C
18
30
60
60
60
60
E0
C0
C0
C0
E0
60
60
60
60
30
18
18
0C
ENDCHAR
STARTCHAR parenright
ENCODING 41
SWIDTH 352 0
DWIDTH 7 0
BBX 6 21 0 -5
BITMAP
40
E0
60
30
38
18
18
18
1C
0C
0C
0C
1C
18
18
18
18
30
60
60
C0
ENDCHAR
STARTCHAR asterisk
ENCODING 42
SWIDTH 441 0
DWIDTH 9 0
BBX 9 8 0 6
BITMAP
0800
0800
4900
FF80
1C00
3C00
3600
6300
ENDCHAR
STARTCHAR plus
ENCODING 43
SWIDTH 557 0
DWIDTH 11 0
BBX 9 10 1 2
BITMAP
1C00
1C00
1C00
1C00
FF80
FF80
1C00
1C00
1C00
1C00
ENDCHAR
STARTCHAR comma
ENCODING 44
SWIDTH 219 0
DWIDTH 4 0
BBX 3 6 0 -3
BITMAP
60
60
60
60
C0
80
ENDCHAR
STARTCHAR hyphen
ENCODING 45
SWIDTH 328 0
DWIDTH 7 0
BBX 5 2 1 5
BITMAP
F8
F8
ENDCHAR
STARTCHAR period
ENCODING 46
SWIDTH 279 0
DWIDTH 6 0
BBX 3 3 1 0
BITMAP
60
E0
60
ENDCHAR
STARTCHAR slash
ENCODING 47
SWIDTH 395 0
DWIDTH 8 0
BBX 7 15 0 -1
BITMAP
06
06
06
0C
0C
08
18
18
30
30
30
60
60
40
C0
ENDCHAR
STARTCHAR zero
ENCODING 48
SWIDTH 568 0
DWIDTH 11 0
BBX 9 14 1 0
BITMAP
3E00
7F00
E380
C180
C180
C180
C180
C180
C180
C180
E180
E380
7F00
3E00
ENDCHAR
STARTCHAR one
ENCODING 49
SWIDTH 568 0
DWIDTH 11 0
BBX 5 14 2 0
BITMAP
08
78
F8
98
18
18
18
18
18
18
18
18
18
18
ENDCHAR
STARTCHAR two
ENCODING 50
SWIDTH 568 0
DWIDTH 11 0
BBX 9 14 1 0
BITMAP
3E00
7F00
E380
C380
C380
0380
0700
0600
0C00
1800
3000
6000
FF80
FF80
ENDCHAR
STARTCHAR three
ENCODING 51
SWIDTH 568 0
DWIDTH 11 0
BBX 9 14 1 0
BITMAP
3E00
7F00
E380
C380
0380
0300
1E00
1F00
0380
0180
C180
E380
7F00
3E00
ENDCHAR
STARTCHAR four
ENCODING 52
SWIDTH 568 0
DWIDTH 11 0
BBX 10 14 1 0
BITMAP
0700
0700
0F00
1F00
1B00
3300
7300
6300
C300
FFC0
FFC0
0300
0300
0300
ENDCHAR
STARTCHAR five
ENCODING 53
SWIDTH 568 0
DWIDTH 11 0
BBX 9 14 1 0
BITMAP
7F80
7F80
6000
6000
6000
7E00
7F00
6380
0180
0180
C180
E380
7F00
3E00
ENDCHAR
STARTCHAR six
ENCODING 54
SWIDTH 568 0
DWIDTH 11 0
BBX 9 14 1 0
BITMAP
0E00
3E00
7800
6000
E000
DE00
FF00
E380
C180
C180
E180
6380
7F00
1E00
ENDCHAR
STARTCHAR seven
ENCODING 55
SWIDTH 568 0
DWIDTH 11 0
BBX 10 14 1 0
BITMAP
FFC0
FF80
0180
0380
0300
0700
0600
0E00
0C00
1C00
1800
1800
3800
7000
ENDCHAR
STARTCHAR eight
ENCODING 56
SWIDTH 568 0
DWIDTH 11 0
BBX 9 14 1 0
BITMAP
3E00
7F00
E380
E380
E380
6300
7F00
7F00
E380
C180
C180
E380
7F00
3E00
ENDCHAR
STARTCHAR nine
ENCODING 57
SWIDTH 568 0
DWIDTH 11 0
BBX 9 14 1 0
BITMAP
3C00
7F00
E300
C380
C180
C180
E380
7F80
3D80
0380
0300
0700
3E00
3800
ENDCHAR
STARTCHAR colon
ENCODING 58
SWIDTH 265 0
DWIDTH 5 0
BBX 3 11 1 0
BITMAP
60
E0
60
00
00
00
00
00
60
E0
60
ENDCHAR
STARTCHAR semicolon
ENCODING 59
SWIDTH 237 0
DWIDTH 5 0
BBX 4 14 0 -3
BITMAP
30
70
30
00
00
00
00
00
60
60
60
60
C0
40
ENDCHAR
STARTCHAR less
ENCODING 60
SWIDTH 508 0
DWIDTH 10 0
BBX 8 9 1 2
BITMAP
01
0F
3E
F8
C0
F0
3E
0F
03
ENDCHAR
STARTCHAR equal
ENCODING 61
SWIDTH 559 0
DWIDTH 11 0
BBX 9 6 1 3
BITMAP
FF80
FF80
0000
0000
FF80
FF80
ENDCHAR
STARTCHAR greater
ENCODING 62
SWIDTH 520 0
DWIDTH 10 0
BBX 8 9 1 2
BITMAP
80
E0
FC
1F
03
1F
7C
F0
80
ENDCHAR
STARTCHAR question
ENCODING 63
SWIDTH 486 0
DWIDTH 10 0
BBX 8 14 1 0
BITMAP
3C
FF
C7
03
07
0E
1C
18
18
00
00
18
38
18
ENDCHAR
STARTCHAR at
ENCODING 64
SWIDTH 894 0
DWIDTH 18 0
BBX 16 18 1 -4
BITMAP
03F0
0C18
1004
3006
61E2
4333
C623
C621
CC21
CC61
CC63
CC63
C662
47BC
6000
3000
1820
07E0
ENDCHAR
STARTCHAR A
ENCODING 65
SWIDTH 665 0
DWIDTH 13 0
BBX 13 14 0 0
BITMAP
0700
0700
0780
0D80
0D80
1CC0
18C0
18E0
3860
3FE0
3FF0
7030
6038
E038
ENDCHAR
STARTCHAR B
ENCODING 66
SWIDTH 630 0
DWIDTH 13 0
BBX 10 14 2 0
BITMAP
FE00
FF80
C380
C180
C180
C380
FF00
FF80
C180
C1C0
C1C0
C1C0
FF80
FF00
ENDCHAR
STARTCHAR C
ENCODING 67
SWIDTH 652 0
DWIDTH 13 0
BBX 11 14 1 0
BITMAP
1F00
3FC0
70E0
E0E0
E060
C000
C000
C000
C000
E060
E0E0
70E0
3FC0
1F00
ENDCHAR
STARTCHAR D
ENCODING 68
SWIDTH 653 0
DWIDTH 13 0
BBX 11 14 1 0
BITMAP
FE00
FF80
E1C0
E0C0
E0E0
E0E0
E060
E060
E0E0
E0E0
E0C0
E1C0
FF80
FE00
ENDCHAR
STARTCHAR E
ENCODING 69
SWIDTH 565 0
DWIDTH 11 0
BBX 10 14 1 0
BITMAP
FFC0
FFC0
E000
E000
E000
E000
FF80
FF80
E000
E000
E000
E000
FFC0
FFC0
ENDCHAR
STARTCHAR F
ENCODING 70
SWIDTH 549 0
DWIDTH 11 0
BBX 9 14 1 0
BITMAP
FF80
FF80
E000
E000
E000
E000
FF80
FF80
E000
E000
E000
E000
E000
E000
ENDCHAR
STARTCHAR G
ENCODING 71
SWIDTH 680 0
DWIDTH 14 0
BBX 12 14 1 0
BITMAP
1F80
3FC0
70E0
6060
E070
E000
E000
E3F0
E3F0
E070
6070
7070
3FE0
0F80
ENDCHAR
STARTCHAR H
ENCODING 72
SWIDTH 710 0
DWIDTH 14 0
BBX 12 14 1 0
BITMAP
E070
E070
E070
E070
E070
E070
FFF0
FFF0
E070
E070
E070
E070
E070
E070
ENDCHAR
STARTCHAR I
ENCODING 73
SWIDTH 282 0
DWIDTH 6 0
BBX 2 14 2 0
BITMAP
C0
C0
C0
C0
C0
C0
C0
C0
C0
C0
C0
C0
C0
C0
ENDCHAR
STARTCHAR J
ENCODING 74
SWIDTH 555 0
DWIDTH 11 0
BBX 10 14 0 0
BITMAP
01C0
01C0
01C0
01C0
01C0
01C0
01C0
01C0
01C0
01C0
E1C0
6380
7F80
1E00
ENDCHAR
STARTCHAR K
ENCODING 75
SWIDTH 630 0
DWIDTH 13 0
BBX 12 14 1 0
BITMAP
E0E0
E1C0
E380
E700
E700
EE00
FC00
FE00
F700
E380
E380
E1C0
E0E0
E0F0
ENDCHAR
STARTCHAR L
ENCODING 76
SWIDTH 541 0
DWIDTH 11 0
BBX 9 14 1 0
BITMAP
E000
E000
E000
E000
E000
E000
E000
E000
E000
E000
E000
E000
FF80
FF80
ENDCHAR
STARTCHAR M
ENCODING 77
SWIDTH 875 0
DWIDTH 18 0
BBX 15 14 1 0
BITMAP
F00E
F01E
F81E
F81E
F836
EC36
EC76
EE66
E666
E6C6
E7C6
E3C6
E386
E186
ENDCHAR
STARTCHAR N
ENCODING 78
SWIDTH 709 0
DWIDTH 14 0
BBX 12 14 1 0
BITMAP
E070
F070
F070
F870
FC70
EC70
EE70
E770
E370
E3F0
E1F0
E0F0
E0F0
E070
ENDCHAR
STARTCHAR O
ENCODING 79
SWIDTH 690 0
DWIDTH 14 0
BBX 12 14 1 0
BITMAP
0F00
3FC0
70E0
6060
E070
E070
E070
E070
E070
E070
6060
70E0
3FC0
0F00
ENDCHAR
STARTCHAR P
ENCODING 80
SWIDTH 639 0
DWIDTH 13 0
BBX 10 14 2 0
BITMAP
FF00
FF80
C1C0
C0C0
C0C0
C0C0
C1C0
FF80
FF00
C000
C000
C000
C000
C000
ENDCHAR
STARTCHAR Q
ENCODING 81
SWIDTH 690 0
DWIDTH 14 0
BBX 12 16 1 -2
BITMAP
1F00
3FC0
70E0
6060
E070
E070
E070
E070
E070
E070
6060
70E0
3FC0
1FC0
00E0
0070
ENDCHAR
STARTCHAR R
ENCODING 82
SWIDTH 624 0
DWIDTH 12 0
BBX 11 14 1 0
BITMAP
FF00
FF80
E1C0
E0C0
E0C0
E0C0
E1C0
FF80
FF00
E300
E380
E1C0
E1C0
E0E0
ENDCHAR
STARTCHAR S
ENCODING 83
SWIDTH 603 0
DWIDTH 12 0
BBX 10 14 1 0
BITMAP
3F00
7F80
E1C0
E0C0
E000
7000
3E00
1F80
03C0
00C0
C0C0
E1C0
7F80
1F00
ENDCHAR
STARTCHAR T
ENCODING 84
SWIDTH 606 0
DWIDTH 12 0
BBX 12 14 0 0
BITMAP
FFF0
FFF0
0600
0600
0600
0600
0600
0600
0600
0600
0600
0600
0600
0600
ENDCHAR
STARTCHAR U
ENCODING 85
SWIDTH 651 0
DWIDTH 13 0
BBX 11 14 1 0
BITMAP
E0E0
E0E0
E0E0
E0E0
E0E0
E0E0
E0E0
E0E0
E0E0
E0E0
E0E0
71C0
7FC0
1F00
ENDCHAR
STARTCHAR V
ENCODING 86
SWIDTH 646 0
DWIDTH 13 0
BBX 13 14 0 0
BITMAP
E038
6030
7070
7070
3060
38E0
18C0
18C0
1DC0
0D80
0D80
0F80
0700
0700
ENDCHAR
STARTCHAR W
ENCODING 87
SWIDTH 879 0
DWIDTH 18 0
BBX 16 14 1 0
BITMAP
C183
C183
E3C7
E3C7
63C6
6366
6666
766E
366C
363C
3C3C
3C3C
1C3C
1818
ENDCHAR
STARTCHAR X
ENCODING 88
SWIDTH 632 0
DWIDTH 13 0
BBX 12 14 0 0
BITMAP
F070
70E0
38E0
19C0
1D80
0F80
0700
0F00
0F80
1D80
19C0
38E0
7060
F070
ENDCHAR
STARTCHAR Y
ENCODING 89
SWIDTH 609 0
DWIDTH 12 0
BBX 12 14 0 0
BITMAP
E070
7060
70E0
38C0
39C0
1D80
0F80
0F00
0700
0600
0600
0600
0600
0600
ENDCHAR
STARTCHAR Z
ENCODING 90
SWIDTH 602 0
DWIDTH 12 0
BBX 10 14 1 0
BITMAP
FFC0
FFC0
0180
0380
0700
0600
0E00
1C00
1800
3800
7000
E000
FFC0
FFC0
ENDCHAR
STARTCHAR bracketleft
ENCODING 91
SWIDTH 273 0
DWIDTH 5 0
BBX 4 19 1 -3
BITMAP
F0
F0
E0
E0
E0
E0
E0
E0
E0
E0
E0
E0
E0
E0
E0
E0
E0
F0
F0
ENDCHAR
STARTCHAR backslash
ENCODING 92
SWIDTH 417 0
DWIDTH 8 0
BBX 8 15 0 -1
BITMAP
E0
60
70
30
30
38
18
1C
0C
0C
0E
06
06
03
03
ENDCHAR
STARTCHAR bracketright
ENCODING 93
SWIDTH 273 0
DWIDTH 5 0
BBX 4 19 0 -3
BITMAP
F0
F0
30
30
30
30
30
30
30
30
30
30
30
30
30
30
30
F0
F0
ENDCHAR
STARTCHAR asciicircum
ENCODING 94
SWIDTH 427 0
DWIDTH 9 0
BBX 7 7 1 7
BITMAP
38
38
38
6C
6C
C6
C6
ENDCHAR
STARTCHAR underscore
ENCODING 95
SWIDTH 451 0
DWIDTH 9 0
BBX 9 2 0 -2
BITMAP
FF80
FF80
ENDCHAR
STARTCHAR grave
ENCODING 96
SWIDTH 322 0
DWIDTH 6 0
BBX 5 3 0 12
BITMAP
F0
30
18
ENDCHAR
STARTCHAR a
ENCODING 97
SWIDTH 541 0
DWIDTH 11 0
BBX 9 11 1 0
BITMAP
3E00
7F00
E300
0380
3F80
7F80
E380
C380
E380
7F80
3B80
ENDCHAR
STARTCHAR b
ENCODING 98
SWIDTH 562 0
DWIDTH 11 0
BBX 9 15 1 0
BITMAP
C000
C000
C000
C000
DE00
FF00
E380
C180
C180
C180
C180
C180
E380
FF00
DE00
ENDCHAR
STARTCHAR c
ENCODING 99
SWIDTH 523 0
DWIDTH 10 0
BBX 9 11 1 0
BITMAP
3E00
7F00
E300
C380
C000
C000
C000
C380
E300
7F00
3C00
ENDCHAR
STARTCHAR d
ENCODING 100
SWIDTH 564 0
DWIDTH 11 0
BBX 9 15 1 0
BITMAP
0180
0180
0180
0180
3D80
7F80
E380
C180
C180
C180
C180
C180
E380
7F80
3D80
ENDCHAR
STARTCHAR e
ENCODING 101
SWIDTH 536 0
DWIDTH 11 0
BBX 9 11 1 0
BITMAP
1E00
7F00
6380
C180
FF80
FF80
C000
E000
7180
7F80
1E00
ENDCHAR
STARTCHAR f
ENCODING 102
SWIDTH 354 0
DWIDTH 7 0
BBX 7 15 0 0
BITMAP
1E
3E
38
30
FE
FE
30
30
30
30
30
30
30
30
30
ENDCHAR
STARTCHAR g
ENCODING 103
SWIDTH 566 0
DWIDTH 11 0
BBX 9 15 1 -4
BITMAP
3D80
7F80
E380
C180
C180
C180
C180
C180
E380
7F80
3D80
0380
4380
FF00
3E00
ENDCHAR
STARTCHAR h
ENCODING 104
SWIDTH 555 0
DWIDTH 11 0
BBX 9 15 1 0
BITMAP
E000
E000
E000
E000
FE00
FF00
E380
E380
E380
E380
E380
E380
E380
E380
E380
ENDCHAR
STARTCHAR i
ENCODING 105
SWIDTH 255 0
DWIDTH 5 0
BBX 3 16 1 0
BITMAP
E0
E0
E0
00
00
E0
E0
E0
E0
E0
E0
E0
E0
E0
E0
E0
ENDCHAR
STARTCHAR j
ENCODING 106
SWIDTH 250 0
DWIDTH 5 0
BBX 5 20 -1 -4
BITMAP
30
38
38
00
00
38
38
38
38
38
38
38
38
38
38
38
38
38
F0
E0
ENDCHAR
STARTCHAR k
ENCODING 107
SWIDTH 521 0
DWIDTH 10 0
BBX 10 15 1 0
BITMAP
E000
E000
E000
E000
E380
E700
EE00
FC00
F800
FC00
EC00
EE00
E700
E380
E3C0
ENDCHAR
STARTCHAR l
ENCODING 108
SWIDTH 255 0
DWIDTH 5 0
BBX 3 15 1 0
BITMAP
E0
E0
E0
E0
E0
E0
E0
E0
E0
E0
E0
E0
E0
E0
E0
ENDCHAR
STARTCHAR m
ENCODING 109
SWIDTH 870 0
DWIDTH 17 0
BBX 15 11 1 0
BITMAP
DE7C
FFFC
E38E
C386
C386
C386
C386
C386
C386
C386
C386
ENDCHAR
STARTCHAR n
ENCODING 110
SWIDTH 556 0
DWIDTH 11 0
BBX 9 11 1 0
BITMAP
CE00
FF00
E380
E380
E380
E380
E380
E380
E380
E380
E380
ENDCHAR
STARTCHAR o
ENCODING 111
SWIDTH 569 0
DWIDTH 11 0
BBX 9 11 1 0
BITMAP
3E00
7F00
E380
C180
C180
C180
C180
C180
E380
7F00
3E00
ENDCHAR
STARTCHAR p
ENCODING 112
SWIDTH 562 0
DWIDTH 11 0
BBX 9 15 1 -4
BITMAP
DE00
FF00
E380
C180
C180
C180
C180
C180
E380
FF00
DE00
C000
C000
C000
C000
ENDCHAR
STARTCHAR q
ENCODING 113
SWIDTH 567 0
DWIDTH 11 0
BBX 9 15 1 -4
BITMAP
3D80
7F80
E380
C380
C380
C380
C380
C380
E380
7F80
3F80
0380
0380
0380
0380
ENDCHAR
STARTCHAR r
ENCODING 114
SWIDTH 351 0
DWIDTH 7 0
BBX 6 11 1 0
BITMAP
DC
FC
E0
E0
E0
E0
E0
E0
E0
E0
E0
ENDCHAR
STARTCHAR s
ENCODING 115
SWIDTH 516 0
DWIDTH 10 0
BBX 8 11 1 0
BITMAP
3C
FF
E7
C3
F0
7E
0F
C3
C3
FF
3C
ENDCHAR
STARTCHAR t
ENCODING 116
SWIDTH 332 0
DWIDTH 7 0
BBX 6 14 0 0
BITMAP
30
30
30
FC
FC
30
30
30
30
30
30
38
3C
1C
ENDCHAR
STARTCHAR u
ENCODING 117
SWIDTH 555 0
DWIDTH 11 0
BBX 9 11 1 0
BITMAP
C380
C380
C380
C380
C380
C380
C380
E380
E380
7F80
3D80
ENDCHAR
STARTCHAR v
ENCODING 118
SWIDTH 494 0
DWIDTH 10 0
BBX 10 11 0 0
BITMAP
E1C0
6180
6180
7380
3300
3300
3F00
1E00
1E00
1E00
0C00
ENDCHAR
STARTCHAR w
ENCODING 119
SWIDTH 743 0
DWIDTH 15 0
BBX 15 11 0 0
BITMAP
E38E
638C
638C
639C
36D8
36D8
36D8
3C78
1C70
1C70
1830
ENDCHAR
STARTCHAR x
ENCODING 120
SWIDTH 502 0
DWIDTH 10 0
BBX 10 11 0 0
BITMAP
E1C0
7380
3300
3F00
1E00
0C00
1E00
3F00
3300
7380
E1C0
ENDCHAR
STARTCHAR y
ENCODING 121
SWIDTH 486 0
DWIDTH 10 0
BBX 10 15 0 -4
BITMAP
E1C0
6180
7380
7380
3300
3B00
1F00
1E00
1E00
0C00
0C00
0C00
1800
7800
7000
ENDCHAR
STARTCHAR z
ENCODING 122
SWIDTH 502 0
DWIDTH 10 0
BBX 8 11 1 0
BITMAP
FF
FF
06
0E
1C
18
38
70
E0
FF
FF
ENDCHAR
STARTCHAR braceleft
ENCODING 123
SWIDTH 335 0
DWIDTH 7 0
BBX 6 20 1 -4
BITMAP
08
1C
30
30
30
30
30
70
60
E0
E0
60
70
30
30
30
30
30
18
0C
ENDCHAR
STARTCHAR bar
ENCODING 124
SWIDTH 250 0
DWIDTH 5 0
BBX 1 17 2 -3
BITMAP
80
80
80
80
80
80
80
80
80
80
80
80
80
80
80
80
80
ENDCHAR
STARTCHAR braceright
ENCODING 125
SWIDTH 335 0
DWIDTH 7 0
BBX 6 20 0 -4
BITMAP
40
E0
30
30
30
30
30
30
18
1C
1C
18
30
30
30
30
30
30
60
C0
ENDCHAR
STARTCHAR asciitilde
ENCODING 126
SWIDTH 664 0
DWIDTH 13 0
BBX 11 4 1 4
BITMAP
7860
7C60
C7C0
C380
ENDCHAR
STARTCHAR uni00A0
ENCODING 160
SWIDTH 249 0
DWIDTH 5 0
BBX 1 1 0 0
BITMAP
00
ENDCHAR
STARTCHAR exclamdown
ENCODING 161
SWIDTH 264 0
DWIDTH 5 0
BBX 3 15 1 -4
BITMAP
E0
E0
E0
00
00
60
E0
E0
E0
E0
E0
E0
E0
E0
E0
ENDCHAR
STARTCHAR cent
ENCODING 162
SWIDTH 561 0
DWIDTH 11 0
BBX 9 15 1 -2
BITMAP
0C00
0C00
3E00
7F00
E380
E180
C000
C000
C000
C180
E380
7F00
3E00
0C00
0C00
ENDCHAR
STARTCHAR sterling
ENCODING 163
SWIDTH 588 0
DWIDTH 12 0
BBX 10 14 1 0
BITMAP
0F00
3F80
31C0
70C0
7000
3000
FE00
FE00
3000
3000
3000
7000
FFC0
FFC0
ENDCHAR
STARTCHAR currency
ENCODING 164
SWIDTH 701 0
DWIDTH 14 0
BBX 12 12 1 0
BITMAP
CF30
FFF0
70E0
6060
C030
C030
C030
C030
6060
70E0
FFF0
4F20
ENDCHAR
STARTCHAR yen
ENCODING 165
SWIDTH 531 0
DWIDTH 11 0
BBX 11 14 0 0
BITMAP
E0E0
71C0
71C0
3180
3B80
1B00
1F00
7FC0
7FC0
0E00
7FC0
7FC0
0E00
0E00
ENDCHAR
STARTCHAR brokenbar
ENCODING 166
SWIDTH 248 0
DWIDTH 5 0
BBX 3 17 1 -3
BITMAP
E0
E0
E0
E0
E0
E0
E0
00
00
E0
E0
E0
E0
E0
E0
E0
E0
ENDCHAR
STARTCHAR section
ENCODING 167
SWIDTH 621 0
DWIDTH 12 0
BBX 10 19 1 -5
BITMAP
3F00
7F80
E1C0
C1C0
E000
F000
7F00
EF80
C1C0
C0C0
E0C0
7DC0
3F80
0780
01C0
C1C0
E1C0
7F80
3F00
ENDCHAR
STARTCHAR dieresis
ENCODING 168
SWIDTH 439 0
DWIDTH 9 0
BBX 7 2 1 12
BITMAP
C6
CE
ENDCHAR
STARTCHAR copyright
ENCODING 169
SWIDTH 783 0
DWIDTH 16 0
BBX 14 15 1 0
BITMAP
0F80
1860
2010
4788
4CC8
884C
9804
9804
9804
884C
4CC8
4798
2010
1860
0F80
ENDCHAR
STARTCHAR ordfeminine
ENCODING 170
SWIDTH 445 0
DWIDTH 9 0
BBX 7 7 1 7
BITMAP
38
44
04
7C
C4
C4
7E
ENDCHAR
STARTCHAR guillemotleft
ENCODING 171
SWIDTH 485 0
DWIDTH 10 0
BBX 8 8 1 1
BITMAP
33
26
6C
CC
DC
6C
26
33
ENDCHAR
STARTCHAR logicalnot
ENCODING 172
SWIDTH 553 0
DWIDTH 11 0
BBX 8 4 1 4
BITMAP
FF
FF
03
03
ENDCHAR
STARTCHAR uni00AD
ENCODING 173
SWIDTH 328 0
DWIDTH 7 0
BBX 5 2 1 5
BITMAP
F8
F8
ENDCHAR
STARTCHAR registered
ENCODING 174
SWIDTH 783 0
DWIDTH 16 0
BBX 14 14 1 0
BITMAP
0FC0
1860
2010
4F88
CCC8
8C44
8CC4
8F84
8CC4
CCC8
4C48
2010
1860
0FC0
ENDCHAR
STARTCHAR macron
ENCODING 175
SWIDTH 481 0
DWIDTH 10 0
BBX 6 2 2 12
BITMAP
FC
FC
ENDCHAR
STARTCHAR degree
ENCODING 176
SWIDTH 379 0
DWIDTH 8 0
BBX 6 5 1 9
BITMAP
78
48
CC
48
78
ENDCHAR
STARTCHAR plusminus
ENCODING 177
SWIDTH 536 0
DWIDTH 11 0
BBX 9 13 1 0
BITMAP
1C00
1C00
1C00
1C00
FF80
FF80
1C00
1C00
1C00
1C00
0000
FF80
FF80
ENDCHAR
STARTCHAR uni00B2
ENCODING 178
SWIDTH 370 0
DWIDTH 7 0
BBX 7 8 0 6
BITMAP
38
6C
CC
0C
18
30
60
7E
ENDCHAR
STARTCHAR uni00B3
ENCODING 179
SWIDTH 370 0
DWIDTH 7 0
BBX 6 8 0 6
BITMAP
78
4C
8C
38
0C
04
CC
78
ENDCHAR
STARTCHAR acute
ENCODING 180
SWIDTH 325 0
DWIDTH 7 0
BBX 5 3 1 12
BITMAP
38
60
C0
ENDCHAR
STARTCHAR mu
ENCODING 181
SWIDTH 591 0
DWIDTH 12 0
BBX 8 15 2 -4
BITMAP
C3
C3
C3
C3
C3
C3
C3
C3
C7
FF
FF
C0
C0
C0
C0
ENDCHAR
STARTCHAR paragraph
ENCODING 182
SWIDTH 490 0
DWIDTH 10 0
BBX 7 14 1 0
BITMAP
3E
7E
FE
FE
FE
FE
FE
7E
3E
06
06
06
06
06
ENDCHAR
STARTCHAR periodcentered
ENCODING 183
SWIDTH 282 0
DWIDTH 6 0
BBX 2 3 2 5
BITMAP
C0
C0
C0
ENDCHAR
STARTCHAR cedilla
ENCODING 184
SWIDTH 257 0
DWIDTH 5 0
BBX 3 4 1 -4
BITMAP
C0
60
60
E0
ENDCHAR
STARTCHAR uni00B9
ENCODING 185
SWIDTH 370 0
DWIDTH 7 0
BBX 4 8 1 6
BITMAP
30
F0
30
30
30
30
30
30
ENDCHAR
STARTCHAR ordmasculine
ENCODING 186
SWIDTH 456 0
DWIDTH 9 0
BBX 7 7 1 7
BITMAP
38
44
C6
C6
C6
44
38
ENDCHAR
STARTCHAR guillemotright
ENCODING 187
SWIDTH 485 0
DWIDTH 10 0
BBX 8 8 1 1
BITMAP
CC
6C
66
33
33
66
6C
CC
ENDCHAR
STARTCHAR onequarter
ENCODING 188
SWIDTH 726 0
DWIDTH 15 0
BBX 13 14 1 0
BITMAP
3000
F040
30C0
3080
3180
3300
3230
3670
04F0
0CB0
19B0
13F8
3030
0030
ENDCHAR
STARTCHAR onehalf
ENCODING 189
SWIDTH 770 0
DWIDTH 15 0
BBX 13 14 1 0
BITMAP
3000
F0C0
3080
3180
3100
3300
36F0
3598
0D98
1818
1830
3060
20C0
01F8
ENDCHAR
STARTCHAR threequarters
ENCODING 190
SWIDTH 792 0
DWIDTH 16 0
BBX 14 14 1 0
BITMAP
7800
CC20
0C30
3860
0CC0
0C80
CD98
7938
0378
0658
04D8
0CFC
0818
0018
ENDCHAR
STARTCHAR questiondown
ENCODING 191
SWIDTH 486 0
DWIDTH 10 0
BBX 8 15 1 -4
BITMAP
18
18
18
00
00
18
18
38
70
E0
C0
C3
E7
FF
3C
ENDCHAR
STARTCHAR Agrave
ENCODING 192
SWIDTH 665 0
DWIDTH 13 0
BBX 13 18 0 0
BITMAP
1C00
0600
0300
0000
0700
0700
0780
0D80
0D80
1CC0
18C0
18E0
3860
3FE0
3FF0
7030
6038
E038
ENDCHAR
STARTCHAR Aacute
ENCODING 193
SWIDTH 665 0
DWIDTH 13 0
BBX 13 18 0 0
BITMAP
01C0
0380
0700
0000
0700
0700
0780
0D80
0D80
1CC0
18C0
18E0
3860
3FE0
3FF0
7030
6038
E038
ENDCHAR
STARTCHAR Acircumflex
ENCODING 194
SWIDTH 665 0
DWIDTH 13 0
BBX 13 18 0 0
BITMAP
0700
0F80
1CC0
0000
0700
0700
0780
0D80
0D80
1CC0
18C0
18E0
3860
3FE0
3FF0
7030
6038
E038
ENDCHAR
STARTCHAR Atilde
ENCODING 195
SWIDTH 665 0
DWIDTH 13 0
BBX 13 18 0 0
BITMAP
0E40
1FC0
1980
0000
0700
0700
0780
0D80
0D80
1CC0
18C0
18E0
3860
3FE0
3FF0
7030
6038
E038
ENDCHAR
STARTCHAR Adieresis
ENCODING 196
SWIDTH 665 0
DWIDTH 13 0
BBX 13 17 0 0
BITMAP
1CC0
1CC0
0000
0700
0700
0780
0D80
0D80
1CC0
18C0
18E0
3860
3FE0
3FF0
7030
6038
E038
ENDCHAR
STARTCHAR Aring
ENCODING 197
SWIDTH 665 0
DWIDTH 13 0
BBX 13 19 0 0
BITMAP
0700
0480
0480
0700
0000
0700
0700
0780
0D80
0D80
1CC0
18C0
18E0
3860
3FE0
3FF0
7030
6038
E038
ENDCHAR
STARTCHAR AE
ENCODING 198
SWIDTH 939 0
DWIDTH 19 0
BBX 18 14 0 0
BITMAP
00FFC0
01FFC0
01E000
03F000
077000
067000
0E7F80
0C7F80
1C7000
1FF000
3FF000
707000
703FC0
E03FC0
ENDCHAR
STARTCHAR Ccedilla
ENCODING 199
SWIDTH 652 0
DWIDTH 13 0
BBX 11 18 1 -4
BITMAP
1F00
3FC0
70E0
E0E0
E060
C000
C000
C000
C000
E060
E0E0
70E0
3FC0
1F00
0400
0F00
0300
0600
ENDCHAR
STARTCHAR Egrave
ENCODING 200
SWIDTH 565 0
DWIDTH 11 0
BBX 10 18 1 0
BITMAP
3800
1C00
0C00
0000
FFC0
FFC0
E000
E000
E000
E000
FF80
FF80
E000
E000
E000
E000
FFC0
FFC0
ENDCHAR
STARTCHAR Eacute
ENCODING 201
SWIDTH 565 0
DWIDTH 11 0
BBX 10 18 1 0
BITMAP
0780
0600
0C00
0000
FFC0
FFC0
E000
E000
E000
E000
FF80
FF80
E000
E000
E000
E000
FFC0
FFC0
ENDCHAR
STARTCHAR Ecircumflex
ENCODING 202
SWIDTH 565 0
DWIDTH 11 0
BBX 10 18 1 0
BITMAP
0C00
1E00
3300
0000
FFC0
FFC0
E000
E000
E000
E000
FF80
FF80
E000
E000
E000
E000
FFC0
FFC0
ENDCHAR
STARTCHAR Edieresis
ENCODING 203
SWIDTH 565 0
DWIDTH 11 0
BBX 10 17 1 0
BITMAP
3300
3380
0000
FFC0
FFC0
E000
E000
E000
E000
FF80
FF80
E000
E000
E000
E000
FFC0
FFC0
ENDCHAR
STARTCHAR Igrave
ENCODING 204
SWIDTH 282 0
DWIDTH 6 0
BBX 5 18 -1 0
BITMAP
F0
30
18
00
18
18
18
18
18
18
18
18
18
18
18
18
18
18
ENDCHAR
STARTCHAR Iacute
ENCODING 205
SWIDTH 282 0
DWIDTH 6 0
BBX 4 18 2 0
BITMAP
70
E0
C0
00
C0
C0
C0
C0
C0
C0
C0
C0
C0
C0
C0
C0
C0
C0
ENDCHAR
STARTCHAR Icircumflex
ENCODING 206
SWIDTH 282 0
DWIDTH 6 0
BBX 7 18 -1 0
BITMAP
18
7C
E6
00
18
18
18
18
18
18
18
18
18
18
18
18
18
18
ENDCHAR
STARTCHAR Idieresis
ENCODING 207
SWIDTH 282 0
DWIDTH 6 0
BBX 7 17 -1 0
BITMAP
66
E6
00
18
18
18
18
18
18
18
18
18
18
18
18
18
18
ENDCHAR
STARTCHAR Eth
ENCODING 208
SWIDTH 667 0
DWIDTH 13 0
BBX 12 14 0 0
BITMAP
3F00
3FC0
30E0
3070
3070
3030
FC30
FC30
3030
3070
3070
30E0
3FC0
3F00
ENDCHAR
STARTCHAR Ntilde
ENCODING 209
SWIDTH 709 0
DWIDTH 14 0
BBX 12 18 1 0
BITMAP
1CC0
1F80
1380
0000
E070
F070
F070
F870
FC70
EC70
EE70
E770
E370
E3F0
E1F0
E0F0
E0F0
E070
ENDCHAR
STARTCHAR Ograve
ENCODING 210
SWIDTH 690 0
DWIDTH 14 0
BBX 12 18 1 0
BITMAP
1C00
0C00
0600
0000
0F00
3FC0
70E0
6060
E070
E070
E070
E070
E070
E070
6060
70E0
3FC0
0F00
ENDCHAR
STARTCHAR Oacute
ENCODING 211
SWIDTH 690 0
DWIDTH 14 0
BBX 12 18 1 0
BITMAP
0380
0700
0600
0000
0F00
3FC0
70E0
6060
E070
E070
E070
E070
E070
E070
6060
70E0
3FC0
0F00
ENDCHAR
STARTCHAR Ocircumflex
ENCODING 212
SWIDTH 690 0
DWIDTH 14 0
BBX 12 18 1 0
BITMAP
0600
0F00
1980
0000
0F00
3FC0
70E0
6060
E070
E070
E070
E070
E070
E070
6060
70E0
3FC0
0F00
ENDCHAR
STARTCHAR Otilde
ENCODING 213
SWIDTH 690 0
DWIDTH 14 0
BBX 12 18 1 0
BITMAP
1CC0
1F80
3380
0000
0F00
3FC0
70E0
6060
E070
E070
E070
E070
E070
E070
6060
70E0
3FC0
0F00
ENDCHAR
STARTCHAR Odieresis
ENCODING 214
SWIDTH 690 0
DWIDTH 14 0
BBX 12 17 1 0
BITMAP
1980
3980
0000
0F00
3FC0
70E0
6060
E070
E070
E070
E070
E070
E070
6060
70E0
3FC0
0F00
ENDCHAR
STARTCHAR multiply
ENCODING 215
SWIDTH 533 0
DWIDTH 11 0
BBX 9 9 1 2
BITMAP
4100
E380
7700
3E00
1C00
3E00
7700
E380
4100
ENDCHAR
STARTCHAR Oslash
ENCODING 216
SWIDTH 689 0
DWIDTH 14 0
BBX 12 15 1 -1
BITMAP
0FB0
3FE0
70E0
60E0
E1F0
E370
E270
E670
E470
EC70
7860
70E0
3FC0
6F80
4000
ENDCHAR
STARTCHAR Ugrave
ENCODING 217
SWIDTH 651 0
DWIDTH 13 0
BBX 11 18 1 0
BITMAP
3800
1C00
0E00
0000
E0E0
E0E0
E0E0
E0E0
E0E0
E0E0
E0E0
E0E0
E0E0
E0E0
E0E0
71C0
7FC0
1F00
ENDCHAR
STARTCHAR Uacute
ENCODING 218
SWIDTH 651 0
DWIDTH 13 0
BBX 11 18 1 0
BITMAP
0380
0700
0E00
0000
E0E0
E0E0
E0E0
E0E0
E0E0
E0E0
E0E0
E0E0
E0E0
E0E0
E0E0
71C0
7FC0
1F00
ENDCHAR
STARTCHAR Ucircumflex
ENCODING 219
SWIDTH 651 0
DWIDTH 13 0
BBX 11 18 1 0
BITMAP
0E00
1B00
3980
0000
E0E0
E0E0
E0E0
E0E0
E0E0
E0E0
E0E0
E0E0
E0E0
E0E0
E0E0
71C0
7FC0
1F00
ENDCHAR
STARTCHAR Udieresis
ENCODING 220
SWIDTH 651 0
DWIDTH 13 0
BBX 11 17 1 0
BITMAP
3180
3980
0000
E0E0
E0E0
E0E0
E0E0
E0E0
E0E0
E0E0
E0E0
E0E0
E0E0
E0E0
71C0
7FC0
1F00
ENDCHAR
STARTCHAR Yacute
ENCODING 221
SWIDTH 609 0
DWIDTH 12 0
BBX 12 18 0 0
BITMAP
03C0
0300
0600
0000
E070
7060
70E0
38C0
39C0
1D80
0F80
0F00
0700
0600
0600
0600
0600
0600
ENDCHAR
STARTCHAR Thorn
ENCODING 222
SWIDTH 598 0
DWIDTH 12 0
BBX 10 14 1 0
BITMAP
E000
E000
E000
FF00
FF80
E1C0
E0C0
E0C0
E1C0
FF80
FF00
E000
E000
E000
ENDCHAR
STARTCHAR germandbls
ENCODING 223
SWIDTH 612 0
DWIDTH 12 0
BBX 10 15 1 0
BITMAP
3E00
7F00
E300
E300
E300
E700
E600
E600
E700
E380
E1C0
E0C0
F0C0
EFC0
EF80
ENDCHAR
STARTCHAR agrave
ENCODING 224
SWIDTH 541 0
DWIDTH 11 0
BBX 9 15 1 0
BITMAP
7000
3800
1C00
0000
3E00
7F00
E300
0380
3F80
7F80
E380
C380
E380
7F80
3B80
ENDCHAR
STARTCHAR aacute
ENCODING 225
SWIDTH 541 0
DWIDTH 11 0
BBX 9 15 1 0
BITMAP
0700
0E00
1C00
0000
3E00
7F00
E300
0380
3F80
7F80
E380
C380
E380
7F80
3B80
ENDCHAR
STARTCHAR acircumflex
ENCODING 226
SWIDTH 541 0
DWIDTH 11 0
BBX 9 15 1 0
BITMAP
1C00
3600
7300
0000
3E00
7F00
E300
0380
3F80
7F80
E380
C380
E380
7F80
3B80
ENDCHAR
STARTCHAR atilde
ENCODING 227
SWIDTH 541 0
DWIDTH 11 0
BBX 9 15 1 0
BITMAP
3100
7F00
6600
0000
3E00
7F00
E300
0380
3F80
7F80
E380
C380
E380
7F80
3B80
ENDCHAR
STARTCHAR adieresis
ENCODING 228
SWIDTH 541 0
DWIDTH 11 0
BBX 9 14 1 0
BITMAP
6300
7300
0000
3E00
7F00
E300
0380
3F80
7F80
E380
C380
E380
7F80
3B80
ENDCHAR
STARTCHAR aring
ENCODING 229
SWIDTH 541 0
DWIDTH 11 0
BBX 9 16 1 0
BITMAP
1C00
3600
3200
1C00
0000
3E00
7F00
E300
0380
3F80
7F80
E380
C380
E380
7F80
3B80
ENDCHAR
STARTCHAR ae
ENCODING 230
SWIDTH 844 0
DWIDTH 17 0
BBX 15 11 1 0
BITMAP
3E78
7FFC
E386
4386
03FE
7FFE
FF80
C380
C3C2
FEFE
7C7C
ENDCHAR
STARTCHAR ccedilla
ENCODING 231
SWIDTH 523 0
DWIDTH 10 0
BBX 9 15 1 -4
BITMAP
3E00
7F00
E300
C380
C000
C000
C000
C380
E300
7F00
3C00
1800
0C00
0C00
1C00
ENDCHAR
STARTCHAR egrave
ENCODING 232
SWIDTH 536 0
DWIDTH 11 0
BBX 9 15 1 0
BITMAP
7000
3800
1C00
0000
1E00
7F00
6380
C180
FF80
FF80
C000
E000
7180
7F80
1E00
ENDCHAR
STARTCHAR eacute
ENCODING 233
SWIDTH 536 0
DWIDTH 11 0
BBX 9 15 1 0
BITMAP
0700
0C00
1C00
0000
1E00
7F00
6380
C180
FF80
FF80
C000
E000
7180
7F80
1E00
ENDCHAR
STARTCHAR ecircumflex
ENCODING 234
SWIDTH 536 0
DWIDTH 11 0
BBX 9 15 1 0
BITMAP
1C00
3600
6700
0000
1E00
7F00
6380
C180
FF80
FF80
C000
E000
7180
7F80
1E00
ENDCHAR
STARTCHAR edieresis
ENCODING 235
SWIDTH 536 0
DWIDTH 11 0
BBX 9 14 1 0
BITMAP
6300
6700
0000
1E00
7F00
6380
C180
FF80
FF80
C000
E000
7180
7F80
1E00
ENDCHAR
STARTCHAR igrave
ENCODING 236
SWIDTH 262 0
DWIDTH 5 0
BBX 5 15 -1 0
BITMAP
E0
30
38
00
38
38
38
38
38
38
38
38
38
38
38
ENDCHAR
STARTCHAR iacute
ENCODING 237
SWIDTH 262 0
DWIDTH 5 0
BBX 5 15 1 0
BITMAP
38
70
E0
00
E0
E0
E0
E0
E0
E0
E0
E0
E0
E0
E0
ENDCHAR
STARTCHAR icircumflex
ENCODING 238
SWIDTH 262 0
DWIDTH 5 0
BBX 7 15 -1 0
BITMAP
38
7C
E6
00
38
38
38
38
38
38
38
38
38
38
38
ENDCHAR
STARTCHAR idieresis
ENCODING 239
SWIDTH 262 0
DWIDTH 5 0
BBX 7 14 -1 0
BITMAP
C6
E6
00
38
38
38
38
38
38
38
38
38
38
38
ENDCHAR
STARTCHAR eth
ENCODING 240
SWIDTH 581 0
DWIDTH 12 0
BBX 10 15 1 0
BITMAP
3000
3D80
1E00
0F00
1B80
0180
3FC0
7FC0
61C0
E1C0
E1C0
E1C0
6380
7F00
1E00
ENDCHAR
STARTCHAR ntilde
ENCODING 241
SWIDTH 556 0
DWIDTH 11 0
BBX 9 15 1 0
BITMAP
3900
7F00
6600
0000
CE00
FF00
E380
E380
E380
E380
E380
E380
E380
E380
E380
ENDCHAR
STARTCHAR ograve
ENCODING 242
SWIDTH 569 0
DWIDTH 11 0
BBX 9 15 1 0
BITMAP
7000
1800
1C00
0000
3E00
7F00
E380
C180
C180
C180
C180
C180
E380
7F00
3E00
ENDCHAR
STARTCHAR oacute
ENCODING 243
SWIDTH 569 0
DWIDTH 11 0
BBX 9 15 1 0
BITMAP
0700
0E00
1C00
0000
3E00
7F00
E380
C180
C180
C180
C180
C180
E380
7F00
3E00
ENDCHAR
STARTCHAR ocircumflex
ENCODING 244
SWIDTH 569 0
DWIDTH 11 0
BBX 9 15 1 0
BITMAP
1C00
3E00
7300
0000
3E00
7F00
E380
C180
C180
C180
C180
C180
E380
7F00
3E00
ENDCHAR
STARTCHAR otilde
ENCODING 245
SWIDTH 569 0
DWIDTH 11 0
BBX 9 15 1 0
BITMAP
3900
7F00
6600
0000
3E00
7F00
E380
C180
C180
C180
C180
C180
E380
7F00
3E00
ENDCHAR
STARTCHAR odieresis
ENCODING 246
SWIDTH 569 0
DWIDTH 11 0
BBX 9 14 1 0
BITMAP
6300
7300
0000
3E00
7F00
E380
C180
C180
C180
C180
C180
E380
7F00
3E00
ENDCHAR
STARTCHAR divide
ENCODING 247
SWIDTH 570 0
DWIDTH 11 0
BBX 10 12 0 1
BITMAP
0E00
0E00
0E00
0000
0000
FFC0
FFC0
0000
0000
0E00
0E00
0E00
ENDCHAR
STARTCHAR oslash
ENCODING 248
SWIDTH 566 0
DWIDTH 11 0
BBX 9 13 1 -1
BITMAP
0180
3F00
7F00
E780
C580
CD80
C980
D980
D180
F380
7F00
7E00
4000
ENDCHAR
STARTCHAR ugrave
ENCODING 249
SWIDTH 555 0
DWIDTH 11 0
BBX 9 15 1 0
BITMAP
7000
3800
1C00
0000
C380
C380
C380
C380
C380
C380
C380
E380
E380
7F80
3D80
ENDCHAR
STARTCHAR uacute
ENCODING 250
SWIDTH 555 0
DWIDTH 11 0
BBX 9 15 1 0
BITMAP
0700
0E00
1C00
0000
C380
C380
C380
C380
C380
C380
C380
E380
E380
7F80
3D80
ENDCHAR
STARTCHAR ucircumflex
ENCODING 251
SWIDTH 555 0
DWIDTH 11 0
BBX 9 15 1 0
BITMAP
1C00
3600
7300
0000
C380
C380
C380
C380
C380
C380
C380
E380
E380
7F80
3D80
ENDCHAR
STARTCHAR udieresis
ENCODING 252
SWIDTH 555 0
DWIDTH 11 0
BBX 9 14 1 0
BITMAP
6300
7300
0000
C380
C380
C380
C380
C380
C380
C380
E380
E380
7F80
3D80
ENDCHAR
STARTCHAR yacute
ENCODING 253
SWIDTH 486 0
DWIDTH 10 0
BBX 10 19 0 -4
BITMAP
0700
0600
0C00
0000
E1C0
6180
7380
7380
3300
3B00
1F00
1E00
1E00
0C00
0C00
0C00
1800
7800
7000
ENDCHAR
STARTCHAR thorn
ENCODING 254
SWIDTH 573 0
DWIDTH 11 0
BBX 9 19 1 -4
BITMAP
C000
C000
C000
C000
DE00
FF00
E380
C180
C180
C180
C180
C180
E380
FF00
DE00
C000
C000
C000
C000
ENDCHAR
STARTCHAR ydieresis
ENCODING 255
SWIDTH 486 0
DWIDTH 10 0
BBX 10 18 0 -4
BITMAP
3300
3300
0000
E1C0
6180
7380
7380
3300
3B00
1F00
1E00
1E00
0C00
0C00
0C00
1800
7800
7000
ENDCHAR
STARTCHAR Amacron
ENCODING 256
SWIDTH 665 0
DWIDTH 13 0
BBX 13 17 0 0
BITMAP
1FC0
1FC0
0000
0700
0700
0780
0D80
0D80
1CC0
18C0
18E0
3860
3FE0
3FF0
7030
6038
E038
ENDCHAR
STARTCHAR amacron
ENCODING 257
SWIDTH 541 0
DWIDTH 11 0
BBX 9 14 1 0
BITMAP
7F00
7F00
0000
3E00
7F00
E300
0380
3F80
7F80
E380
C380
E380
7F80
3B80
ENDCHAR
STARTCHAR Abreve
ENCODING 258
SWIDTH 665 0
DWIDTH 13 0
BBX 13 18 0 0
BITMAP
08C0
0CC0
0780
0000
0700
0700
0780
0D80
0D80
1CC0
18C0
18E0
3860
3FE0
3FF0
7030
6038
E038
ENDCHAR
STARTCHAR abreve
ENCODING 259
SWIDTH 541 0
DWIDTH 11 0
BBX 9 15 1 0
BITMAP
6300
3200
1C00
0000
3E00
7F00
E300
0380
3F80
7F80
E380
C380
E380
7F80
3B80
ENDCHAR
STARTCHAR Aogonek
ENCODING 260
SWIDTH 665 0
DWIDTH 13 0
BBX 13 18 0 -4
BITMAP
0700
0700
0F80
0D80
0D80
1DC0
18C0
18C0
38E0
3FE0
7FF0
7070
6030
E038
0030
0060
0070
0078
ENDCHAR
STARTCHAR aogonek
ENCODING 261
SWIDTH 541 0
DWIDTH 11 0
BBX 9 15 1 -4
BITMAP
3E00
7F00
E300
0380
3F80
7F80
E380
C380
E380
7F80
3B80
0300
0600
0780
0380
ENDCHAR
STARTCHAR Cacute
ENCODING 262
SWIDTH 652 0
DWIDTH 13 0
BBX 11 18 1 0
BITMAP
0380
0700
0E00
0000
1F00
3FC0
70E0
E0E0
E060
C000
C000
C000
C000
E060
E0E0
70E0
3FC0
1F00
ENDCHAR
STARTCHAR cacute
ENCODING 263
SWIDTH 523 0
DWIDTH 10 0
BBX 9 15 1 0
BITMAP
0700
0C00
1800
0000
3E00
7F00
E300
C380
C000
C000
C000
C380
E300
7F00
3C00
ENDCHAR
STARTCHAR Ccircumflex
ENCODING 264
SWIDTH 652 0
DWIDTH 13 0
BBX 11 18 1 0
BITMAP
0E00
1F00
3980
0000
1F00
3FC0
70E0
E0E0
E060
C000
C000
C000
C000
E060
E0E0
70E0
3FC0
1F00
ENDCHAR
STARTCHAR ccircumflex
ENCODING 265
SWIDTH 523 0
DWIDTH 10 0
BBX 9 15 1 0
BITMAP
1800
3E00
6700
0000
3E00
7F00
E300
C380
C000
C000
C000
C380
E300
7F00
3C00
ENDCHAR
STARTCHAR Cdotaccent
ENCODING 266
SWIDTH 652 0
DWIDTH 13 0
BBX 11 17 1 0
BITMAP
0E00
0E00
0000
1F00
3FC0
70E0
E0E0
E060
C000
C000
C000
C000
E060
E0E0
70E0
3FC0
1F00
ENDCHAR
STARTCHAR cdotaccent
ENCODING 267
SWIDTH 523 0
DWIDTH 10 0
BBX 9 14 1 0
BITMAP
1800
1800
0000
3E00
7F00
E300
C380
C000
C000
C000
C380
E300
7F00
3C00
ENDCHAR
STARTCHAR Ccaron
ENCODING 268
SWIDTH 652 0
DWIDTH 13 0
BBX 11 18 1 0
BITMAP
3980
0F00
0E00
0000
1F00
3FC0
70E0
E0E0
E060
C000
C000
C000
C000
E060
E0E0
70E0
3FC0
1F00
ENDCHAR
STARTCHAR ccaron
ENCODING 269
SWIDTH 523 0
DWIDTH 10 0
BBX 9 15 1 0
BITMAP
6700
3C00
1800
0000
3E00
7F00
E300
C380
C000
C000
C000
C380
E300
7F00
3C00
ENDCHAR
STARTCHAR Dcaron
ENCODING 270
SWIDTH 653 0
DWIDTH 13 0
BBX 11 18 1 0
BITMAP
7300
3600
1C00
0000
FE00
FF80
E1C0
E0C0
E0E0
E0E0
E060
E060
E0E0
E0E0
E0C0
E1C0
FF80
FE00
ENDCHAR
STARTCHAR dcaron
ENCODING 271
SWIDTH 637 0
DWIDTH 13 0
BBX 12 15 1 0
BITMAP
01B0
01B0
01B0
01A0
3D80
7F80
E380
C180
C180
C180
C180
C180
E380
7F80
3D80
ENDCHAR
STARTCHAR Dcroat
ENCODING 272
SWIDTH 667 0
DWIDTH 13 0
BBX 12 14 0 0
BITMAP
3F00
3FC0
30E0
3070
3070
3030
FC30
FC30
3030
3070
3070
30E0
3FC0
3F00
ENDCHAR
STARTCHAR dcroat
ENCODING 273
SWIDTH 615 0
DWIDTH 12 0
BBX 11 15 1 0
BITMAP
0180
0FE0
0FE0
0180
3D80
7F80
E380
C180
C180
C180
C180
C180
E380
7F80
3D80
ENDCHAR
STARTCHAR Emacron
ENCODING 274
SWIDTH 565 0
DWIDTH 11 0
BBX 10 17 1 0
BITMAP
3F80
3F80
0000
FFC0
FFC0
E000
E000
E000
E000
FF80
FF80
E000
E000
E000
E000
FFC0
FFC0
ENDCHAR
STARTCHAR emacron
ENCODING 275
SWIDTH 536 0
DWIDTH 11 0
BBX 9 14 1 0
BITMAP
7F00
7F00
0000
1E00
7F00
6380
C180
FF80
FF80
C000
E000
7180
7F80
1E00
ENDCHAR
STARTCHAR Ebreve
ENCODING 276
SWIDTH 565 0
DWIDTH 11 0
BBX 10 18 1 0
BITMAP
3300
3300
1E00
0000
FFC0
FFC0
E000
E000
E000
E000
FF80
FF80
E000
E000
E000
E000
FFC0
FFC0
ENDCHAR
STARTCHAR ebreve
ENCODING 277
SWIDTH 536 0
DWIDTH 11 0
BBX 9 15 1 0
BITMAP
6300
2600
1C00
0000
1E00
7F00
6380
C180
FF80
FF80
C000
E000
7180
7F80
1E00
ENDCHAR
STARTCHAR Edotaccent
ENCODING 278
SWIDTH 565 0
DWIDTH 11 0
BBX 10 17 1 0
BITMAP
0C00
0C00
0000
FFC0
FFC0
E000
E000
E000
E000
FF80
FF80
E000
E000
E000
E000
FFC0
FFC0
ENDCHAR
STARTCHAR edotaccent
ENCODING 279
SWIDTH 536 0
DWIDTH 11 0
BBX 9 14 1 0
BITMAP
1800
1C00
0000
1E00
7F00
6380
C180
FF80
FF80
C000
E000
7180
7F80
1E00
ENDCHAR
STARTCHAR Eogonek
ENCODING 280
SWIDTH 565 0
DWIDTH 11 0
BBX 10 18 1 -4
BITMAP
FFC0
FFC0
E000
E000
E000
E000
FF80
FF80
E000
E000
E000
E000
FFC0
FFC0
0300
0600
0780
0380
ENDCHAR
STARTCHAR eogonek
ENCODING 281
SWIDTH 536 0
DWIDTH 11 0
BBX 9 15 1 -4
BITMAP
1E00
7F00
6380
C180
FF80
FF80
C000
E000
7180
7F80
1E00
0C00
0C00
0E00
0E00
ENDCHAR
STARTCHAR Ecaron
ENCODING 282
SWIDTH 565 0
DWIDTH 11 0
BBX 10 18 1 0
BITMAP
3380
1E00
0C00
0000
FFC0
FFC0
E000
E000
E000
E000
FF80
FF80
E000
E000
E000
E000
FFC0
FFC0
ENDCHAR
STARTCHAR ecaron
ENCODING 283
SWIDTH 536 0
DWIDTH 11 0
BBX 9 15 1 0
BITMAP
6700
3600
1C00
0000
1E00
7F00
6380
C180
FF80
FF80
C000
E000
7180
7F80
1E00
ENDCHAR
STARTCHAR Gcircumflex
ENCODING 284
SWIDTH 680 0
DWIDTH 14 0
BBX 12 18 1 0
BITMAP
0E00
1F00
3980
0000
1F80
3FC0
70E0
6060
E070
E000
E000
E3F0
E3F0
E070
6070
7070
3FE0
0F80
ENDCHAR
STARTCHAR gcircumflex
ENCODING 285
SWIDTH 566 0
DWIDTH 11 0
BBX 9 19 1 -4
BITMAP
1C00
3600
6700
0000
3D80
7F80
E380
C180
C180
C180
C180
C180
E380
7F80
3D80
0380
4380
FF00
3E00
ENDCHAR
STARTCHAR Gbreve
ENCODING 286
SWIDTH 680 0
DWIDTH 14 0
BBX 12 18 1 0
BITMAP
3180
1900
0F00
0000
1F80
3FC0
70E0
6060
E070
E000
E000
E3F0
E3F0
E070
6070
7070
3FE0
0F80
ENDCHAR
STARTCHAR gbreve
ENCODING 287
SWIDTH 566 0
DWIDTH 11 0
BBX 9 19 1 -4
BITMAP
6300
2600
1C00
0000
3D80
7F80
E380
C180
C180
C180
C180
C180
E380
7F80
3D80
0380
4380
FF00
3E00
ENDCHAR
STARTCHAR Gdotaccent
ENCODING 288
SWIDTH 680 0
DWIDTH 14 0
BBX 12 17 1 0
BITMAP
0E00
0E00
0000
1F80
3FC0
70E0
6060
E070
E000
E000
E3F0
E3F0
E070
6070
7070
3FE0
0F80
ENDCHAR
STARTCHAR gdotaccent
ENCODING 289
SWIDTH 566 0
DWIDTH 11 0
BBX 9 18 1 -4
BITMAP
1800
1C00
0000
3D80
7F80
E380
C180
C180
C180
C180
C180
E380
7F80
3D80
0380
4380
FF00
3E00
ENDCHAR
STARTCHAR uni0122
ENCODING 290
SWIDTH 680 0
DWIDTH 14 0
BBX 12 19 1 -5
BITMAP
1F80
3FC0
70E0
6060
E070
E000
E000
E3F0
E3F0
E070
6070
7070
3FE0
0F80
0000
0600
0600
0600
0C00
ENDCHAR
STARTCHAR uni0123
ENCODING 291
SWIDTH 566 0
DWIDTH 11 0
BBX 9 20 1 -4
BITMAP
0C00
0C00
1800
1800
0000
3D80
7F80
E380
C180
C180
C180
C180
C180
E380
7F80
3D80
0380
4380
FF00
3E00
ENDCHAR
STARTCHAR Hcircumflex
ENCODING 292
SWIDTH 710 0
DWIDTH 14 0
BBX 12 18 1 0
BITMAP
0600
0F00
1980
0000
E070
E070
E070
E070
E070
E070
FFF0
FFF0
E070
E070
E070
E070
E070
E070
ENDCHAR
STARTCHAR hcircumflex
ENCODING 293
SWIDTH 555 0
DWIDTH 11 0
BBX 9 19 1 0
BITMAP
1800
3C00
6600
0000
E000
E000
E000
E000
FE00
FF00
E380
E380
E380
E380
E380
E380
E380
E380
E380
ENDCHAR
STARTCHAR Hbar
ENCODING 294
SWIDTH 710 0
DWIDTH 14 0
BBX 14 14 0 0
BITMAP
3038
3038
3038
FFFC
FFFC
3038
3FF8
3FF8
3038
3038
3038
3038
3038
3038
ENDCHAR
STARTCHAR hbar
ENCODING 295
SWIDTH 569 0
DWIDTH 11 0
BBX 11 15 -1 0
BITMAP
3800
FE00
FE00
3800
3BC0
3FC0
38E0
3860
3860
3860
3860
3860
3860
3860
3860
ENDCHAR
STARTCHAR Itilde
ENCODING 296
SWIDTH 282 0
DWIDTH 6 0
BBX 7 18 -1 0
BITMAP
72
7E
CC
00
18
18
18
18
18
18
18
18
18
18
18
18
18
18
ENDCHAR
STARTCHAR itilde
ENCODING 297
SWIDTH 262 0
DWIDTH 5 0
BBX 7 15 -1 0
BITMAP
72
FE
CC
00
38
38
38
38
38
38
38
38
38
38
38
ENDCHAR
STARTCHAR Imacron
ENCODING 298
SWIDTH 282 0
DWIDTH 6 0
BBX 6 17 0 0
BITMAP
FC
FC
00
30
30
30
30
30
30
30
30
30
30
30
30
30
30
ENDCHAR
STARTCHAR imacron
ENCODING 299
SWIDTH 262 0
DWIDTH 5 0
BBX 7 14 -1 0
BITMAP
FE
FE
00
38
38
38
38
38
38
38
38
38
38
38
ENDCHAR
STARTCHAR Ibreve
ENCODING 300
SWIDTH 282 0
DWIDTH 6 0
BBX 6 18 0 0
BITMAP
8C
CC
78
00
30
30
30
30
30
30
30
30
30
30
30
30
30
30
ENDCHAR
STARTCHAR ibreve
ENCODING 301
SWIDTH 262 0
DWIDTH 5 0
BBX 7 15 -1 0
BITMAP
C6
64
3C
00
38
38
38
38
38
38
38
38
38
38
38
ENDCHAR
STARTCHAR Iogonek
ENCODING 302
SWIDTH 282 0
DWIDTH 6 0
BBX 4 18 0 -4
BITMAP
30
30
30
30
30
30
30
30
30
30
30
30
30
30
60
C0
F0
70
ENDCHAR
STARTCHAR iogonek
ENCODING 303
SWIDTH 255 0
DWIDTH 5 0
BBX 4 20 0 -4
BITMAP
70
70
70
00
00
70
70
70
70
70
70
70
70
70
70
70
C0
C0
F0
70
ENDCHAR
STARTCHAR Idotaccent
ENCODING 304
SWIDTH 282 0
DWIDTH 6 0
BBX 3 17 1 0
BITMAP
60
E0
00
60
60
60
60
60
60
60
60
60
60
60
60
60
60
ENDCHAR
STARTCHAR dotlessi
ENCODING 305
SWIDTH 262 0
DWIDTH 5 0
BBX 3 11 1 0
BITMAP
E0
E0
E0
E0
E0
E0
E0
E0
E0
E0
E0
ENDCHAR
STARTCHAR IJ
ENCODING 306
SWIDTH 837 0
DWIDTH 17 0
BBX 13 14 2 0
BITMAP
C018
C018
C018
C018
C018
C018
C018
C018
C018
C018
CE18
CE38
C7F0
C3E0
ENDCHAR
STARTCHAR ij
ENCODING 307
SWIDTH 505 0
DWIDTH 10 0
BBX 8 20 1 -4
BITMAP
E3
E7
E3
00
00
E7
E7
E7
E7
E7
E7
E7
E7
E7
E7
E7
07
07
1E
1E
ENDCHAR
STARTCHAR Jcircumflex
ENCODING 308
SWIDTH 555 0
DWIDTH 11 0
BBX 12 18 0 0
BITMAP
01C0
03E0
0670
0000
01C0
01C0
01C0
01C0
01C0
01C0
01C0
01C0
01C0
01C0
E1C0
6380
7F80
1E00
ENDCHAR
STARTCHAR jcircumflex
ENCODING 309
SWIDTH 268 0
DWIDTH 5 0
BBX 7 19 -1 -4
BITMAP
38
7C
E6
00
38
38
38
38
38
38
38
38
38
38
38
38
38
F0
E0
ENDCHAR
STARTCHAR uni0136
ENCODING 310
SWIDTH 630 0
DWIDTH 13 0
BBX 12 18 1 -4
BITMAP
E0E0
E1C0
E380
E700
E700
EE00
FC00
FE00
F700
E380
E380
E1C0
E0E0
E0E0
0C10
0C00
0C00
0800
ENDCHAR
STARTCHAR uni0137
ENCODING 311
SWIDTH 521 0
DWIDTH 10 0
BBX 10 19 1 -4
BITMAP
E000
E000
E000
E000
E380
E700
EE00
FC00
F800
FC00
EC00
EE00
E700
E380
E380
1840
1800
1800
1000
ENDCHAR
STARTCHAR kgreenlandic
ENCODING 312
SWIDTH 574 0
DWIDTH 11 0
BBX 10 11 1 0
BITMAP
E3C0
E380
E700
EE00
FC00
FC00
EE00
E700
E700
E380
E1C0
ENDCHAR
STARTCHAR Lacute
ENCODING 313
SWIDTH 541 0
DWIDTH 11 0
BBX 9 18 1 0
BITMAP
3800
7000
E000
0000
E000
E000
E000
E000
E000
E000
E000
E000
E000
E000
E000
E000
FF80
FF80
ENDCHAR
STARTCHAR lacute
ENCODING 314
SWIDTH 255 0
DWIDTH 5 0
BBX 5 19 1 0
BITMAP
38
70
E0
00
E0
E0
E0
E0
E0
E0
E0
E0
E0
E0
E0
E0
E0
E0
E0
ENDCHAR
STARTCHAR uni013B
ENCODING 315
SWIDTH 541 0
DWIDTH 11 0
BBX 9 18 1 -4
BITMAP
E000
E000
E000
E000
E000
E000
E000
E000
E000
E000
E000
E000
FF80
FF80
0C00
0C00
0C00
1800
ENDCHAR
STARTCHAR uni013C
ENCODING 316
SWIDTH 255 0
DWIDTH 5 0
BBX 3 19 1 -4
BITMAP
E0
E0
E0
E0
E0
E0
E0
E0
E0
E0
E0
E0
E0
E0
E0
60
40
C0
C0
ENDCHAR
STARTCHAR Lcaron
ENCODING 317
SWIDTH 541 0
DWIDTH 11 0
BBX 9 14 1 0
BITMAP
E200
E600
E600
E400
E000
E000
E000
E000
E000
E000
E000
E000
FF80
FF80
ENDCHAR
STARTCHAR lcaron
ENCODING 318
SWIDTH 328 0
DWIDTH 7 0
BBX 6 15 1 0
BITMAP
EC
EC
EC
E8
E0
E0
E0
E0
E0
E0
E0
E0
E0
E0
E0
ENDCHAR
STARTCHAR Ldot
ENCODING 319
SWIDTH 541 0
DWIDTH 11 0
BBX 9 14 1 0
BITMAP
E000
E000
E000
E000
E000
E600
E600
E000
E000
E000
E000
E000
FF80
FF80
ENDCHAR
STARTCHAR ldot
ENCODING 320
SWIDTH 362 0
DWIDTH 7 0
BBX 6 15 1 0
BITMAP
E0
E0
E0
E0
E0
E0
E0
EC
EC
E0
E0
E0
E0
E0
E0
ENDCHAR
STARTCHAR Lslash
ENCODING 321
SWIDTH 548 0
DWIDTH 11 0
BBX 11 14 0 0
BITMAP
3000
3000
3000
3000
3000
3400
7C00
F800
B000
3000
3000
3000
3FE0
3FE0
ENDCHAR
STARTCHAR lslash
ENCODING 322
SWIDTH 288 0
DWIDTH 6 0
BBX 5 15 0 0
BITMAP
30
30
30
30
30
30
38
78
F0
B0
30
30
30
30
30
ENDCHAR
STARTCHAR Nacute
ENCODING 323
SWIDTH 709 0
DWIDTH 14 0
BBX 12 18 1 0
BITMAP
03C0
0300
0600
0000
E070
F070
F070
F870
FC70
EC70
EE70
E770
E370
E3F0
E1F0
E0F0
E0F0
E070
ENDCHAR
STARTCHAR nacute
ENCODING 324
SWIDTH 556 0
DWIDTH 11 0
BBX 9 15 1 0
BITMAP
0700
0E00
1C00
0000
CE00
FF00
E380
E380
E380
E380
E380
E380
E380
E380
E380
ENDCHAR
STARTCHAR uni0145
ENCODING 325
SWIDTH 709 0
DWIDTH 14 0
BBX 12 19 1 -5
BITMAP
E070
F070
F070
F870
FC70
EC70
EE70
E770
E370
E3F0
E1F0
E0F0
E0F0
E070
0000
0600
0600
0600
0C00
ENDCHAR
STARTCHAR uni0146
ENCODING 326
SWIDTH 556 0
DWIDTH 11 0
BBX 9 15 1 -4
BITMAP
CE00
FF00
E380
E380
E380
E380
E380
E380
E380
E380
E380
0C00
0800
1800
1800
ENDCHAR
STARTCHAR Ncaron
ENCODING 327
SWIDTH 709 0
DWIDTH 14 0
BBX 12 18 1 0
BITMAP
19C0
0F00
0600
0000
E070
F070
F070
F870
FC70
EC70
EE70
E770
E370
E3F0
E1F0
E0F0
E0F0
E070
ENDCHAR
STARTCHAR ncaron
ENCODING 328
SWIDTH 556 0
DWIDTH 11 0
BBX 9 15 1 0
BITMAP
7300
3600
1C00
0000
CE00
FF00
E380
E380
E380
E380
E380
E380
E380
E380
E380
ENDCHAR
STARTCHAR napostrophe
ENCODING 329
SWIDTH 556 0
DWIDTH 11 0
BBX 11 15 -1 0
BITMAP
6000
6000
4000
C000
3380
3FC0
38E0
38E0
38E0
38E0
38E0
38E0
38E0
38E0
38E0
ENDCHAR
STARTCHAR Eng
ENCODING 330
SWIDTH 696 0
DWIDTH 14 0
BBX 12 18 1 -4
BITMAP
E070
F070
F070
F870
FC70
EC70
EE70
E770
E370
E3F0
E1F0
E0F0
E0F0
E070
0070
0070
01E0
01C0
ENDCHAR
STARTCHAR eng
ENCODING 331
SWIDTH 566 0
DWIDTH 11 0
BBX 9 15 1 -4
BITMAP
CE00
DF00
E380
C380
C180
C180
C180
C180
C180
C180
C180
0180
0380
0F00
0E00
ENDCHAR
STARTCHAR Omacron
ENCODING 332
SWIDTH 690 0
DWIDTH 14 0
BBX 12 17 1 0
BITMAP
1F80
1F80
0000
0F00
3FC0
70E0
6060
E070
E070
E070
E070
E070
E070
6060
70E0
3FC0
0F00
ENDCHAR
STARTCHAR omacron
ENCODING 333
SWIDTH 569 0
DWIDTH 11 0
BBX 9 14 1 0
BITMAP
7F00
7F00
0000
3E00
7F00
E380
C180
C180
C180
C180
C180
E380
7F00
3E00
ENDCHAR
STARTCHAR Obreve
ENCODING 334
SWIDTH 690 0
DWIDTH 14 0
BBX 12 18 1 0
BITMAP
1980
1980
0F00
0000
0F00
3FC0
70E0
6060
E070
E070
E070
E070
E070
E070
6060
70E0
3FC0
0F00
ENDCHAR
STARTCHAR obreve
ENCODING 335
SWIDTH 569 0
DWIDTH 11 0
BBX 9 15 1 0
BITMAP
6300
3200
1E00
0000
3E00
7F00
E380
C180
C180
C180
C180
C180
E380
7F00
3E00
ENDCHAR
STARTCHAR Ohungarumlaut
ENCODING 336
SWIDTH 690 0
DWIDTH 14 0
BBX 12 18 1 0
BITMAP
06E0
0DC0
1B80
0000
0F00
3FC0
70E0
6060
E070
E070
E070
E070
E070
E070
6060
70E0
3FC0
0F00
ENDCHAR
STARTCHAR ohungarumlaut
ENCODING 337
SWIDTH 569 0
DWIDTH 11 0
BBX 10 15 1 0
BITMAP
1DC0
1B00
3600
0000
3E00
7F00
E380
C180
C180
C180
C180
C180
E380
7F00
3E00
ENDCHAR
STARTCHAR OE
ENCODING 338
SWIDTH 962 0
DWIDTH 19 0
BBX 17 14 1 0
BITMAP
1FFF80
7FFF80
70C000
E0C000
C0C000
C0C000
C0FF00
C0FF00
C0C000
C0C000
E0C000
70C000
7FFF80
1FFF80
ENDCHAR
STARTCHAR oe
ENCODING 339
SWIDTH 903 0
DWIDTH 18 0
BBX 16 11 1 0
BITMAP
3E3C
7F7E
E3E7
E1C3
C1FF
C1FF
C1C0
E1C0
E3E2
7F7F
3E3E
ENDCHAR
STARTCHAR Racute
ENCODING 340
SWIDTH 624 0
DWIDTH 12 0
BBX 11 18 1 0
BITMAP
0700
0E00
0C00
0000
FF00
FF80
E1C0
E0C0
E0C0
E0C0
E1C0
FF80
FF00
E300
E380
E1C0
E1C0
E0E0
ENDCHAR
STARTCHAR racute
ENCODING 341
SWIDTH 351 0
DWIDTH 7 0
BBX 6 15 1 0
BITMAP
1C
18
30
00
DC
FC
E0
E0
E0
E0
E0
E0
E0
E0
E0
ENDCHAR
STARTCHAR uni0156
ENCODING 342
SWIDTH 624 0
DWIDTH 12 0
BBX 11 18 1 -4
BITMAP
FF00
FF80
E1C0
E0C0
E0C0
E0C0
E1C0
FF80
FF00
E300
E380
E1C0
E1C0
E0E0
0C00
0C00
0C00
1800
ENDCHAR
STARTCHAR uni0157
ENCODING 343
SWIDTH 351 0
DWIDTH 7 0
BBX 6 15 1 -4
BITMAP
DC
FC
E0
E0
E0
E0
E0
E0
E0
E0
E0
40
C0
C0
80
ENDCHAR
STARTCHAR Rcaron
ENCODING 344
SWIDTH 624 0
DWIDTH 12 0
BBX 11 18 1 0
BITMAP
7300
1E00
0C00
0000
FF00
FF80
E1C0
E0C0
E0C0
E0C0
E1C0
FF80
FF00
E300
E380
E1C0
E1C0
E0E0
ENDCHAR
STARTCHAR rcaron
ENCODING 345
SWIDTH 351 0
DWIDTH 7 0
BBX 6 15 1 0
BITMAP
CC
78
30
00
DC
FC
E0
E0
E0
E0
E0
E0
E0
E0
E0
ENDCHAR
STARTCHAR Sacute
ENCODING 346
SWIDTH 603 0
DWIDTH 12 0
BBX 10 18 1 0
BITMAP
0380
0600
0C00
0000
3F00
7F80
E1C0
E0C0
E000
7000
3E00
1F80
03C0
00C0
C0C0
E1C0
7F80
1F00
ENDCHAR
STARTCHAR sacute
ENCODING 347
SWIDTH 516 0
DWIDTH 10 0
BBX 8 15 1 0
BITMAP
07
0C
1C
00
3C
FF
E7
C3
F0
7E
0F
C3
C3
FF
3C
ENDCHAR
STARTCHAR Scircumflex
ENCODING 348
SWIDTH 603 0
DWIDTH 12 0
BBX 10 18 1 0
BITMAP
0C00
1F00
3380
0000
3F00
7F80
E1C0
E0C0
E000
7000
3E00
1F80
03C0
00C0
C0C0
E1C0
7F80
1F00
ENDCHAR
STARTCHAR scircumflex
ENCODING 349
SWIDTH 516 0
DWIDTH 10 0
BBX 8 15 1 0
BITMAP
1C
3E
67
00
3C
FF
E7
C3
F0
7E
0F
C3
C3
FF
3C
ENDCHAR
STARTCHAR Scedilla
ENCODING 350
SWIDTH 603 0
DWIDTH 12 0
BBX 10 18 1 -4
BITMAP
3F00
7F80
E1C0
E0C0
E000
7000
3E00
1F80
03C0
00C0
C0C0
E1C0
7F80
1F00
0C00
0600
0600
0E00
ENDCHAR
STARTCHAR scedilla
ENCODING 351
SWIDTH 516 0
DWIDTH 10 0
BBX 8 15 1 -4
BITMAP
3C
FF
E7
C3
F0
7E
0F
C3
C3
FF
3C
18
0C
06
1C
ENDCHAR
STARTCHAR Scaron
ENCODING 352
SWIDTH 603 0
DWIDTH 12 0
BBX 10 18 1 0
BITMAP
3380
1E00
0C00
0000
3F00
7F80
E1C0
E0C0
E000
7000
3E00
1F80
03C0
00C0
C0C0
E1C0
7F80
1F00
ENDCHAR
STARTCHAR scaron
ENCODING 353
SWIDTH 516 0
DWIDTH 10 0
BBX 8 15 1 0
BITMAP
67
3C
1C
00
3C
FF
E7
C3
F0
7E
0F
C3
C3
FF
3C
ENDCHAR
STARTCHAR uni0162
ENCODING 354
SWIDTH 606 0
DWIDTH 12 0
BBX 12 18 0 -4
BITMAP
FFF0
FFF0
0600
0600
0600
0600
0600
0600
0600
0600
0600
0600
0600
0600
0600
0300
0300
0600
ENDCHAR
STARTCHAR uni0163
ENCODING 355
SWIDTH 332 0
DWIDTH 7 0
BBX 7 18 0 -4
BITMAP
30
30
30
FC
FC
30
30
30
30
30
30
38
3C
1C
18
0C
06
1C
ENDCHAR
STARTCHAR Tcaron
ENCODING 356
SWIDTH 606 0
DWIDTH 12 0
BBX 12 18 0 0
BITMAP
19C0
0F00
0600
0000
FFF0
FFF0
0600
0600
0600
0600
0600
0600
0600
0600
0600
0600
0600
0600
ENDCHAR
STARTCHAR tcaron
ENCODING 357
SWIDTH 352 0
DWIDTH 7 0
BBX 8 17 0 0
BITMAP
03
03
02
36
30
30
FC
FC
30
30
30
30
30
30
38
3C
1C
ENDCHAR
STARTCHAR Tbar
ENCODING 358
SWIDTH 606 0
DWIDTH 12 0
BBX 12 14 0 0
BITMAP
FFF0
FFF0
0600
0600
0600
1F80
1F80
0600
0600
0600
0600
0600
0600
0600
ENDCHAR
STARTCHAR tbar
ENCODING 359
SWIDTH 332 0
DWIDTH 7 0
BBX 7 14 0 0
BITMAP
30
30
30
FC
FC
30
FE
FE
30
30
30
38
3C
1C
ENDCHAR
STARTCHAR Utilde
ENCODING 360
SWIDTH 651 0
DWIDTH 13 0
BBX 11 18 1 0
BITMAP
1880
3F80
2300
0000
E0E0
E0E0
E0E0
E0E0
E0E0
E0E0
E0E0
E0E0
E0E0
E0E0
E0E0
71C0
7FC0
1F00
ENDCHAR
STARTCHAR utilde
ENCODING 361
SWIDTH 555 0
DWIDTH 11 0
BBX 9 15 1 0
BITMAP
3900
7F00
6600
0000
C380
C380
C380
C380
C380
C380
C380
E380
E380
7F80
3D80
ENDCHAR
STARTCHAR Umacron
ENCODING 362
SWIDTH 651 0
DWIDTH 13 0
BBX 11 17 1 0
BITMAP
3F80
3F80
0000
E0E0
E0E0
E0E0
E0E0
E0E0
E0E0
E0E0
E0E0
E0E0
E0E0
E0E0
71C0
7FC0
1F00
ENDCHAR
STARTCHAR umacron
ENCODING 363
SWIDTH 555 0
DWIDTH 11 0
BBX 9 14 1 0
BITMAP
7F00
7F00
0000
C380
C380
C380
C380
C380
C380
C380
E380
E380
7F80
3D80
ENDCHAR
STARTCHAR Ubreve
ENCODING 364
SWIDTH 651 0
DWIDTH 13 0
BBX 11 18 1 0
BITMAP
3180
1900
0E00
0000
E0E0
E0E0
E0E0
E0E0
E0E0
E0E0
E0E0
E0E0
E0E0
E0E0
E0E0
71C0
7FC0
1F00
ENDCHAR
STARTCHAR ubreve
ENCODING 365
SWIDTH 555 0
DWIDTH 11 0
BBX 9 15 1 0
BITMAP
6300
3200
1C00
0000
C380
C380
C380
C380
C380
C380
C380
E380
E380
7F80
3D80
ENDCHAR
STARTCHAR Uring
ENCODING 366
SWIDTH 651 0
DWIDTH 13 0
BBX 11 19 1 0
BITMAP
0E00
1B00
1B00
0E00
0000
E0E0
E0E0
E0E0
E0E0
E0E0
E0E0
E0E0
E0E0
E0E0
E0E0
E0E0
71C0
7FC0
1F00
ENDCHAR
STARTCHAR uring
ENCODING 367
SWIDTH 555 0
DWIDTH 11 0
BBX 9 16 1 0
BITMAP
1C00
3200
3200
1C00
0000
C380
C380
C380
C380
C380
C380
C380
E380
E380
7F80
3D80
ENDCHAR
STARTCHAR Uhungarumlaut
ENCODING 368
SWIDTH 651 0
DWIDTH 13 0
BBX 11 18 1 0
BITMAP
0EC0
1D80
1B00
0000
E0E0
E0E0
E0E0
E0E0
E0E0
E0E0
E0E0
E0E0
E0E0
E0E0
E0E0
71C0
7FC0
1F00
ENDCHAR
STARTCHAR uhungarumlaut
ENCODING 369
SWIDTH 555 0
DWIDTH 11 0
BBX 9 15 1 0
BITMAP
1D80
1B00
3600
0000
C380
C380
C380
C380
C380
C380
C380
E380
E380
7F80
3D80
ENDCHAR
STARTCHAR Uogonek
ENCODING 370
SWIDTH 651 0
DWIDTH 13 0
BBX 11 18 1 -4
BITMAP
E0E0
E0E0
E0E0
E0E0
E0E0
E0E0
E0E0
E0E0
E0E0
E0E0
E0E0
71C0
7FC0
1F00
0600
0600
0780
0380
ENDCHAR
STARTCHAR uogonek
ENCODING 371
SWIDTH 555 0
DWIDTH 11 0
BBX 9 15 1 -4
BITMAP
C380
C380
C380
C380
C380
C380
C380
E380
E380
7F80
3D80
0300
0600
0780
0380
ENDCHAR
STARTCHAR Wcircumflex
ENCODING 372
SWIDTH 879 0
DWIDTH 18 0
BBX 16 18 1 0
BITMAP
0180
03C0
0660
0000
C183
C183
E3C7
E3C7
63C6
6366
6666
766E
366C
363C
3C3C
3C3C
1C3C
1818
ENDCHAR
STARTCHAR wcircumflex
ENCODING 373
SWIDTH 743 0
DWIDTH 15 0
BBX 15 15 0 0
BITMAP
0380
07C0
0CE0
0000
E38E
638C
638C
639C
36D8
36D8
36D8
3C78
1C70
1C70
1830
ENDCHAR
STARTCHAR Ycircumflex
ENCODING 374
SWIDTH 609 0
DWIDTH 12 0
BBX 12 18 0 0
BITMAP
0600
0F00
1980
0000
E070
7060
70E0
38C0
39C0
1D80
0F80
0F00
0700
0600
0600
0600
0600
0600
ENDCHAR
STARTCHAR ycircumflex
ENCODING 375
SWIDTH 486 0
DWIDTH 10 0
BBX 10 19 0 -4
BITMAP
0C00
1E00
3300
0000
E1C0
6180
7380
7380
3300
3B00
1F00
1E00
1E00
0C00
0C00
0C00
1800
7800
7000
ENDCHAR
STARTCHAR Ydieresis
ENCODING 376
SWIDTH 609 0
DWIDTH 12 0
BBX 12 17 0 0
BITMAP
1980
19C0
0000
E070
7060
70E0
38C0
39C0
1D80
0F80
0F00
0700
0600
0600
0600
0600
0600
ENDCHAR
STARTCHAR Zacute
ENCODING 377
SWIDTH 602 0
DWIDTH 12 0
BBX 10 18 1 0
BITMAP
0700
0600
0C00
0000
FFC0
FFC0
0180
0380
0700
0600
0E00
1C00
1800
3800
7000
E000
FFC0
FFC0
ENDCHAR
STARTCHAR zacute
ENCODING 378
SWIDTH 502 0
DWIDTH 10 0
BBX 8 15 1 0
BITMAP
0E
0C
18
00
FF
FF
06
0E
1C
18
38
70
E0
FF
FF
ENDCHAR
STARTCHAR Zdotaccent
ENCODING 379
SWIDTH 602 0
DWIDTH 12 0
BBX 10 17 1 0
BITMAP
0C00
0C00
0000
FFC0
FFC0
0180
0380
0700
0600
0E00
1C00
1800
3800
7000
E000
FFC0
FFC0
ENDCHAR
STARTCHAR zdotaccent
ENCODING 380
SWIDTH 502 0
DWIDTH 10 0
BBX 8 14 1 0
BITMAP
18
18
00
FF
FF
06
0E
1C
18
38
70
E0
FF
FF
ENDCHAR
STARTCHAR Zcaron
ENCODING 381
SWIDTH 602 0
DWIDTH 12 0
BBX 10 18 1 0
BITMAP
3380
1E00
0C00
0000
FFC0
FFC0
0180
0380
0700
0600
0E00
1C00
1800
3800
7000
E000
FFC0
FFC0
ENDCHAR
STARTCHAR zcaron
ENCODING 382
SWIDTH 502 0
DWIDTH 10 0
BBX 8 15 1 0
BITMAP
67
3C
18
00
FF
FF
06
0E
1C
18
38
70
E0
FF
FF
ENDCHAR
STARTCHAR longs
ENCODING 383
SWIDTH 255 0
DWIDTH 5 0
BBX 5 15 1 0
BITMAP
38
78
E0
E0
E0
E0
E0
E0
E0
E0
E0
E0
E0
E0
E0
ENDCHAR
STARTCHAR uni018F
ENCODING 399
SWIDTH 691 0
DWIDTH 14 0
BBX 12 14 1 0
BITMAP
3F00
7FC0
40E0
0060
0070
0070
FFF0
FFF0
C070
C070
E060
70E0
3FC0
1F00
ENDCHAR
STARTCHAR florin
ENCODING 402
SWIDTH 351 0
DWIDTH 7 0
BBX 7 19 0 -4
BITMAP
1E
3E
38
30
FC
FC
30
30
30
30
30
30
30
30
30
30
30
F0
E0
ENDCHAR
STARTCHAR Ohorn
ENCODING 416
SWIDTH 692 0
DWIDTH 14 0
BBX 13 15 1 0
BITMAP
0018
1F18
3F98
70F0
6060
E060
C070
C070
C070
C070
E070
6060
70E0
3FC0
1F00
ENDCHAR
STARTCHAR ohorn
ENCODING 417
SWIDTH 577 0
DWIDTH 12 0
BBX 11 12 1 0
BITMAP
0060
1F60
7FC0
6380
E1C0
C1C0
C1C0
C1C0
E180
6380
7F00
1E00
ENDCHAR
STARTCHAR Uhorn
ENCODING 431
SWIDTH 705 0
DWIDTH 14 0
BBX 15 15 1 0
BITMAP
0006
E0E4
E0EC
E0F8
E0E0
E0E0
E0E0
E0E0
E0E0
E0E0
E0E0
E0E0
71C0
7FC0
1F00
ENDCHAR
STARTCHAR uhorn
ENCODING 432
SWIDTH 618 0
DWIDTH 12 0
BBX 12 12 1 0
BITMAP
0030
C3A0
C3E0
C380
C380
C380
C380
C380
C380
E380
7F80
7F80
ENDCHAR
STARTCHAR uni01F0
ENCODING 496
SWIDTH 268 0
DWIDTH 5 0
BBX 7 19 -1 -4
BITMAP
E6
3C
38
00
38
38
38
38
38
38
38
38
38
38
38
38
38
F0
E0
ENDCHAR
STARTCHAR Aringacute
ENCODING 506
SWIDTH 665 0
DWIDTH 13 0
BBX 13 20 0 0
BITMAP
01C0
0300
0700
0500
0580
0700
0700
0700
0780
0D80
0D80
1CC0
18C0
18E0
3860
3FE0
3FF0
7030
6038
E038
ENDCHAR
STARTCHAR aringacute
ENCODING 507
SWIDTH 541 0
DWIDTH 11 0
BBX 9 17 1 0
BITMAP
0700
0C00
1C00
1400
1400
1C00
3E00
7F00
E300
0380
3F80
7F80
E380
C380
E380
7F80
3B80
ENDCHAR
STARTCHAR AEacute
ENCODING 508
SWIDTH 939 0
DWIDTH 19 0
BBX 18 18 0 0
BITMAP
007800
006000
00C000
000000
00FFC0
01FFC0
01E000
03F000
077000
067000
0E7F80
0C7F80
1C7000
1FF000
3FF000
707000
703FC0
E03FC0
ENDCHAR
STARTCHAR aeacute
ENCODING 509
SWIDTH 844 0
DWIDTH 17 0
BBX 15 15 1 0
BITMAP
00E0
0180
0380
0000
3E78
7FFC
E386
4386
03FE
7FFE
FF80
C380
C3C2
FEFE
7C7C
ENDCHAR
STARTCHAR Oslashacute
ENCODING 510
SWIDTH 689 0
DWIDTH 14 0
BBX 12 20 1 -1
BITMAP
0380
0300
0600
0000
0000
0FB0
3FE0
70E0
60E0
E1F0
E370
E270
E670
E470
EC70
7860
70E0
3FC0
6F80
4000
ENDCHAR
STARTCHAR oslashacute
ENCODING 511
SWIDTH 566 0
DWIDTH 11 0
BBX 9 16 1 -1
BITMAP
0700
0C00
1800
0180
3F00
7F00
E780
C580
CD80
C980
D980
D180
F380
7F00
7E00
4000
ENDCHAR
STARTCHAR uni0218
ENCODING 536
SWIDTH 603 0
DWIDTH 12 0
BBX 10 19 1 -5
BITMAP
3F00
7F80
E1C0
E0C0
E000
7000
3E00
1F80
03C0
00C0
C0C0
E1C0
7F80
1F00
0000
0C00
0C00
0C00
0800
ENDCHAR
STARTCHAR uni0219
ENCODING 537
SWIDTH 516 0
DWIDTH 10 0
BBX 8 16 1 -5
BITMAP
3C
FF
E7
C3
F0
7E
0F
C3
C3
FF
3C
00
18
18
18
10
ENDCHAR
STARTCHAR uni021A
ENCODING 538
SWIDTH 606 0
DWIDTH 12 0
BBX 12 19 0 -5
BITMAP
FFF0
FFF0
0600
0600
0600
0600
0600
0600
0600
0600
0600
0600
0600
0600
0000
0600
0600
0600
0C00
ENDCHAR
STARTCHAR uni021B
ENCODING 539
SWIDTH 332 0
DWIDTH 7 0
BBX 6 19 0 -5
BITMAP
30
30
30
FC
FC
30
30
30
30
30
30
38
3C
1C
00
18
18
18
10
ENDCHAR
STARTCHAR uni0237
ENCODING 567
SWIDTH 268 0
DWIDTH 5 0
BBX 5 15 -1 -4
BITMAP
38
38
38
38
38
38
38
38
38
38
38
38
38
F0
E0
ENDCHAR
STARTCHAR uni0259
ENCODING 601
SWIDTH 529 0
DWIDTH 11 0
BBX 9 11 1 0
BITMAP
3E00
FF00
4380
0380
0180
FF80
FF80
C180
E300
7F00
3E00
ENDCHAR
STARTCHAR uni02BC
ENCODING 700
SWIDTH 216 0
DWIDTH 4 0
BBX 3 5 0 10
BITMAP
60
60
60
60
C0
ENDCHAR
STARTCHAR circumflex
ENCODING 710
SWIDTH 487 0
DWIDTH 10 0
BBX 7 3 1 12
BITMAP
18
7C
E6
ENDCHAR
STARTCHAR caron
ENCODING 711
SWIDTH 460 0
DWIDTH 9 0
BBX 7 3 1 12
BITMAP
E6
6C
38
ENDCHAR
STARTCHAR uni02C9
ENCODING 713
SWIDTH 482 0
DWIDTH 10 0
BBX 6 2 2 12
BITMAP
FC
FC
ENDCHAR
STARTCHAR breve
ENCODING 728
SWIDTH 435 0
DWIDTH 9 0
BBX 6 3 1 12
BITMAP
C4
CC
78
ENDCHAR
STARTCHAR dotaccent
ENCODING 729
SWIDTH 255 0
DWIDTH 5 0
BBX 3 2 1 12
BITMAP
E0
E0
ENDCHAR
STARTCHAR ring
ENCODING 730
SWIDTH 336 0
DWIDTH 7 0
BBX 5 4 1 11
BITMAP
70
90
98
70
ENDCHAR
STARTCHAR ogonek
ENCODING 731
SWIDTH 287 0
DWIDTH 6 0
BBX 3 5 1 -4
BITMAP
60
C0
80
E0
E0
ENDCHAR
STARTCHAR tilde
ENCODING 732
SWIDTH 480 0
DWIDTH 10 0
BBX 7 3 1 12
BITMAP
72
FE
CC
ENDCHAR
STARTCHAR hungarumlaut
ENCODING 733
SWIDTH 390 0
DWIDTH 8 0
BBX 7 3 1 12
BITMAP
76
EC
D8
ENDCHAR
STARTCHAR uni02F3
ENCODING 755
SWIDTH 302 0
DWIDTH 6 0
BBX 4 3 1 -4
BITMAP
60
90
60
ENDCHAR
STARTCHAR gravecomb
ENCODING 768
SWIDTH 0 0
DWIDTH 0 0
BBX 5 3 -9 12
BITMAP
E0
30
18
ENDCHAR
STARTCHAR acutecomb
ENCODING 769
SWIDTH 0 0
DWIDTH 0 0
BBX 5 3 -7 12
BITMAP
38
70
E0
ENDCHAR
STARTCHAR tildecomb
ENCODING 771
SWIDTH 0 0
DWIDTH 0 0
BBX 7 3 -9 12
BITMAP
72
FE
CC
ENDCHAR
STARTCHAR hookabovecomb
ENCODING 777
SWIDTH 0 0
DWIDTH 0 0
BBX 4 4 -7 12
BITMAP
E0
20
F0
C0
ENDCHAR
STARTCHAR uni030F
ENCODING 783
SWIDTH 0 0
DWIDTH 0 0
BBX 8 3 -10 12
BITMAP
EE
36
1B
ENDCHAR
STARTCHAR dotbelowcomb
ENCODING 803
SWIDTH 0 0
DWIDTH 0 0
BBX 2 2 -7 -3
BITMAP
C0
C0
ENDCHAR
STARTCHAR tonos
ENCODING 900
SWIDTH 295 0
DWIDTH 6 0
BBX 3 3 2 12
BITMAP
E0
C0
C0
ENDCHAR
STARTCHAR dieresistonos
ENCODING 901
SWIDTH 529 0
DWIDTH 11 0
BBX 8 5 1 12
BITMAP
0C
08
18
C3
C3
ENDCHAR
STARTCHAR Alphatonos
ENCODING 902
SWIDTH 665 0
DWIDTH 13 0
BBX 13 15 0 0
BITMAP
3000
2700
6700
0780
0D80
0D80
1CC0
18C0
18E0
3860
3FE0
3FF0
7030
6038
E038
ENDCHAR
STARTCHAR anoteleia
ENCODING 903
SWIDTH 282 0
DWIDTH 6 0
BBX 2 3 2 5
BITMAP
C0
C0
C0
ENDCHAR
STARTCHAR Epsilontonos
ENCODING 904
SWIDTH 565 0
DWIDTH 11 0
BBX 14 15 -3 0
BITMAP
6000
4FFC
CFFC
0E00
0E00
0E00
0E00
0FF8
0FF8
0E00
0E00
0E00
0E00
0FFC
0FFC
ENDCHAR
STARTCHAR Etatonos
ENCODING 905
SWIDTH 710 0
DWIDTH 14 0
BBX 16 15 -3 0
BITMAP
6000
4E07
CE07
0E07
0E07
0E07
0E07
0FFF
0FFF
0E07
0E07
0E07
0E07
0E07
0E07
ENDCHAR
STARTCHAR Iotatonos
ENCODING 906
SWIDTH 282 0
DWIDTH 6 0
BBX 7 15 -3 0
BITMAP
60
46
C6
06
06
06
06
06
06
06
06
06
06
06
06
ENDCHAR
STARTCHAR Omicrontonos
ENCODING 908
SWIDTH 700 0
DWIDTH 14 0
BBX 14 15 -1 0
BITMAP
6000
C3E0
CFF0
1C38
181C
181C
380C
380C
380C
380C
181C
1C1C
1C38
0FF0
03E0
ENDCHAR
STARTCHAR Upsilontonos
ENCODING 910
SWIDTH 658 0
DWIDTH 13 0
BBX 16 15 -3 0
BITMAP
6000
CE07
C706
070E
038C
039C
01D8
00F8
00F0
0060
0060
0060
0060
0060
0060
ENDCHAR
STARTCHAR Omegatonos
ENCODING 911
SWIDTH 679 0
DWIDTH 14 0
BBX 13 15 -1 0
BITMAP
6000
C7C0
CFE0
1C70
3838
3838
3818
3818
3818
3838
1838
1830
0C60
3EF8
3EF8
ENDCHAR
STARTCHAR iotadieresistonos
ENCODING 912
SWIDTH 333 0
DWIDTH 7 0
BBX 8 17 -1 0
BITMAP
0C
18
18
C3
C3
00
18
18
18
18
18
18
18
18
18
1E
0E
ENDCHAR
STARTCHAR Alpha
ENCODING 913
SWIDTH 665 0
DWIDTH 13 0
BBX 13 14 0 0
BITMAP
0700
0700
0780
0D80
0D80
1CC0
18C0
18E0
3860
3FE0
3FF0
7030
6038
E038
ENDCHAR
STARTCHAR Beta
ENCODING 914
SWIDTH 630 0
DWIDTH 13 0
BBX 10 14 2 0
BITMAP
FE00
FF80
C380
C180
C180
C380
FF00
FF80
C180
C1C0
C1C0
C1C0
FF80
FF00
ENDCHAR
STARTCHAR Gamma
ENCODING 915
SWIDTH 557 0
DWIDTH 11 0
BBX 9 14 2 0
BITMAP
FF80
FF80
C000
C000
C000
C000
C000
C000
C000
C000
C000
C000
C000
C000
ENDCHAR
STARTCHAR uni0394
ENCODING 916
SWIDTH 718 0
DWIDTH 14 0
BBX 14 14 0 0
BITMAP
0380
0780
0780
07C0
0EC0
0CE0
1C60
1860
1870
3830
3038
7018
7FF8
FFFC
ENDCHAR
STARTCHAR Epsilon
ENCODING 917
SWIDTH 565 0
DWIDTH 11 0
BBX 10 14 1 0
BITMAP
FFC0
FFC0
E000
E000
E000
E000
FF80
FF80
E000
E000
E000
E000
FFC0
FFC0
ENDCHAR
STARTCHAR Zeta
ENCODING 918
SWIDTH 602 0
DWIDTH 12 0
BBX 10 14 1 0
BITMAP
FFC0
FFC0
0180
0380
0700
0600
0E00
1C00
1800
3800
7000
E000
FFC0
FFC0
ENDCHAR
STARTCHAR Eta
ENCODING 919
SWIDTH 710 0
DWIDTH 14 0
BBX 12 14 1 0
BITMAP
E070
E070
E070
E070
E070
E070
FFF0
FFF0
E070
E070
E070
E070
E070
E070
ENDCHAR
STARTCHAR Theta
ENCODING 920
SWIDTH 684 0
DWIDTH 14 0
BBX 12 14 1 0
BITMAP
1F00
3FC0
70E0
6060
E070
E070
EF70
EF70
E070
E070
6060
70E0
3FC0
1F00
ENDCHAR
STARTCHAR Iota
ENCODING 921
SWIDTH 282 0
DWIDTH 6 0
BBX 2 14 2 0
BITMAP
C0
C0
C0
C0
C0
C0
C0
C0
C0
C0
C0
C0
C0
C0
ENDCHAR
STARTCHAR Kappa
ENCODING 922
SWIDTH 630 0
DWIDTH 13 0
BBX 12 14 1 0
BITMAP
E0E0
E1C0
E380
E700
E700
EE00
FC00
FE00
F700
E380
E380
E1C0
E0E0
E0F0
ENDCHAR
STARTCHAR Lambda
ENCODING 923
SWIDTH 652 0
DWIDTH 13 0
BBX 13 14 0 0
BITMAP
0700
0700
0F80
0F80
0D80
1DC0
19C0
18C0
38E0
3060
3060
7070
6030
E038
ENDCHAR
STARTCHAR Mu
ENCODING 924
SWIDTH 875 0
DWIDTH 18 0
BBX 15 14 1 0
BITMAP
F00E
F01E
F81E
F81E
F836
EC36
EC76
EE66
E666
E6C6
E7C6
E3C6
E386
E186
ENDCHAR
STARTCHAR Nu
ENCODING 925
SWIDTH 709 0
DWIDTH 14 0
BBX 12 14 1 0
BITMAP
E070
F070
F070
F870
FC70
EC70
EE70
E770
E370
E3F0
E1F0
E0F0
E0F0
E070
ENDCHAR
STARTCHAR Xi
ENCODING 926
SWIDTH 570 0
DWIDTH 11 0
BBX 9 14 1 0
BITMAP
FF80
FF80
0000
0000
0000
0000
7F00
7F00
0000
0000
0000
0000
FF80
FF80
ENDCHAR
STARTCHAR Omicron
ENCODING 927
SWIDTH 690 0
DWIDTH 14 0
BBX 12 14 1 0
BITMAP
0F00
3FC0
70E0
6060
E070
E070
E070
E070
E070
E070
6060
70E0
3FC0
0F00
ENDCHAR
STARTCHAR Pi
ENCODING 928
SWIDTH 711 0
DWIDTH 14 0
BBX 11 14 2 0
BITMAP
FFE0
FFE0
C0E0
C0E0
C0E0
C0E0
C0E0
C0E0
C0E0
C0E0
C0E0
C0E0
C0E0
C0E0
ENDCHAR
STARTCHAR Rho
ENCODING 929
SWIDTH 639 0
DWIDTH 13 0
BBX 10 14 2 0
BITMAP
FF00
FF80
C1C0
C0C0
C0C0
C0C0
C1C0
FF80
FF00
C000
C000
C000
C000
C000
ENDCHAR
STARTCHAR Sigma
ENCODING 931
SWIDTH 570 0
DWIDTH 11 0
BBX 10 14 1 0
BITMAP
FF80
FF80
6000
7000
3800
1C00
0C00
0E00
1C00
3800
7000
E000
FFC0
FFC0
ENDCHAR
STARTCHAR Tau
ENCODING 932
SWIDTH 606 0
DWIDTH 12 0
BBX 12 14 0 0
BITMAP
FFF0
FFF0
0600
0600
0600
0600
0600
0600
0600
0600
0600
0600
0600
0600
ENDCHAR
STARTCHAR Upsilon
ENCODING 933
SWIDTH 609 0
DWIDTH 12 0
BBX 12 14 0 0
BITMAP
E070
7060
70E0
38C0
39C0
1D80
0F80
0F00
0700
0600
0600
0600
0600
0600
ENDCHAR
STARTCHAR Phi
ENCODING 934
SWIDTH 741 0
DWIDTH 15 0
BBX 13 14 1 0
BITMAP
0700
0700
1FC0
7FF0
E738
E718
C718
C718
E718
E738
7FF0
1FC0
0700
0700
ENDCHAR
STARTCHAR Chi
ENCODING 935
SWIDTH 632 0
DWIDTH 13 0
BBX 12 14 0 0
BITMAP
F070
70E0
38E0
19C0
1D80
0F80
0700
0F00
0F80
1D80
19C0
38E0
7060
F070
ENDCHAR
STARTCHAR Psi
ENCODING 936
SWIDTH 708 0
DWIDTH 14 0
BBX 12 14 1 0
BITMAP
C630
C630
C630
C630
C630
C630
C670
E670
7FE0
1F80
0600
0600
0600
0600
ENDCHAR
STARTCHAR uni03A9
ENCODING 937
SWIDTH 669 0
DWIDTH 13 0
BBX 11 14 1 0
BITMAP
1F00
3F80
71C0
E0E0
E0E0
E0E0
E0E0
E0E0
E0E0
E0C0
60C0
3180
FBE0
FBE0
ENDCHAR
STARTCHAR Iotadieresis
ENCODING 938
SWIDTH 282 0
DWIDTH 6 0
BBX 7 17 -1 0
BITMAP
66
E6
00
18
18
18
18
18
18
18
18
18
18
18
18
18
18
ENDCHAR
STARTCHAR Upsilondieresis
ENCODING 939
SWIDTH 609 0
DWIDTH 12 0
BBX 12 17 0 0
BITMAP
1980
19C0
0000
E070
7060
70E0
38C0
39C0
1D80
0F80
0F00
0700
0600
0600
0600
0600
0600
ENDCHAR
STARTCHAR alphatonos
ENCODING 940
SWIDTH 564 0
DWIDTH 11 0
BBX 10 15 1 0
BITMAP
0600
0C00
0C00
0000
3D80
7F80
E380
C380
C380
C380
C380
C380
E380
7FC0
3DC0
ENDCHAR
STARTCHAR epsilontonos
ENCODING 941
SWIDTH 546 0
DWIDTH 11 0
BBX 9 15 1 0
BITMAP
0C00
0C00
0800
0000
3E00
7F00
E380
E000
7C00
7C00
E000
C180
E380
7F00
3E00
ENDCHAR
STARTCHAR etatonos
ENCODING 942
SWIDTH 566 0
DWIDTH 11 0
BBX 9 19 1 -4
BITMAP
0E00
0C00
0800
0000
DE00
FF00
E380
C380
C180
C180
C180
C180
C180
C180
C180
0180
0180
0180
0180
ENDCHAR
STARTCHAR iotatonos
ENCODING 943
SWIDTH 333 0
DWIDTH 7 0
BBX 4 15 2 0
BITMAP
60
C0
C0
00
C0
C0
C0
C0
C0
C0
C0
C0
C0
F0
70
ENDCHAR
STARTCHAR upsilondieresistonos
ENCODING 944
SWIDTH 546 0
DWIDTH 11 0
BBX 9 17 1 0
BITMAP
0C00
0C00
0800
E300
E380
0000
E300
E380
E380
E180
E180
E180
E180
E380
6300
7F00
3E00
ENDCHAR
STARTCHAR alpha
ENCODING 945
SWIDTH 564 0
DWIDTH 11 0
BBX 10 11 1 0
BITMAP
3D80
7F80
E380
C380
C380
C380
C380
C380
E380
7FC0
3DC0
ENDCHAR
STARTCHAR beta
ENCODING 946
SWIDTH 596 0
DWIDTH 12 0
BBX 10 18 1 -4
BITMAP
1E00
7F80
7380
6180
E180
E180
EF00
EF80
E1C0
E0C0
E0C0
E1C0
FF80
FF00
E000
E000
E000
E000
ENDCHAR
STARTCHAR gamma
ENCODING 947
SWIDTH 506 0
DWIDTH 10 0
BBX 10 15 0 -4
BITMAP
E1C0
6180
6180
7380
3300
3300
3F00
1E00
1E00
0E00
0C00
0C00
0C00
0C00
0C00
ENDCHAR
STARTCHAR delta
ENCODING 948
SWIDTH 566 0
DWIDTH 11 0
BBX 9 15 1 0
BITMAP
3E00
7E00
6200
7000
3C00
3F00
6380
C380
C180
C180
C180
C180
E380
7F00
3E00
ENDCHAR
STARTCHAR epsilon
ENCODING 949
SWIDTH 546 0
DWIDTH 11 0
BBX 9 11 1 0
BITMAP
3E00
7F00
E380
E000
7C00
7C00
E000
C180
E380
7F00
3E00
ENDCHAR
STARTCHAR zeta
ENCODING 950
SWIDTH 512 0
DWIDTH 10 0
BBX 8 18 1 -4
BITMAP
FF
FF
06
0E
1C
38
30
60
60
E0
E0
60
7C
3F
07
03
06
06
ENDCHAR
STARTCHAR eta
ENCODING 951
SWIDTH 566 0
DWIDTH 11 0
BBX 9 15 1 -4
BITMAP
DE00
FF00
E380
C380
C180
C180
C180
C180
C180
C180
C180
0180
0180
0180
0180
ENDCHAR
STARTCHAR theta
ENCODING 952
SWIDTH 578 0
DWIDTH 12 0
BBX 10 14 1 0
BITMAP
1E00
3F00
7380
6180
E1C0
E1C0
FFC0
FFC0
E1C0
E1C0
6180
7380
3F00
1E00
ENDCHAR
STARTCHAR iota
ENCODING 953
SWIDTH 333 0
DWIDTH 7 0
BBX 4 11 2 0
BITMAP
C0
C0
C0
C0
C0
C0
C0
C0
C0
F0
70
ENDCHAR
STARTCHAR kappa
ENCODING 954
SWIDTH 574 0
DWIDTH 11 0
BBX 10 11 1 0
BITMAP
E3C0
E380
E700
EE00
FC00
FC00
EE00
E700
E700
E380
E1C0
ENDCHAR
STARTCHAR lambda
ENCODING 955
SWIDTH 551 0
DWIDTH 11 0
BBX 11 15 0 0
BITMAP
7000
7800
1C00
1C00
0C00
0E00
1E00
1F00
1F00
3B00
3380
7180
71C0
61E0
E0E0
ENDCHAR
STARTCHAR uni03BC
ENCODING 956
SWIDTH 591 0
DWIDTH 12 0
BBX 8 15 2 -4
BITMAP
C3
C3
C3
C3
C3
C3
C3
C3
C7
FF
FF
C0
C0
C0
C0
ENDCHAR
STARTCHAR nu
ENCODING 957
SWIDTH 494 0
DWIDTH 10 0
BBX 10 11 0 0
BITMAP
E1C0
6180
6180
7380
3300
3300
3F00
1E00
1E00
1E00
0C00
ENDCHAR
STARTCHAR xi
ENCODING 958
SWIDTH 509 0
DWIDTH 10 0
BBX 8 18 1 -4
BITMAP
1F
7F
60
60
70
3E
3E
60
C0
C0
C0
E0
7E
1F
03
03
03
06
ENDCHAR
STARTCHAR omicron
ENCODING 959
SWIDTH 569 0
DWIDTH 11 0
BBX 9 11 1 0
BITMAP
3E00
7F00
E380
C180
C180
C180
C180
C180
E380
7F00
3E00
ENDCHAR
STARTCHAR pi
ENCODING 960
SWIDTH 618 0
DWIDTH 12 0
BBX 12 11 0 0
BITMAP
FFE0
FFE0
31C0
31C0
31C0
31C0
31C0
31C0
30C0
30F0
30F0
ENDCHAR
STARTCHAR rho
ENCODING 961
SWIDTH 566 0
DWIDTH 11 0
BBX 9 15 1 -4
BITMAP
1E00
7F00
6380
E180
E180
C180
C180
C180
E380
FF00
DE00
C000
C000
C000
C000
ENDCHAR
STARTCHAR sigma1
ENCODING 962
SWIDTH 526 0
DWIDTH 11 0
BBX 9 15 1 -4
BITMAP
1E00
7F00
6380
E180
C000
C000
C000
E000
7000
3E00
1F00
0300
0300
0700
0200
ENDCHAR
STARTCHAR sigma
ENCODING 963
SWIDTH 570 0
DWIDTH 11 0
BBX 10 11 1 0
BITMAP
3FC0
7FC0
E300
C180
C180
C180
C180
C180
E380
7F00
3E00
ENDCHAR
STARTCHAR tau
ENCODING 964
SWIDTH 521 0
DWIDTH 10 0
BBX 10 11 0 0
BITMAP
FFC0
FFC0
0C00
0C00
0C00
0C00
0C00
0C00
0C00
0F00
0700
ENDCHAR
STARTCHAR upsilon
ENCODING 965
SWIDTH 546 0
DWIDTH 11 0
BBX 9 11 1 0
BITMAP
E300
E380
E380
E180
E180
E180
E180
E380
6300
7F00
3E00
ENDCHAR
STARTCHAR phi
ENCODING 966
SWIDTH 726 0
DWIDTH 15 0
BBX 13 16 1 -5
BITMAP
23C0
77F0
E730
E738
C718
C718
C718
E738
7770
3FE0
1FC0
0700
0700
0700
0700
0700
ENDCHAR
STARTCHAR chi
ENCODING 967
SWIDTH 502 0
DWIDTH 10 0
BBX 11 15 0 -4
BITMAP
E1C0
F180
3980
1B00
1B00
0E00
0E00
0E00
0E00
1F00
1B00
3B80
3180
71E0
60C0
ENDCHAR
STARTCHAR psi
ENCODING 968
SWIDTH 723 0
DWIDTH 14 0
BBX 13 16 0 -5
BITMAP
E338
E338
E318
E318
E318
6318
6318
6338
7378
3FF0
0FC0
0300
0300
0300
0300
0300
ENDCHAR
STARTCHAR omega
ENCODING 969
SWIDTH 822 0
DWIDTH 16 0
BBX 14 11 1 0
BITMAP
7038
E01C
E01C
C30C
C30C
C30C
C30C
C30C
E79C
7FF8
3CF0
ENDCHAR
STARTCHAR iotadieresis
ENCODING 970
SWIDTH 333 0
DWIDTH 7 0
BBX 7 14 -1 0
BITMAP
66
E6
00
18
18
18
18
18
18
18
18
18
1E
0E
ENDCHAR
STARTCHAR upsilondieresis
ENCODING 971
SWIDTH 546 0
DWIDTH 11 0
BBX 9 14 1 0
BITMAP
6300
6700
0000
E300
E380
E380
E180
E180
E180
E180
E380
6300
7F00
3E00
ENDCHAR
STARTCHAR omicrontonos
ENCODING 972
SWIDTH 569 0
DWIDTH 11 0
BBX 9 15 1 0
BITMAP
0E00
0C00
0800
0000
3E00
7F00
E380
C180
C180
C180
C180
C180
E380
7F00
3E00
ENDCHAR
STARTCHAR upsilontonos
ENCODING 973
SWIDTH 546 0
DWIDTH 11 0
BBX 9 15 1 0
BITMAP
0C00
0C00
0800
0000
E300
E380
E380
E180
E180
E180
E180
E380
6300
7F00
3E00
ENDCHAR
STARTCHAR omegatonos
ENCODING 974
SWIDTH 822 0
DWIDTH 16 0
BBX 14 15 1 0
BITMAP
0180
0100
0300
0000
7038
E01C
E01C
C30C
C30C
C30C
C30C
C30C
E79C
7FF8
3CF0
ENDCHAR
STARTCHAR theta1
ENCODING 977
SWIDTH 587 0
DWIDTH 12 0
BBX 11 14 1 0
BITMAP
0F00
1F80
3980
3980
1980
1D80
0FE0
E7E0
E180
E180
E180
6380
7F00
1E00
ENDCHAR
STARTCHAR Upsilon1
ENCODING 978
SWIDTH 560 0
DWIDTH 11 0
BBX 11 14 0 0
BITMAP
E060
E0E0
71C0
3180
3B80
1B00
1B00
0E00
0E00
0E00
0E00
0E00
0E00
0E00
ENDCHAR
STARTCHAR omega1
ENCODING 982
SWIDTH 805 0
DWIDTH 16 0
BBX 16 11 0 0
BITMAP
FFFF
FFFF
700E
700E
6186
6186
6186
718E
73CE
3FFC
1E78
ENDCHAR
STARTCHAR uni0400
ENCODING 1024
SWIDTH 565 0
DWIDTH 11 0
BBX 10 18 1 0
BITMAP
3800
1C00
0C00
0000
FFC0
FFC0
E000
E000
E000
E000
FF80
FF80
E000
E000
E000
E000
FFC0
FFC0
ENDCHAR
STARTCHAR uni0401
ENCODING 1025
SWIDTH 565 0
DWIDTH 11 0
BBX 10 17 1 0
BITMAP
3300
3380
0000
FFC0
FFC0
E000
E000
E000
E000
FF80
FF80
E000
E000
E000
E000
FFC0
FFC0
ENDCHAR
STARTCHAR uni0402
ENCODING 1026
SWIDTH 749 0
DWIDTH 15 0
BBX 14 14 0 0
BITMAP
FFE0
FFE0
0E00
0E00
0E00
0FF0
0FF8
0E1C
0E0C
0E0C
0E0C
0E1C
0E78
0E70
ENDCHAR
STARTCHAR uni0403
ENCODING 1027
SWIDTH 557 0
DWIDTH 11 0
BBX 9 18 2 0
BITMAP
0E00
0C00
1800
0000
FF80
FF80
C000
C000
C000
C000
C000
C000
C000
C000
C000
C000
C000
C000
ENDCHAR
STARTCHAR uni0404
ENCODING 1028
SWIDTH 668 0
DWIDTH 13 0
BBX 11 14 1 0
BITMAP
1F00
3FC0
70C0
E0E0
E060
C000
FE00
FE00
C000
C060
E0E0
70C0
3FC0
1F00
ENDCHAR
STARTCHAR uni0405
ENCODING 1029
SWIDTH 603 0
DWIDTH 12 0
BBX 10 14 1 0
BITMAP
3F00
7F80
E1C0
E0C0
E000
7000
3E00
1F80
03C0
00C0
C0C0
E1C0
7F80
1F00
ENDCHAR
STARTCHAR uni0406
ENCODING 1030
SWIDTH 282 0
DWIDTH 6 0
BBX 2 14 2 0
BITMAP
C0
C0
C0
C0
C0
C0
C0
C0
C0
C0
C0
C0
C0
C0
ENDCHAR
STARTCHAR uni0407
ENCODING 1031
SWIDTH 282 0
DWIDTH 6 0
BBX 7 17 -1 0
BITMAP
66
E6
00
18
18
18
18
18
18
18
18
18
18
18
18
18
18
ENDCHAR
STARTCHAR uni0408
ENCODING 1032
SWIDTH 555 0
DWIDTH 11 0
BBX 10 14 0 0
BITMAP
01C0
01C0
01C0
01C0
01C0
01C0
01C0
01C0
01C0
01C0
E1C0
6380
7F80
1E00
ENDCHAR
STARTCHAR uni0409
ENCODING 1033
SWIDTH 1066 0
DWIDTH 21 0
BBX 20 14 0 0
BITMAP
1FF000
1FF000
1C3000
1C3000
1C3000
183FC0
183FE0
183070
183030
183030
183030
383070
F03FE0
E03FC0
ENDCHAR
STARTCHAR uni040A
ENCODING 1034
SWIDTH 1069 0
DWIDTH 21 0
BBX 20 14 1 0
BITMAP
E07000
E07000
E07000
E07000
E07000
E07F80
FFFFC0
FFF0E0
E07060
E07070
E07060
E070E0
E07FC0
E07F80
ENDCHAR
STARTCHAR uni040B
ENCODING 1035
SWIDTH 794 0
DWIDTH 16 0
BBX 14 14 0 0
BITMAP
FFE0
FFE0
0E00
0E00
0E00
0FF0
0FFC
0E1C
0E0C
0E0C
0E0C
0E0C
0E0C
0E0C
ENDCHAR
STARTCHAR uni040C
ENCODING 1036
SWIDTH 630 0
DWIDTH 13 0
BBX 12 18 1 0
BITMAP
0700
0E00
0C00
0000
E0E0
E1C0
E380
E700
E700
EE00
FC00
FE00
F700
E380
E380
E1C0
E0E0
E0F0
ENDCHAR
STARTCHAR uni040D
ENCODING 1037
SWIDTH 707 0
DWIDTH 14 0
BBX 12 18 1 0
BITMAP
1C00
0E00
0600
0000
E070
E0F0
E0F0
E1F0
E3F0
E370
E770
EE70
EC70
FC70
F870
F070
F070
E070
ENDCHAR
STARTCHAR uni040E
ENCODING 1038
SWIDTH 629 0
DWIDTH 13 0
BBX 11 18 1 0
BITMAP
3180
1300
0E00
0000
E0E0
E0E0
70C0
71C0
3980
3B80
1B80
1F00
0F00
0E00
0E00
0C00
3C00
3800
ENDCHAR
STARTCHAR uni040F
ENCODING 1039
SWIDTH 708 0
DWIDTH 14 0
BBX 12 18 1 -4
BITMAP
E070
E070
E070
E070
E070
E070
E070
E070
E070
E070
E070
E070
FFF0
FFF0
0600
0600
0600
0600
ENDCHAR
STARTCHAR uni0410
ENCODING 1040
SWIDTH 665 0
DWIDTH 13 0
BBX 13 14 0 0
BITMAP
0700
0700
0780
0D80
0D80
1CC0
18C0
18E0
3860
3FE0
3FF0
7030
6038
E038
ENDCHAR
STARTCHAR uni0411
ENCODING 1041
SWIDTH 628 0
DWIDTH 13 0
BBX 10 14 2 0
BITMAP
FF80
FF80
C000
C000
C000
FF00
FF80
C1C0
C1C0
C0C0
C1C0
C1C0
FF80
FF00
ENDCHAR
STARTCHAR uni0412
ENCODING 1042
SWIDTH 630 0
DWIDTH 13 0
BBX 10 14 2 0
BITMAP
FE00
FF80
C380
C180
C180
C380
FF00
FF80
C180
C1C0
C1C0
C1C0
FF80
FF00
ENDCHAR
STARTCHAR uni0413
ENCODING 1043
SWIDTH 557 0
DWIDTH 11 0
BBX 9 14 2 0
BITMAP
FF80
FF80
C000
C000
C000
C000
C000
C000
C000
C000
C000
C000
C000
C000
ENDCHAR
STARTCHAR uni0414
ENCODING 1044
SWIDTH 752 0
DWIDTH 15 0
BBX 15 18 0 -4
BITMAP
0FF8
0FF8
0C38
0C38
0C38
0C38
1C38
1C38
1C38
1838
3838
3838
FFFE
FFFE
E00E
E00E
E00E
E00C
ENDCHAR
STARTCHAR uni0415
ENCODING 1045
SWIDTH 565 0
DWIDTH 11 0
BBX 10 14 1 0
BITMAP
FFC0
FFC0
E000
E000
E000
E000
FF80
FF80
E000
E000
E000
E000
FFC0
FFC0
ENDCHAR
STARTCHAR uni0416
ENCODING 1046
SWIDTH 954 0
DWIDTH 19 0
BBX 19 14 0 0
BITMAP
70E1E0
70E1C0
38E380
18E300
1CE700
0EE600
07FE00
0FFE00
0CE700
1CE700
38E380
38E180
70E1C0
F0E0E0
ENDCHAR
STARTCHAR uni0417
ENCODING 1047
SWIDTH 604 0
DWIDTH 12 0
BBX 10 14 1 0
BITMAP
3F00
7F80
E1C0
C1C0
01C0
01C0
1F80
1F80
01C0
00C0
C0C0
E1C0
7F80
3F00
ENDCHAR
STARTCHAR uni0418
ENCODING 1048
SWIDTH 707 0
DWIDTH 14 0
BBX 12 14 1 0
BITMAP
E070
E0F0
E0F0
E1F0
E3F0
E370
E770
EE70
EC70
FC70
F870
F070
F070
E070
ENDCHAR
STARTCHAR uni0419
ENCODING 1049
SWIDTH 707 0
DWIDTH 14 0
BBX 12 18 1 0
BITMAP
1980
1980
0F00
0000
E070
E0F0
E0F0
E1F0
E3F0
E370
E770
EE70
EC70
FC70
F870
F070
F070
E070
ENDCHAR
STARTCHAR uni041A
ENCODING 1050
SWIDTH 644 0
DWIDTH 13 0
BBX 11 14 2 0
BITMAP
C1E0
C380
C380
C700
CE00
CE00
FC00
FC00
CE00
C700
C700
C380
C1C0
C0E0
ENDCHAR
STARTCHAR uni041B
ENCODING 1051
SWIDTH 707 0
DWIDTH 14 0
BBX 13 14 0 0
BITMAP
1FF8
1FF8
1C38
1C38
1C38
1C38
1C38
1838
1838
1838
1838
3838
F038
E038
ENDCHAR
STARTCHAR uni041C
ENCODING 1052
SWIDTH 875 0
DWIDTH 18 0
BBX 15 14 1 0
BITMAP
F00E
F01E
F81E
F81E
F836
EC36
EC76
EE66
E666
E6C6
E7C6
E3C6
E386
E186
ENDCHAR
STARTCHAR uni041D
ENCODING 1053
SWIDTH 710 0
DWIDTH 14 0
BBX 12 14 1 0
BITMAP
E070
E070
E070
E070
E070
E070
FFF0
FFF0
E070
E070
E070
E070
E070
E070
ENDCHAR
STARTCHAR uni041E
ENCODING 1054
SWIDTH 690 0
DWIDTH 14 0
BBX 12 14 1 0
BITMAP
0F00
3FC0
70E0
6060
E070
E070
E070
E070
E070
E070
6060
70E0
3FC0
0F00
ENDCHAR
STARTCHAR uni041F
ENCODING 1055
SWIDTH 711 0
DWIDTH 14 0
BBX 11 14 2 0
BITMAP
FFE0
FFE0
C0E0
C0E0
C0E0
C0E0
C0E0
C0E0
C0E0
C0E0
C0E0
C0E0
C0E0
C0E0
ENDCHAR
STARTCHAR uni0420
ENCODING 1056
SWIDTH 639 0
DWIDTH 13 0
BBX 10 14 2 0
BITMAP
FF00
FF80
C1C0
C0C0
C0C0
C0C0
C1C0
FF80
FF00
C000
C000
C000
C000
C000
ENDCHAR
STARTCHAR uni0421
ENCODING 1057
SWIDTH 652 0
DWIDTH 13 0
BBX 11 14 1 0
BITMAP
1F00
3FC0
70E0
E0E0
E060
C000
C000
C000
C000
E060
E0E0
70E0
3FC0
1F00
ENDCHAR
STARTCHAR uni0422
ENCODING 1058
SWIDTH 606 0
DWIDTH 12 0
BBX 12 14 0 0
BITMAP
FFF0
FFF0
0600
0600
0600
0600
0600
0600
0600
0600
0600
0600
0600
0600
ENDCHAR
STARTCHAR uni0423
ENCODING 1059
SWIDTH 629 0
DWIDTH 13 0
BBX 11 14 1 0
BITMAP
E0E0
E0E0
70C0
71C0
3980
3B80
1B80
1F00
0F00
0E00
0E00
0C00
3C00
3800
ENDCHAR
STARTCHAR uni0424
ENCODING 1060
SWIDTH 796 0
DWIDTH 16 0
BBX 14 16 1 -1
BITMAP
0300
0300
1FE0
3FF0
7338
E31C
C30C
C30C
C30C
C30C
E31C
7338
3FF0
1FE0
0300
0300
ENDCHAR
STARTCHAR uni0425
ENCODING 1061
SWIDTH 632 0
DWIDTH 13 0
BBX 12 14 0 0
BITMAP
F070
70E0
38E0
19C0
1D80
0F80
0700
0F00
0F80
1D80
19C0
38E0
7060
F070
ENDCHAR
STARTCHAR uni0426
ENCODING 1062
SWIDTH 746 0
DWIDTH 15 0
BBX 13 17 1 -3
BITMAP
E070
E070
E070
E070
E070
E070
E070
E070
E070
E070
E070
E070
FFF8
FFF8
0018
0018
0018
ENDCHAR
STARTCHAR uni0427
ENCODING 1063
SWIDTH 691 0
DWIDTH 14 0
BBX 11 14 1 0
BITMAP
E060
E060
E060
E060
E060
E060
7060
7FE0
1FE0
0060
0060
0060
0060
0060
ENDCHAR
STARTCHAR uni0428
ENCODING 1064
SWIDTH 950 0
DWIDTH 19 0
BBX 17 14 1 0
BITMAP
E1C380
E1C380
E1C380
E1C380
E1C380
E1C380
E1C380
E1C380
E1C380
E1C380
E1C380
E1C380
FFFF80
FFFF80
ENDCHAR
STARTCHAR uni0429
ENCODING 1065
SWIDTH 996 0
DWIDTH 20 0
BBX 18 17 1 -3
BITMAP
E1C380
E1C380
E1C380
E1C380
E1C380
E1C380
E1C380
E1C380
E1C380
E1C380
E1C380
E1C380
FFFFC0
FFFFC0
0000C0
0000C0
0000C0
ENDCHAR
STARTCHAR uni042A
ENCODING 1066
SWIDTH 762 0
DWIDTH 15 0
BBX 14 14 0 0
BITMAP
FC00
FC00
0C00
0C00
0C00
0FF0
0FF8
0C1C
0C0C
0C0C
0C0C
0C1C
0FF8
0FF0
ENDCHAR
STARTCHAR uni042B
ENCODING 1067
SWIDTH 871 0
DWIDTH 17 0
BBX 15 14 1 0
BITMAP
E00E
E00E
E00E
E00E
E00E
FF0E
FFCE
E1CE
E0EE
E0EE
E0EE
E1CE
FFCE
FF0E
ENDCHAR
STARTCHAR uni042C
ENCODING 1068
SWIDTH 628 0
DWIDTH 13 0
BBX 10 14 2 0
BITMAP
C000
C000
C000
C000
C000
FF00
FF80
C1C0
C0C0
C0C0
C1C0
C1C0
FF80
FF00
ENDCHAR
STARTCHAR uni042D
ENCODING 1069
SWIDTH 664 0
DWIDTH 13 0
BBX 11 14 1 0
BITMAP
1F00
7F80
61C0
E0E0
C060
0060
0FE0
0FE0
0060
C060
E0E0
61C0
7F80
1F00
ENDCHAR
STARTCHAR uni042E
ENCODING 1070
SWIDTH 916 0
DWIDTH 18 0
BBX 16 14 1 0
BITMAP
E0F8
E3FE
E38E
E707
E603
E603
FE03
FE03
E603
E603
E707
E38E
E1FE
E0F8
ENDCHAR
STARTCHAR uni042F
ENCODING 1071
SWIDTH 620 0
DWIDTH 12 0
BBX 11 14 0 0
BITMAP
1FE0
3FE0
70E0
60E0
60E0
60E0
70E0
3FE0
1FE0
18E0
38E0
70E0
70E0
E0E0
ENDCHAR
STARTCHAR uni0430
ENCODING 1072
SWIDTH 541 0
DWIDTH 11 0
BBX 9 11 1 0
BITMAP
3E00
7F00
E300
0380
3F80
7F80
E380
C380
E380
7F80
3B80
ENDCHAR
STARTCHAR uni0431
ENCODING 1073
SWIDTH 561 0
DWIDTH 11 0
BBX 9 15 1 0
BITMAP
0180
0F00
3E00
7000
6000
DE00
FF00
E380
C180
C180
C180
C180
E380
7F00
3E00
ENDCHAR
STARTCHAR uni0432
ENCODING 1074
SWIDTH 569 0
DWIDTH 11 0
BBX 9 11 1 0
BITMAP
FE00
FF80
E380
E380
FF00
FF00
E180
E180
E180
FF80
FF00
ENDCHAR
STARTCHAR uni0433
ENCODING 1075
SWIDTH 418 0
DWIDTH 8 0
BBX 7 11 1 0
BITMAP
FE
FE
E0
E0
E0
E0
E0
E0
E0
E0
E0
ENDCHAR
STARTCHAR uni0434
ENCODING 1076
SWIDTH 620 0
DWIDTH 12 0
BBX 12 14 0 -3
BITMAP
1FC0
1FC0
18C0
18C0
18C0
18C0
38C0
38C0
70C0
FFF0
FFF0
E070
E070
E070
ENDCHAR
STARTCHAR uni0435
ENCODING 1077
SWIDTH 536 0
DWIDTH 11 0
BBX 9 11 1 0
BITMAP
1E00
7F00
6380
C180
FF80
FF80
C000
E000
7180
7F80
1E00
ENDCHAR
STARTCHAR uni0436
ENCODING 1078
SWIDTH 807 0
DWIDTH 16 0
BBX 16 11 0 0
BITMAP
F18F
318E
399C
1998
0FF8
1FF8
1998
399C
318C
718E
E187
ENDCHAR
STARTCHAR uni0437
ENCODING 1079
SWIDTH 510 0
DWIDTH 10 0
BBX 8 11 1 0
BITMAP
3E
FF
C3
03
3E
3E
03
C3
E3
FF
3C
ENDCHAR
STARTCHAR uni0438
ENCODING 1080
SWIDTH 574 0
DWIDTH 11 0
BBX 9 11 1 0
BITMAP
E180
E380
E780
E780
ED80
ED80
F980
F980
F180
F180
E180
ENDCHAR
STARTCHAR uni0439
ENCODING 1081
SWIDTH 574 0
DWIDTH 11 0
BBX 9 15 1 0
BITMAP
2300
3300
1E00
0000
E180
E380
E780
E780
ED80
ED80
F980
F980
F180
F180
E180
ENDCHAR
STARTCHAR uni043A
ENCODING 1082
SWIDTH 553 0
DWIDTH 11 0
BBX 10 11 1 0
BITMAP
E3C0
E300
E700
EE00
FC00
FC00
EE00
E700
E700
E380
E1C0
ENDCHAR
STARTCHAR uni043B
ENCODING 1083
SWIDTH 575 0
DWIDTH 12 0
BBX 9 11 1 0
BITMAP
3F80
3F80
3180
3180
3180
3180
7180
7180
6180
E180
C180
ENDCHAR
STARTCHAR uni043C
ENCODING 1084
SWIDTH 751 0
DWIDTH 15 0
BBX 13 11 1 0
BITMAP
F078
F078
F078
F8F8
F8F8
FDF8
EDB8
EDB8
E738
E738
E638
ENDCHAR
STARTCHAR uni043D
ENCODING 1085
SWIDTH 573 0
DWIDTH 11 0
BBX 9 11 1 0
BITMAP
E180
E180
E180
E180
FF80
FF80
E180
E180
E180
E180
E180
ENDCHAR
STARTCHAR uni043E
ENCODING 1086
SWIDTH 569 0
DWIDTH 11 0
BBX 9 11 1 0
BITMAP
3E00
7F00
E380
C180
C180
C180
C180
C180
E380
7F00
3E00
ENDCHAR
STARTCHAR uni043F
ENCODING 1087
SWIDTH 574 0
DWIDTH 11 0
BBX 9 11 1 0
BITMAP
FF80
FF80
E180
E180
E180
E180
E180
E180
E180
E180
E180
ENDCHAR
STARTCHAR uni0440
ENCODING 1088
SWIDTH 562 0
DWIDTH 11 0
BBX 9 15 1 -4
BITMAP
DE00
FF00
E380
C180
C180
C180
C180
C180
E380
FF00
DE00
C000
C000
C000
C000
ENDCHAR
STARTCHAR uni0441
ENCODING 1089
SWIDTH 523 0
DWIDTH 10 0
BBX 9 11 1 0
BITMAP
3E00
7F00
E300
C380
C000
C000
C000
C380
E300
7F00
3C00
ENDCHAR
STARTCHAR uni0442
ENCODING 1090
SWIDTH 494 0
DWIDTH 10 0
BBX 10 11 0 0
BITMAP
FFC0
FFC0
0C00
0C00
0C00
0C00
0C00
0C00
0C00
0C00
0C00
ENDCHAR
STARTCHAR uni0443
ENCODING 1091
SWIDTH 486 0
DWIDTH 10 0
BBX 10 15 0 -4
BITMAP
E1C0
6180
7380
7380
3300
3B00
1F00
1E00
1E00
0C00
0C00
0C00
1800
7800
7000
ENDCHAR
STARTCHAR uni0444
ENCODING 1092
SWIDTH 728 0
DWIDTH 15 0
BBX 13 19 1 -4
BITMAP
0700
0700
0700
0700
3FE0
7FF0
6730
E738
E718
C718
C718
E738
6738
7FF0
3FE0
0700
0700
0700
0700
ENDCHAR
STARTCHAR uni0445
ENCODING 1093
SWIDTH 502 0
DWIDTH 10 0
BBX 10 11 0 0
BITMAP
E1C0
7380
3300
3F00
1E00
0C00
1E00
3F00
3300
7380
E1C0
ENDCHAR
STARTCHAR uni0446
ENCODING 1094
SWIDTH 603 0
DWIDTH 12 0
BBX 11 14 1 -3
BITMAP
E180
E180
E180
E180
E180
E180
E180
E180
E180
FFE0
FFE0
00E0
00C0
00C0
ENDCHAR
STARTCHAR uni0447
ENCODING 1095
SWIDTH 549 0
DWIDTH 11 0
BBX 9 11 1 0
BITMAP
C380
C380
C380
C380
E380
7F80
3F80
0380
0380
0380
0380
ENDCHAR
STARTCHAR uni0448
ENCODING 1096
SWIDTH 819 0
DWIDTH 16 0
BBX 14 11 1 0
BITMAP
E30C
E30C
E30C
E30C
E30C
E30C
E30C
E30C
E30C
FFFC
FFFC
ENDCHAR
STARTCHAR uni0449
ENCODING 1097
SWIDTH 865 0
DWIDTH 17 0
BBX 16 14 1 -3
BITMAP
E30C
E30C
E30C
E30C
E30C
E30C
E30C
E30C
E30C
FFFF
FFFF
0007
0007
0007
ENDCHAR
STARTCHAR uni044A
ENCODING 1098
SWIDTH 636 0
DWIDTH 13 0
BBX 12 11 0 0
BITMAP
FC00
FC00
1C00
1FC0
1FF0
1C70
1C30
1C30
1C30
1FF0
1FC0
ENDCHAR
STARTCHAR uni044B
ENCODING 1099
SWIDTH 804 0
DWIDTH 16 0
BBX 13 11 1 0
BITMAP
E018
E018
E018
FE18
FF98
E398
E198
E198
E398
FF18
FE18
ENDCHAR
STARTCHAR uni044C
ENCODING 1100
SWIDTH 550 0
DWIDTH 11 0
BBX 9 11 1 0
BITMAP
E000
E000
E000
FE00
FF80
E380
E180
E180
E380
FF80
FE00
ENDCHAR
STARTCHAR uni044D
ENCODING 1101
SWIDTH 529 0
DWIDTH 11 0
BBX 9 11 1 0
BITMAP
3C00
7F00
E300
0380
1F80
1F80
0180
C380
E300
7F00
3C00
ENDCHAR
STARTCHAR uni044E
ENCODING 1102
SWIDTH 814 0
DWIDTH 16 0
BBX 14 11 1 0
BITMAP
E1F0
E3F8
E71C
E60C
FE0C
FE0C
E60C
E60C
E71C
E3F8
E1F0
ENDCHAR
STARTCHAR uni044F
ENCODING 1103
SWIDTH 554 0
DWIDTH 11 0
BBX 10 11 0 0
BITMAP
1FC0
7FC0
71C0
61C0
71C0
7FC0
1FC0
39C0
31C0
71C0
E1C0
ENDCHAR
STARTCHAR uni0450
ENCODING 1104
SWIDTH 536 0
DWIDTH 11 0
BBX 9 15 1 0
BITMAP
7000
3800
1C00
0000
1E00
7F00
6380
C180
FF80
FF80
C000
E000
7180
7F80
1E00
ENDCHAR
STARTCHAR uni0451
ENCODING 1105
SWIDTH 536 0
DWIDTH 11 0
BBX 9 14 1 0
BITMAP
6300
6700
0000
1E00
7F00
6380
C180
FF80
FF80
C000
E000
7180
7F80
1E00
ENDCHAR
STARTCHAR uni0452
ENCODING 1106
SWIDTH 555 0
DWIDTH 11 0
BBX 10 20 0 -4
BITMAP
7000
7000
FC00
FC00
7000
7700
7F80
71C0
71C0
71C0
71C0
71C0
71C0
71C0
71C0
71C0
01C0
01C0
0780
0700
ENDCHAR
STARTCHAR uni0453
ENCODING 1107
SWIDTH 418 0
DWIDTH 8 0
BBX 7 15 1 0
BITMAP
0E
18
30
00
FE
FE
E0
E0
E0
E0
E0
E0
E0
E0
E0
ENDCHAR
STARTCHAR uni0454
ENCODING 1108
SWIDTH 529 0
DWIDTH 11 0
BBX 9 11 1 0
BITMAP
1E00
7F00
6380
E000
FC00
FC00
C000
E180
6380
7F00
1E00
ENDCHAR
STARTCHAR uni0455
ENCODING 1109
SWIDTH 516 0
DWIDTH 10 0
BBX 8 11 1 0
BITMAP
3C
FF
E7
C3
F0
7E
0F
C3
C3
FF
3C
ENDCHAR
STARTCHAR uni0456
ENCODING 1110
SWIDTH 255 0
DWIDTH 5 0
BBX 3 16 1 0
BITMAP
E0
E0
E0
00
00
E0
E0
E0
E0
E0
E0
E0
E0
E0
E0
E0
ENDCHAR
STARTCHAR uni0457
ENCODING 1111
SWIDTH 262 0
DWIDTH 5 0
BBX 7 14 -1 0
BITMAP
C6
E6
00
38
38
38
38
38
38
38
38
38
38
38
ENDCHAR
STARTCHAR uni0458
ENCODING 1112
SWIDTH 250 0
DWIDTH 5 0
BBX 5 20 -1 -4
BITMAP
30
38
38
00
00
38
38
38
38
38
38
38
38
38
38
38
38
38
F0
E0
ENDCHAR
STARTCHAR uni0459
ENCODING 1113
SWIDTH 852 0
DWIDTH 17 0
BBX 16 11 0 0
BITMAP
1FC0
3FC0
38C0
38C0
38FE
38FF
38C3
30C3
30C3
F0FF
E0FE
ENDCHAR
STARTCHAR uni045A
ENCODING 1114
SWIDTH 861 0
DWIDTH 17 0
BBX 16 11 1 0
BITMAP
E180
E180
E180
E180
FFFC
FFFE
E187
E187
E186
E1FE
E1FC
ENDCHAR
STARTCHAR uni045B
ENCODING 1115
SWIDTH 566 0
DWIDTH 11 0
BBX 10 16 0 0
BITMAP
6000
6000
FC00
FC00
6000
6F00
7F80
71C0
61C0
61C0
61C0
61C0
61C0
61C0
61C0
61C0
ENDCHAR
STARTCHAR uni045C
ENCODING 1116
SWIDTH 553 0
DWIDTH 11 0
BBX 10 15 1 0
BITMAP
0700
0E00
1C00
0000
E3C0
E300
E700
EE00
FC00
FC00
EE00
E700
E700
E380
E1C0
ENDCHAR
STARTCHAR uni045D
ENCODING 1117
SWIDTH 574 0
DWIDTH 11 0
BBX 9 15 1 0
BITMAP
7000
1800
0C00
0000
E180
E380
E780
E780
ED80
ED80
F980
F980
F180
F180
E180
ENDCHAR
STARTCHAR uni045E
ENCODING 1118
SWIDTH 486 0
DWIDTH 10 0
BBX 10 19 0 -4
BITMAP
3300
3300
1E00
0000
E1C0
6180
7380
7380
3300
3B00
1F00
1E00
1E00
0C00
0C00
0C00
1800
7800
7000
ENDCHAR
STARTCHAR uni045F
ENCODING 1119
SWIDTH 574 0
DWIDTH 11 0
BBX 9 15 1 -4
BITMAP
E180
E180
E180
E180
E180
E180
E180
E180
E180
FF80
FF80
0C00
0C00
0C00
0C00
ENDCHAR
STARTCHAR uni0460
ENCODING 1120
SWIDTH 910 0
DWIDTH 18 0
BBX 16 14 1 0
BITMAP
E187
E187
E187
E187
E187
E187
E187
E187
E187
E187
E187
63C6
7FFE
3E7C
ENDCHAR
STARTCHAR uni0461
ENCODING 1121
SWIDTH 788 0
DWIDTH 16 0
BBX 14 11 1 0
BITMAP
E30C
E30C
E30C
E30C
E30C
E30C
E30C
E31C
E79C
7FF8
3CF0
ENDCHAR
STARTCHAR uni0462
ENCODING 1122
SWIDTH 628 0
DWIDTH 13 0
BBX 12 14 0 0
BITMAP
3000
3000
FC00
FC00
3000
3FC0
3FE0
3070
3070
3030
3070
3070
3FE0
3FC0
ENDCHAR
STARTCHAR uni0463
ENCODING 1123
SWIDTH 550 0
DWIDTH 11 0
BBX 10 15 0 0
BITMAP
7000
7000
7000
FE00
FE00
7000
7000
7000
7F80
7FC0
70C0
70C0
70C0
7FC0
7F00
ENDCHAR
STARTCHAR uni0464
ENCODING 1124
SWIDTH 894 0
DWIDTH 18 0
BBX 15 14 2 0
BITMAP
C1F0
C3FC
C70C
CE0E
CC06
CC00
FFE0
FFE0
CC00
CC06
CE0E
C70C
C7FC
C1F0
ENDCHAR
STARTCHAR uni0465
ENCODING 1125
SWIDTH 750 0
DWIDTH 15 0
BBX 13 11 1 0
BITMAP
E1E0
E7F8
E618
EE18
FFC0
FFC0
EE00
EE18
E738
E3F0
E1E0
ENDCHAR
STARTCHAR uni0466
ENCODING 1126
SWIDTH 630 0
DWIDTH 13 0
BBX 13 14 0 0
BITMAP
0700
0700
0F80
0D80
0D80
1DC0
18C0
18C0
3FE0
3FE0
3760
7770
6730
E738
ENDCHAR
STARTCHAR uni0467
ENCODING 1127
SWIDTH 546 0
DWIDTH 11 0
BBX 11 11 0 0
BITMAP
0E00
0E00
1E00
1B00
1B00
3380
3F80
7F80
6DC0
6CC0
ECE0
ENDCHAR
STARTCHAR uni0468
ENCODING 1128
SWIDTH 907 0
DWIDTH 18 0
BBX 16 14 2 0
BITMAP
C0E0
C0F0
C0F0
C1F0
C1B8
C198
C398
C31C
FFFC
FFFC
C66E
CE66
CE66
CC67
ENDCHAR
STARTCHAR uni0469
ENCODING 1129
SWIDTH 776 0
DWIDTH 16 0
BBX 13 11 2 0
BITMAP
C180
C3C0
C3C0
C7C0
C660
C660
FFF0
FFF0
CDB0
DDB8
D998
ENDCHAR
STARTCHAR uni046A
ENCODING 1130
SWIDTH 865 0
DWIDTH 17 0
BBX 15 14 1 0
BITMAP
3FFC
3FF8
1C30
0C70
0E60
06C0
3FF8
7FFC
E38E
E38E
E38E
E38E
E38E
E38E
ENDCHAR
STARTCHAR uni046B
ENCODING 1131
SWIDTH 737 0
DWIDTH 15 0
BBX 13 11 1 0
BITMAP
3FF0
3FE0
18C0
0DC0
0D80
3FE0
7FF0
6730
E738
E738
E738
ENDCHAR
STARTCHAR uni046C
ENCODING 1132
SWIDTH 1149 0
DWIDTH 23 0
BBX 20 14 2 0
BITMAP
C3FFE0
C1FFC0
C0C380
C0E300
C07700
C03600
FFFF80
FFFFE0
C71C60
C71C70
C61C70
C61C70
C61C70
C61C70
ENDCHAR
STARTCHAR uni046D
ENCODING 1133
SWIDTH 996 0
DWIDTH 20 0
BBX 18 11 1 0
BITMAP
E1FF80
E0FF00
E0C600
E06E00
E07C00
FFFF00
FFFF80
E33980
E339C0
E739C0
E739C0
ENDCHAR
STARTCHAR uni046E
ENCODING 1134
SWIDTH 515 0
DWIDTH 10 0
BBX 9 23 0 -4
BITMAP
7300
1E00
0C00
0000
0000
7E00
7F00
0380
0380
0300
3E00
3E00
0300
0380
0180
0380
0380
7F00
FE00
E000
E000
7000
2000
ENDCHAR
STARTCHAR uni046F
ENCODING 1135
SWIDTH 492 0
DWIDTH 10 0
BBX 8 19 1 -4
BITMAP
E6
3C
38
00
FC
FE
07
06
3E
3E
07
03
07
7E
FC
C0
C0
E0
60
ENDCHAR
STARTCHAR uni0470
ENCODING 1136
SWIDTH 708 0
DWIDTH 14 0
BBX 12 14 1 0
BITMAP
C630
C630
C630
C630
C630
C630
C670
E670
7FE0
1F80
0600
0600
0600
0600
ENDCHAR
STARTCHAR uni0471
ENCODING 1137
SWIDTH 723 0
DWIDTH 14 0
BBX 13 16 0 -5
BITMAP
E338
E338
E318
E318
E318
6318
6318
6338
7378
3FF0
0FC0
0300
0300
0300
0300
0300
ENDCHAR
STARTCHAR uni0472
ENCODING 1138
SWIDTH 684 0
DWIDTH 14 0
BBX 12 14 1 0
BITMAP
0F00
3FC0
70E0
6060
E070
E070
FFF0
FFF0
E070
E070
6060
70E0
3FC0
0F00
ENDCHAR
STARTCHAR uni0473
ENCODING 1139
SWIDTH 566 0
DWIDTH 11 0
BBX 9 11 1 0
BITMAP
3E00
7F00
E380
C180
FF80
FF80
C180
C180
E380
7F00
3E00
ENDCHAR
STARTCHAR uni0474
ENCODING 1140
SWIDTH 637 0
DWIDTH 13 0
BBX 13 14 0 0
BITMAP
E038
6070
7060
7060
30E0
38C0
18C0
19C0
1D80
0D80
0D80
0F00
0700
0700
ENDCHAR
STARTCHAR uni0475
ENCODING 1141
SWIDTH 506 0
DWIDTH 10 0
BBX 10 11 0 0
BITMAP
E0C0
61C0
6380
7300
3300
3300
3600
1E00
1E00
1C00
0C00
ENDCHAR
STARTCHAR uni0476
ENCODING 1142
SWIDTH 637 0
DWIDTH 13 0
BBX 13 18 0 0
BITMAP
7E00
3B00
1F80
0000
E038
6070
7060
7060
30E0
38C0
18C0
19C0
1D80
0D80
0D80
0F00
0700
0700
ENDCHAR
STARTCHAR uni0477
ENCODING 1143
SWIDTH 506 0
DWIDTH 10 0
BBX 10 15 0 0
BITMAP
FC00
7600
3F00
0000
E0C0
61C0
6380
7300
3300
3300
3600
1E00
1E00
1C00
0C00
ENDCHAR
STARTCHAR uni0478
ENCODING 1144
SWIDTH 1177 0
DWIDTH 24 0
BBX 23 18 1 -4
BITMAP
0F0000
3FC000
70E000
60670E
E0730C
E0731C
E07398
E07198
E071B8
E071F0
6060F0
70E0F0
3FC0E0
0F0060
0000E0
0000C0
0003C0
000380
ENDCHAR
STARTCHAR uni0479
ENCODING 1145
SWIDTH 1056 0
DWIDTH 21 0
BBX 20 15 1 -4
BITMAP
3E1870
7F1C70
E38C60
C18C60
C18EE0
C186C0
C186C0
C187C0
E38380
7F0380
3E0380
000300
000700
001E00
001C00
ENDCHAR
STARTCHAR uni047A
ENCODING 1146
SWIDTH 684 0
DWIDTH 14 0
BBX 12 16 1 -1
BITMAP
0600
1F80
3FC0
76E0
6060
E070
E070
E070
E070
E070
E070
6060
76E0
3FC0
1F80
0600
ENDCHAR
STARTCHAR uni047B
ENCODING 1147
SWIDTH 566 0
DWIDTH 11 0
BBX 9 13 1 -1
BITMAP
0800
3E00
7F00
EB80
C180
C180
C180
C180
C180
EB80
7F00
3E00
0800
ENDCHAR
STARTCHAR uni047C
ENCODING 1148
SWIDTH 908 0
DWIDTH 18 0
BBX 16 17 1 0
BITMAP
0780
0470
0180
399C
791E
6006
E007
E007
E007
E187
E187
E187
E187
E187
63C6
7FFE
3E7C
ENDCHAR
STARTCHAR uni047D
ENCODING 1149
SWIDTH 783 0
DWIDTH 16 0
BBX 14 15 1 0
BITMAP
0780
0CF0
0100
0100
3330
7038
6018
E01C
E01C
E31C
E31C
E31C
6798
7FF8
3CF0
ENDCHAR
STARTCHAR uni047E
ENCODING 1150
SWIDTH 910 0
DWIDTH 18 0
BBX 16 17 1 0
BITMAP
0FF0
0180
0000
E187
E187
E187
E187
E187
E187
E187
E187
E187
E187
E187
63C6
7FFE
3E7C
ENDCHAR
STARTCHAR uni047F
ENCODING 1151
SWIDTH 788 0
DWIDTH 16 0
BBX 14 14 1 0
BITMAP
1FE0
0300
0000
E30C
E30C
E30C
E30C
E30C
E30C
E30C
E31C
E79C
7FF8
3CF0
ENDCHAR
STARTCHAR uni0480
ENCODING 1152
SWIDTH 637 0
DWIDTH 13 0
BBX 11 18 1 -4
BITMAP
1F00
3FC0
71C0
E0E0
E0E0
E000
E000
E000
E000
E000
E000
7000
3E00
1E00
0600
0600
0600
0600
ENDCHAR
STARTCHAR uni0481
ENCODING 1153
SWIDTH 536 0
DWIDTH 11 0
BBX 9 15 1 -4
BITMAP
1E00
7F00
6380
E180
C000
C000
C000
E000
6000
7C00
3C00
0C00
0C00
0C00
0C00
ENDCHAR
STARTCHAR uni0482
ENCODING 1154
SWIDTH 624 0
DWIDTH 12 0
BBX 10 13 1 0
BITMAP
00C0
2180
1900
0F00
0380
07C0
8C40
EC00
3800
1C00
3700
2200
6000
ENDCHAR
STARTCHAR uni0483
ENCODING 1155
SWIDTH 0 0
DWIDTH 0 0
BBX 7 3 -9 12
BITMAP
06
FE
C0
ENDCHAR
STARTCHAR uni0484
ENCODING 1156
SWIDTH 0 0
DWIDTH 0 0
BBX 8 2 -9 13
BITMAP
1E
E3
ENDCHAR
STARTCHAR uni0485
ENCODING 1157
SWIDTH 0 0
DWIDTH 0 0
BBX 2 3 -6 13
BITMAP
C0
C0
40
ENDCHAR
STARTCHAR uni0486
ENCODING 1158
SWIDTH 0 0
DWIDTH 0 0
BBX 3 3 -6 13
BITMAP
60
40
80
ENDCHAR
STARTCHAR uni0488
ENCODING 1160
SWIDTH 0 0
DWIDTH 0 0
BBX 19 17 -15 -3
BITMAP
00E000
009000
1C0380
240680
000040
000000
000000
7000E0
D00120
000000
000000
000000
180380
240680
000000
00E000
009000
ENDCHAR
STARTCHAR uni0489
ENCODING 1161
SWIDTH 0 0
DWIDTH 0 0
BBX 18 18 -14 -4
BITMAP
004000
00C000
208000
100300
180E00
100800
000000
000000
C00300
6001C0
000000
000000
080400
180400
200600
00C200
008000
008000
ENDCHAR
STARTCHAR uni048A
ENCODING 1162
SWIDTH 770 0
DWIDTH 15 0
BBX 13 22 1 -4
BITMAP
1980
1980
0F00
0000
E070
E0F0
E0F0
E1F0
E3F0
E370
E770
EE70
EC70
FC70
F870
F070
F078
E078
0018
0018
0038
0010
ENDCHAR
STARTCHAR uni048B
ENCODING 1163
SWIDTH 638 0
DWIDTH 13 0
BBX 11 19 1 -4
BITMAP
2300
3300
1E00
0000
E180
E380
E780
E780
ED80
ED80
F980
F980
F180
F1E0
E1E0
0060
0060
00C0
0080
ENDCHAR
STARTCHAR uni048C
ENCODING 1164
SWIDTH 628 0
DWIDTH 13 0
BBX 12 14 0 0
BITMAP
3000
3000
FC00
FC00
3000
3FC0
3FE0
3070
3070
3030
3070
3070
3FE0
3FC0
ENDCHAR
STARTCHAR uni048D
ENCODING 1165
SWIDTH 550 0
DWIDTH 11 0
BBX 10 16 0 0
BITMAP
7000
7000
FE00
FE00
7000
7000
7000
7000
7000
7F80
7FC0
70C0
70C0
70C0
7FC0
7F00
ENDCHAR
STARTCHAR uni048E
ENCODING 1166
SWIDTH 634 0
DWIDTH 13 0
BBX 10 14 2 0
BITMAP
FF00
FF80
C1C0
C0C0
C0C0
C6C0
C3C0
FF80
FFC0
C040
C000
C000
C000
C000
ENDCHAR
STARTCHAR uni048F
ENCODING 1167
SWIDTH 565 0
DWIDTH 11 0
BBX 9 15 1 -4
BITMAP
DE00
FF00
E380
C180
C180
C180
C180
C780
E380
FF00
DF80
C100
C000
C000
C000
ENDCHAR
STARTCHAR uni0490
ENCODING 1168
SWIDTH 551 0
DWIDTH 11 0
BBX 10 18 1 0
BITMAP
01C0
01C0
01C0
01C0
FFC0
FFC0
E000
E000
E000
E000
E000
E000
E000
E000
E000
E000
E000
E000
ENDCHAR
STARTCHAR uni0491
ENCODING 1169
SWIDTH 453 0
DWIDTH 9 0
BBX 7 14 1 0
BITMAP
06
06
06
FE
FE
E0
E0
E0
E0
E0
E0
E0
E0
E0
ENDCHAR
STARTCHAR uni0492
ENCODING 1170
SWIDTH 557 0
DWIDTH 11 0
BBX 11 14 0 0
BITMAP
3FE0
3FE0
3000
3000
3000
3000
FC00
FC00
3000
3000
3000
3000
3000
3000
ENDCHAR
STARTCHAR uni0493
ENCODING 1171
SWIDTH 418 0
DWIDTH 8 0
BBX 8 11 0 0
BITMAP
7F
7F
70
70
70
FC
FC
70
70
70
70
ENDCHAR
STARTCHAR uni0494
ENCODING 1172
SWIDTH 618 0
DWIDTH 12 0
BBX 10 17 1 -3
BITMAP
FF80
FF80
E000
E000
E000
E000
FE00
FF80
E1C0
E0C0
E0C0
E0C0
E0C0
E0C0
01C0
0780
0700
ENDCHAR
STARTCHAR uni0495
ENCODING 1173
SWIDTH 515 0
DWIDTH 10 0
BBX 8 14 1 -3
BITMAP
FE
FE
C0
C0
FC
FE
C7
C3
C3
C3
C3
07
0E
04
ENDCHAR
STARTCHAR uni0496
ENCODING 1174
SWIDTH 1013 0
DWIDTH 20 0
BBX 20 17 0 -3
BITMAP
70E1E0
70E1C0
38E380
18E300
1CE700
0EE600
07FE00
0FFE00
0CE700
1CE700
38E380
38E180
70E1F0
70E0F0
800030
000030
000030
ENDCHAR
STARTCHAR uni0497
ENCODING 1175
SWIDTH 853 0
DWIDTH 17 0
BBX 17 14 0 -3
BITMAP
F18F00
318E00
399C00
199800
0FF800
1FF800
199800
399C00
318C00
718F80
618780
800380
000380
000380
ENDCHAR
STARTCHAR uni0498
ENCODING 1176
SWIDTH 604 0
DWIDTH 12 0
BBX 10 18 1 -4
BITMAP
3F00
7F80
E1C0
C1C0
01C0
01C0
1F80
1F80
01C0
00C0
C0C0
E1C0
7F80
3F00
0C00
0C00
0C00
0C00
ENDCHAR
STARTCHAR uni0499
ENCODING 1177
SWIDTH 510 0
DWIDTH 10 0
BBX 8 15 1 -4
BITMAP
3E
FF
C3
03
3E
3E
03
C3
E3
FF
3C
18
18
18
18
ENDCHAR
STARTCHAR uni049A
ENCODING 1178
SWIDTH 724 0
DWIDTH 15 0
BBX 12 17 2 -3
BITMAP
C1E0
C380
C380
C700
CE00
CE00
FC00
FC00
CE00
C700
C700
C380
C1F0
C0F0
0070
0070
0070
ENDCHAR
STARTCHAR uni049B
ENCODING 1179
SWIDTH 622 0
DWIDTH 12 0
BBX 11 14 1 -3
BITMAP
E3C0
E300
E700
EE00
FC00
FC00
EE00
E700
E700
E3E0
E1E0
0060
0060
0060
ENDCHAR
STARTCHAR uni049C
ENCODING 1180
SWIDTH 646 0
DWIDTH 13 0
BBX 12 14 1 0
BITMAP
E0F0
E0E0
E1C0
E1C0
E980
EB00
FF00
FF00
EB80
E980
E1C0
E0E0
E0E0
E070
ENDCHAR
STARTCHAR uni049D
ENCODING 1181
SWIDTH 583 0
DWIDTH 12 0
BBX 11 11 1 0
BITMAP
E1C0
E180
EB80
EB00
FF00
FF00
EB00
EB80
E180
E1C0
E1E0
ENDCHAR
STARTCHAR uni049E
ENCODING 1182
SWIDTH 654 0
DWIDTH 13 0
BBX 13 14 0 0
BITMAP
3078
3070
FCE0
FDC0
3180
3380
3F00
3F00
3380
31C0
30E0
30E0
3070
3038
ENDCHAR
STARTCHAR uni049F
ENCODING 1183
SWIDTH 533 0
DWIDTH 11 0
BBX 12 15 -1 0
BITMAP
3800
FE00
FE00
3800
38E0
39C0
3980
3B80
3F00
3F00
3B80
39C0
39C0
38E0
3870
ENDCHAR
STARTCHAR uni04A0
ENCODING 1184
SWIDTH 822 0
DWIDTH 16 0
BBX 16 14 1 0
BITMAP
FE0E
FE1C
0E38
0E38
0E70
0EE0
0FC0
0FE0
0E70
0E70
0E38
0E1C
0E0C
0E0F
ENDCHAR
STARTCHAR uni04A1
ENCODING 1185
SWIDTH 705 0
DWIDTH 14 0
BBX 13 11 1 0
BITMAP
FC38
FC70
0CE0
0DC0
0F80
0F80
0DC0
0CE0
0C60
0C70
0C38
ENDCHAR
STARTCHAR uni04A2
ENCODING 1186
SWIDTH 769 0
DWIDTH 15 0
BBX 14 17 1 -3
BITMAP
E070
E070
E070
E070
E070
E070
FFF0
FFF0
E070
E070
E070
E070
E07C
E07C
001C
001C
001C
ENDCHAR
STARTCHAR uni04A3
ENCODING 1187
SWIDTH 631 0
DWIDTH 13 0
BBX 11 14 1 -3
BITMAP
E180
E180
E180
E180
FF80
FF80
E180
E180
E180
E1E0
E1E0
0060
0060
0060
ENDCHAR
STARTCHAR uni04A4
ENCODING 1188
SWIDTH 976 0
DWIDTH 20 0
BBX 18 14 1 0
BITMAP
E07FC0
E07FC0
E07000
E07000
E07000
E07000
FFF000
FFF000
E07000
E07000
E07000
E07000
E07000
E07000
ENDCHAR
STARTCHAR uni04A5
ENCODING 1189
SWIDTH 708 0
DWIDTH 14 0
BBX 13 11 1 0
BITMAP
E1F8
E1F8
E180
E180
FF80
FF80
E180
E180
E180
E180
E180
ENDCHAR
STARTCHAR uni04A6
ENCODING 1190
SWIDTH 1034 0
DWIDTH 21 0
BBX 18 17 2 -3
BITMAP
FFE000
FFE000
C0E000
C0E000
C0E000
C0E000
C0FE00
C0FF00
C0E380
C0E1C0
C0E0C0
C0E0C0
C0E0C0
C0E1C0
000180
000780
000600
ENDCHAR
STARTCHAR uni04A7
ENCODING 1191
SWIDTH 869 0
DWIDTH 17 0
BBX 16 14 1 -3
BITMAP
FF80
FF80
C180
C180
C1F8
C1FC
C18E
C186
C187
C187
C186
000E
001C
0008
ENDCHAR
STARTCHAR uni04A8
ENCODING 1192
SWIDTH 770 0
DWIDTH 15 0
BBX 13 14 1 0
BITMAP
19E0
7BF0
6738
E618
C618
C618
C618
C618
C718
E738
E3F0
71F0
3FF8
0F98
ENDCHAR
STARTCHAR uni04A9
ENCODING 1193
SWIDTH 624 0
DWIDTH 12 0
BBX 11 11 1 0
BITMAP
3780
7FC0
ECC0
CCC0
CCC0
CCC0
CCC0
EFC0
E780
7FE0
1EE0
ENDCHAR
STARTCHAR uni04AA
ENCODING 1194
SWIDTH 652 0
DWIDTH 13 0
BBX 11 18 1 -4
BITMAP
1F00
3FC0
70E0
E0E0
E060
C000
C000
C000
C000
E060
E0E0
70E0
3FC0
1F00
0E00
0E00
0E00
0E00
ENDCHAR
STARTCHAR uni04AB
ENCODING 1195
SWIDTH 523 0
DWIDTH 10 0
BBX 9 15 1 -4
BITMAP
3E00
7F00
E300
C380
C000
C000
C000
C380
E300
7F00
3C00
1800
1800
1800
1800
ENDCHAR
STARTCHAR uni04AC
ENCODING 1196
SWIDTH 606 0
DWIDTH 12 0
BBX 12 17 0 -3
BITMAP
FFF0
FFF0
0600
0600
0600
0600
0600
0600
0600
0600
0600
0600
0780
0780
0180
0180
0180
ENDCHAR
STARTCHAR uni04AD
ENCODING 1197
SWIDTH 494 0
DWIDTH 10 0
BBX 10 14 0 -3
BITMAP
FFC0
FFC0
0C00
0C00
0C00
0C00
0C00
0C00
0C00
0F00
0F00
0300
0300
0300
ENDCHAR
STARTCHAR uni04AE
ENCODING 1198
SWIDTH 609 0
DWIDTH 12 0
BBX 12 14 0 0
BITMAP
E070
7060
70E0
38C0
39C0
1D80
0F80
0F00
0700
0600
0600
0600
0600
0600
ENDCHAR
STARTCHAR uni04AF
ENCODING 1199
SWIDTH 506 0
DWIDTH 10 0
BBX 10 15 0 -4
BITMAP
E1C0
6180
6180
7380
3300
3300
3F00
1E00
1E00
0E00
0C00
0C00
0C00
0C00
0C00
ENDCHAR
STARTCHAR uni04B0
ENCODING 1200
SWIDTH 609 0
DWIDTH 12 0
BBX 12 14 0 0
BITMAP
E070
6060
70E0
30C0
1980
1980
0F00
1F80
1F80
0600
0600
0600
0600
0600
ENDCHAR
STARTCHAR uni04B1
ENCODING 1201
SWIDTH 506 0
DWIDTH 10 0
BBX 10 15 0 -4
BITMAP
E1C0
6180
6180
7380
3300
3300
1F00
1E00
1E00
3F00
3F00
0C00
0C00
0C00
0C00
ENDCHAR
STARTCHAR uni04B2
ENCODING 1202
SWIDTH 652 0
DWIDTH 13 0
BBX 13 17 0 -3
BITMAP
F070
70E0
38E0
19C0
1D80
0F80
0700
0F00
0F80
1D80
19C0
38E0
7078
7078
8038
0038
0038
ENDCHAR
STARTCHAR uni04B3
ENCODING 1203
SWIDTH 534 0
DWIDTH 11 0
BBX 10 14 0 -3
BITMAP
E1C0
7380
3300
3F00
1E00
0C00
1E00
3F00
3300
73C0
61C0
80C0
00C0
00C0
ENDCHAR
STARTCHAR uni04B4
ENCODING 1204
SWIDTH 898 0
DWIDTH 18 0
BBX 17 17 0 -3
BITMAP
FFC600
FFC600
0C0600
0C0600
0C0600
0C0600
0C0600
0C0600
0C0600
0C0600
0C0600
0C0600
0FFF80
0FFF80
000380
000380
000380
ENDCHAR
STARTCHAR uni04B5
ENCODING 1205
SWIDTH 679 0
DWIDTH 14 0
BBX 13 14 0 -3
BITMAP
FE70
FE70
1870
1870
1870
1870
1870
1870
1870
1FF8
1FF8
0018
0018
0018
ENDCHAR
STARTCHAR uni04B6
ENCODING 1206
SWIDTH 747 0
DWIDTH 15 0
BBX 13 17 1 -3
BITMAP
E060
E060
E060
E060
E060
E060
7060
7FE0
1FE0
0060
0060
0060
0078
0078
0018
0018
0018
ENDCHAR
STARTCHAR uni04B7
ENCODING 1207
SWIDTH 607 0
DWIDTH 12 0
BBX 11 14 1 -3
BITMAP
C380
C380
C380
C380
E380
7F80
3F80
0380
0380
03E0
03E0
00E0
00E0
00E0
ENDCHAR
STARTCHAR uni04B8
ENCODING 1208
SWIDTH 681 0
DWIDTH 14 0
BBX 11 14 1 0
BITMAP
E060
E060
E060
E060
E660
E660
7660
7FE0
1FE0
0660
0660
0060
0060
0060
ENDCHAR
STARTCHAR uni04B9
ENCODING 1209
SWIDTH 556 0
DWIDTH 11 0
BBX 9 11 1 0
BITMAP
C380
C380
CB80
CB80
EB80
7F80
3F80
0B80
0380
0380
0380
ENDCHAR
STARTCHAR uni04BA
ENCODING 1210
SWIDTH 690 0
DWIDTH 14 0
BBX 11 14 1 0
BITMAP
E000
E000
E000
E000
E000
FF80
FFC0
E0E0
E060
E060
E060
E060
E060
E060
ENDCHAR
STARTCHAR uni04BB
ENCODING 1211
SWIDTH 555 0
DWIDTH 11 0
BBX 9 15 1 0
BITMAP
E000
E000
E000
E000
FE00
FF00
E380
E380
E380
E380
E380
E380
E380
E380
E380
ENDCHAR
STARTCHAR uni04BC
ENCODING 1212
SWIDTH 767 0
DWIDTH 15 0
BBX 14 14 0 0
BITMAP
03E0
07F8
0E38
0C1C
DC0C
DC0C
7FFC
3FFC
1C00
1C00
0C00
0E08
07F8
01F8
ENDCHAR
STARTCHAR uni04BD
ENCODING 1213
SWIDTH 595 0
DWIDTH 12 0
BBX 11 11 0 0
BITMAP
0780
1FC0
98E0
F860
FFE0
7FE0
3800
3800
1C60
1FE0
0780
ENDCHAR
STARTCHAR uni04BE
ENCODING 1214
SWIDTH 767 0
DWIDTH 15 0
BBX 14 18 0 -4
BITMAP
03E0
07F8
0E38
0C1C
DC0C
DC0C
7FFC
3FFC
1C00
1C00
0C00
0E08
07F8
01F8
00E0
00E0
00E0
00E0
ENDCHAR
STARTCHAR uni04BF
ENCODING 1215
SWIDTH 595 0
DWIDTH 12 0
BBX 11 15 0 -4
BITMAP
0780
1FC0
98E0
F860
FFE0
7FE0
3800
3800
1C60
1FE0
0780
0300
0300
0300
0300
ENDCHAR
STARTCHAR uni04C0
ENCODING 1216
SWIDTH 282 0
DWIDTH 6 0
BBX 2 14 2 0
BITMAP
C0
C0
C0
C0
C0
C0
C0
C0
C0
C0
C0
C0
C0
C0
ENDCHAR
STARTCHAR uni04C1
ENCODING 1217
SWIDTH 954 0
DWIDTH 19 0
BBX 19 18 0 0
BITMAP
031800
019000
00E000
000000
70E1E0
70E1C0
38E380
18E300
1CE700
0EE600
07FE00
0FFE00
0CE700
1CE700
38E380
38E180
70E1C0
F0E0E0
ENDCHAR
STARTCHAR uni04C2
ENCODING 1218
SWIDTH 807 0
DWIDTH 16 0
BBX 16 15 0 0
BITMAP
0660
0660
03C0
0000
F18F
318E
399C
1998
0FF8
1FF8
1998
399C
318C
718E
E187
ENDCHAR
STARTCHAR uni04C3
ENCODING 1219
SWIDTH 641 0
DWIDTH 13 0
BBX 11 17 1 -3
BITMAP
E0E0
E1C0
E380
E700
E600
FF00
FFC0
E1C0
E0E0
E060
E060
E060
E060
E060
00E0
03C0
0380
ENDCHAR
STARTCHAR uni04C4
ENCODING 1220
SWIDTH 558 0
DWIDTH 11 0
BBX 10 14 1 -3
BITMAP
E3C0
E700
E600
EE00
FC00
FF00
E380
E180
E180
E180
E180
0380
0700
0200
ENDCHAR
STARTCHAR uni04C5
ENCODING 1221
SWIDTH 769 0
DWIDTH 15 0
BBX 14 18 0 -4
BITMAP
1FF8
1FF8
1C38
1C38
1C38
1C38
1C38
1838
1838
1838
1838
3838
F03C
E03C
000C
000C
0018
0008
ENDCHAR
STARTCHAR uni04C6
ENCODING 1222
SWIDTH 639 0
DWIDTH 13 0
BBX 11 15 1 -4
BITMAP
3F80
3F80
3180
3180
3180
3180
7180
7180
6180
E1E0
C1E0
0060
0060
00C0
0080
ENDCHAR
STARTCHAR uni04C7
ENCODING 1223
SWIDTH 710 0
DWIDTH 14 0
BBX 12 18 1 -4
BITMAP
E070
E070
E070
E070
E070
E070
FFF0
FFF0
E070
E070
E070
E070
E070
E070
0070
0060
01E0
01C0
ENDCHAR
STARTCHAR uni04C8
ENCODING 1224
SWIDTH 566 0
DWIDTH 11 0
BBX 9 15 1 -4
BITMAP
C180
C180
C180
C180
FF80
FF80
C180
C180
C180
C180
C180
0180
0380
0F00
0E00
ENDCHAR
STARTCHAR uni04C9
ENCODING 1225
SWIDTH 775 0
DWIDTH 16 0
BBX 14 18 1 -4
BITMAP
E070
E070
E070
E070
E070
E070
FFF0
FFF0
E070
E070
E070
E070
E07C
E07C
0018
0018
0018
0030
ENDCHAR
STARTCHAR uni04CA
ENCODING 1226
SWIDTH 637 0
DWIDTH 13 0
BBX 11 15 1 -4
BITMAP
E180
E180
E180
E180
FF80
FF80
E180
E180
E180
E1E0
E1E0
0060
0060
00C0
0080
ENDCHAR
STARTCHAR uni04CB
ENCODING 1227
SWIDTH 691 0
DWIDTH 14 0
BBX 11 17 1 -3
BITMAP
E060
E060
E060
E060
E060
E060
7060
7FE0
1FE0
0060
0060
0060
01E0
01E0
0180
0180
0180
ENDCHAR
STARTCHAR uni04CC
ENCODING 1228
SWIDTH 549 0
DWIDTH 11 0
BBX 9 14 1 -3
BITMAP
C380
C380
C380
C380
E380
7F80
3F80
0380
0380
0F80
0F80
0E00
0E00
0E00
ENDCHAR
STARTCHAR uni04CD
ENCODING 1229
SWIDTH 936 0
DWIDTH 19 0
BBX 17 18 1 -4
BITMAP
F00E00
F01E00
F81E00
F81E00
F83600
EC3600
EC7600
EE6600
E66600
E6C600
E7C600
E3C600
E38780
E18780
000180
000300
000300
000200
ENDCHAR
STARTCHAR uni04CE
ENCODING 1230
SWIDTH 808 0
DWIDTH 16 0
BBX 14 15 1 -4
BITMAP
F078
F078
F078
F8F8
F8F8
FDF8
EDB8
EDB8
E738
E73C
E63C
000C
000C
0018
0008
ENDCHAR
STARTCHAR uni04CF
ENCODING 1231
SWIDTH 282 0
DWIDTH 6 0
BBX 2 14 2 0
BITMAP
C0
C0
C0
C0
C0
C0
C0
C0
C0
C0
C0
C0
C0
C0
ENDCHAR
STARTCHAR uni04D0
ENCODING 1232
SWIDTH 665 0
DWIDTH 13 0
BBX 13 18 0 0
BITMAP
08C0
0CC0
0780
0000
0700
0700
0780
0D80
0D80
1CC0
18C0
18E0
3860
3FE0
3FF0
7030
6038
E038
ENDCHAR
STARTCHAR uni04D1
ENCODING 1233
SWIDTH 541 0
DWIDTH 11 0
BBX 9 15 1 0
BITMAP
6300
3200
1C00
0000
3E00
7F00
E300
0380
3F80
7F80
E380
C380
E380
7F80
3B80
ENDCHAR
STARTCHAR uni04D2
ENCODING 1234
SWIDTH 665 0
DWIDTH 13 0
BBX 13 17 0 0
BITMAP
1CC0
1CC0
0000
0700
0700
0780
0D80
0D80
1CC0
18C0
18E0
3860
3FE0
3FF0
7030
6038
E038
ENDCHAR
STARTCHAR uni04D3
ENCODING 1235
SWIDTH 541 0
DWIDTH 11 0
BBX 9 14 1 0
BITMAP
6300
7300
0000
3E00
7F00
E300
0380
3F80
7F80
E380
C380
E380
7F80
3B80
ENDCHAR
STARTCHAR uni04D4
ENCODING 1236
SWIDTH 939 0
DWIDTH 19 0
BBX 18 14 0 0
BITMAP
00FFC0
01FFC0
01E000
03F000
077000
067000
0E7F80
0C7F80
1C7000
1FF000
3FF000
707000
703FC0
E03FC0
ENDCHAR
STARTCHAR uni04D5
ENCODING 1237
SWIDTH 844 0
DWIDTH 17 0
BBX 15 11 1 0
BITMAP
3E78
7FFC
E386
4386
03FE
7FFE
FF80
C380
C3C2
FEFE
7C7C
ENDCHAR
STARTCHAR uni04D6
ENCODING 1238
SWIDTH 565 0
DWIDTH 11 0
BBX 10 18 1 0
BITMAP
3300
3300
1E00
0000
FFC0
FFC0
E000
E000
E000
E000
FF80
FF80
E000
E000
E000
E000
FFC0
FFC0
ENDCHAR
STARTCHAR uni04D7
ENCODING 1239
SWIDTH 536 0
DWIDTH 11 0
BBX 9 15 1 0
BITMAP
6300
2600
1C00
0000
1E00
7F00
6380
C180
FF80
FF80
C000
E000
7180
7F80
1E00
ENDCHAR
STARTCHAR uni04D8
ENCODING 1240
SWIDTH 691 0
DWIDTH 14 0
BBX 12 14 1 0
BITMAP
3F00
7FC0
40E0
0060
0070
0070
FFF0
FFF0
C070
C070
E060
70E0
3FC0
1F00
ENDCHAR
STARTCHAR uni04D9
ENCODING 1241
SWIDTH 529 0
DWIDTH 11 0
BBX 9 11 1 0
BITMAP
3E00
FF00
4380
0380
0180
FF80
FF80
C180
E300
7F00
3E00
ENDCHAR
STARTCHAR uni04DA
ENCODING 1242
SWIDTH 691 0
DWIDTH 14 0
BBX 12 17 1 0
BITMAP
3380
3380
0000
3F00
7FC0
40E0
0060
0070
0070
FFF0
FFF0
C070
C070
E060
70E0
3FC0
1F00
ENDCHAR
STARTCHAR uni04DB
ENCODING 1243
SWIDTH 529 0
DWIDTH 11 0
BBX 9 14 1 0
BITMAP
6300
6700
0000
3E00
FF00
4380
0380
0180
FF80
FF80
C180
E300
7F00
3E00
ENDCHAR
STARTCHAR uni04DC
ENCODING 1244
SWIDTH 954 0
DWIDTH 19 0
BBX 19 17 0 0
BITMAP
031800
039800
000000
70E1E0
70E1C0
38E380
18E300
1CE700
0EE600
07FE00
0FFE00
0CE700
1CE700
38E380
38E180
70E1C0
F0E0E0
ENDCHAR
STARTCHAR uni04DD
ENCODING 1245
SWIDTH 807 0
DWIDTH 16 0
BBX 16 14 0 0
BITMAP
0660
0670
0000
F18F
318E
399C
1998
0FF8
1FF8
1998
399C
318C
718E
E187
ENDCHAR
STARTCHAR uni04DE
ENCODING 1246
SWIDTH 604 0
DWIDTH 12 0
BBX 10 17 1 0
BITMAP
3300
7300
0000
3F00
7F80
E1C0
C1C0
01C0
01C0
1F80
1F80
01C0
00C0
C0C0
E1C0
7F80
3F00
ENDCHAR
STARTCHAR uni04DF
ENCODING 1247
SWIDTH 510 0
DWIDTH 10 0
BBX 8 14 1 0
BITMAP
66
67
00
3E
FF
C3
03
3E
3E
03
C3
E3
FF
3C
ENDCHAR
STARTCHAR uni04E0
ENCODING 1248
SWIDTH 581 0
DWIDTH 12 0
BBX 10 14 1 0
BITMAP
7FC0
7FC0
0380
0600
0C00
1F00
1F80
01C0
01C0
01C0
E1C0
E1C0
7F80
3E00
ENDCHAR
STARTCHAR uni04E1
ENCODING 1249
SWIDTH 581 0
DWIDTH 12 0
BBX 10 15 1 -4
BITMAP
7F80
7F80
0380
0700
0E00
0C00
1E00
1F80
0180
01C0
01C0
E1C0
E180
7F80
3E00
ENDCHAR
STARTCHAR uni04E2
ENCODING 1250
SWIDTH 707 0
DWIDTH 14 0
BBX 12 17 1 0
BITMAP
1FC0
1FC0
0000
E070
E0F0
E0F0
E1F0
E3F0
E370
E770
EE70
EC70
FC70
F870
F070
F070
E070
ENDCHAR
STARTCHAR uni04E3
ENCODING 1251
SWIDTH 574 0
DWIDTH 11 0
BBX 9 14 1 0
BITMAP
7F00
7F00
0000
E180
E380
E780
E780
ED80
ED80
F980
F980
F180
F180
E180
ENDCHAR
STARTCHAR uni04E4
ENCODING 1252
SWIDTH 707 0
DWIDTH 14 0
BBX 12 17 1 0
BITMAP
1980
19C0
0000
E070
E0F0
E0F0
E1F0
E3F0
E370
E770
EE70
EC70
FC70
F870
F070
F070
E070
ENDCHAR
STARTCHAR uni04E5
ENCODING 1253
SWIDTH 574 0
DWIDTH 11 0
BBX 9 14 1 0
BITMAP
7300
7300
0000
E180
E380
E780
E780
ED80
ED80
F980
F980
F180
F180
E180
ENDCHAR
STARTCHAR uni04E6
ENCODING 1254
SWIDTH 690 0
DWIDTH 14 0
BBX 12 17 1 0
BITMAP
1980
3980
0000
0F00
3FC0
70E0
6060
E070
E070
E070
E070
E070
E070
6060
70E0
3FC0
0F00
ENDCHAR
STARTCHAR uni04E7
ENCODING 1255
SWIDTH 569 0
DWIDTH 11 0
BBX 9 14 1 0
BITMAP
6300
7300
0000
3E00
7F00
E380
C180
C180
C180
C180
C180
E380
7F00
3E00
ENDCHAR
STARTCHAR uni04E8
ENCODING 1256
SWIDTH 684 0
DWIDTH 14 0
BBX 12 14 1 0
BITMAP
0F00
3FC0
70E0
6060
E070
E070
FFF0
FFF0
E070
E070
6060
70E0
3FC0
0F00
ENDCHAR
STARTCHAR uni04E9
ENCODING 1257
SWIDTH 566 0
DWIDTH 11 0
BBX 9 11 1 0
BITMAP
3E00
7F00
E380
C180
FF80
FF80
C180
C180
E380
7F00
3E00
ENDCHAR
STARTCHAR uni04EA
ENCODING 1258
SWIDTH 684 0
DWIDTH 14 0
BBX 12 17 1 0
BITMAP
1980
19C0
0000
0F00
3FC0
70E0
6060
E070
E070
FFF0
FFF0
E070
E070
6060
70E0
3FC0
0F00
ENDCHAR
STARTCHAR uni04EB
ENCODING 1259
SWIDTH 566 0
DWIDTH 11 0
BBX 9 14 1 0
BITMAP
6300
7700
0000
3E00
7F00
E380
C180
FF80
FF80
C180
C180
E380
7F00
3E00
ENDCHAR
STARTCHAR uni04EC
ENCODING 1260
SWIDTH 664 0
DWIDTH 13 0
BBX 11 17 1 0
BITMAP
3180
3980
0000
1F00
7F80
61C0
E0E0
C060
0060
0FE0
0FE0
0060
C060
E0E0
61C0
7F80
1F00
ENDCHAR
STARTCHAR uni04ED
ENCODING 1261
SWIDTH 529 0
DWIDTH 11 0
BBX 9 14 1 0
BITMAP
6700
6700
0000
3C00
7F00
E300
0380
1F80
1F80
0180
C380
E300
7F00
3C00
ENDCHAR
STARTCHAR uni04EE
ENCODING 1262
SWIDTH 629 0
DWIDTH 13 0
BBX 11 17 1 0
BITMAP
3F80
3F80
0000
E0E0
E0E0
70C0
71C0
3980
3B80
1B80
1F00
0F00
0E00
0E00
0C00
3C00
3800
ENDCHAR
STARTCHAR uni04EF
ENCODING 1263
SWIDTH 486 0
DWIDTH 10 0
BBX 10 18 0 -4
BITMAP
3F00
3F00
0000
E1C0
6180
7380
7380
3300
3B00
1F00
1E00
1E00
0C00
0C00
0C00
1800
7800
7000
ENDCHAR
STARTCHAR uni04F0
ENCODING 1264
SWIDTH 629 0
DWIDTH 13 0
BBX 11 17 1 0
BITMAP
3180
3380
0000
E0E0
E0E0
70C0
71C0
3980
3B80
1B80
1F00
0F00
0E00
0E00
0C00
3C00
3800
ENDCHAR
STARTCHAR uni04F1
ENCODING 1265
SWIDTH 486 0
DWIDTH 10 0
BBX 10 18 0 -4
BITMAP
3300
3300
0000
E1C0
6180
7380
7380
3300
3B00
1F00
1E00
1E00
0C00
0C00
0C00
1800
7800
7000
ENDCHAR
STARTCHAR uni04F2
ENCODING 1266
SWIDTH 629 0
DWIDTH 13 0
BBX 11 18 1 0
BITMAP
0EC0
1D80
1B00
0000
E0E0
E0E0
70C0
71C0
3980
3B80
1B80
1F00
0F00
0E00
0E00
0C00
3C00
3800
ENDCHAR
STARTCHAR uni04F3
ENCODING 1267
SWIDTH 486 0
DWIDTH 10 0
BBX 10 19 0 -4
BITMAP
0DC0
1B80
3700
0000
E1C0
6180
7380
7380
3300
3B00
1F00
1E00
1E00
0C00
0C00
0C00
1800
7800
7000
ENDCHAR
STARTCHAR uni04F4
ENCODING 1268
SWIDTH 691 0
DWIDTH 14 0
BBX 11 17 1 0
BITMAP
1980
1980
0000
E060
E060
E060
E060
E060
E060
7060
7FE0
1FE0
0060
0060
0060
0060
0060
ENDCHAR
STARTCHAR uni04F5
ENCODING 1269
SWIDTH 549 0
DWIDTH 11 0
BBX 9 14 1 0
BITMAP
6300
6700
0000
C380
C380
C380
C380
E380
7F80
3F80
0380
0380
0380
0380
ENDCHAR
STARTCHAR uni04F6
ENCODING 1270
SWIDTH 557 0
DWIDTH 11 0
BBX 9 17 2 -3
BITMAP
FF80
FF80
C000
C000
C000
C000
C000
C000
C000
C000
C000
C000
F000
F000
7000
7000
7000
ENDCHAR
STARTCHAR uni04F7
ENCODING 1271
SWIDTH 418 0
DWIDTH 8 0
BBX 7 14 1 -3
BITMAP
FE
FE
E0
E0
E0
E0
E0
E0
E0
F8
F8
38
38
38
ENDCHAR
STARTCHAR uni04F8
ENCODING 1272
SWIDTH 871 0
DWIDTH 17 0
BBX 14 17 2 0
BITMAP
1CC0
1CC0
0000
C01C
C01C
C01C
C01C
C01C
FF1C
FF9C
C1DC
C0DC
C0DC
C0DC
C1DC
FF9C
FF1C
ENDCHAR
STARTCHAR uni04F9
ENCODING 1273
SWIDTH 804 0
DWIDTH 16 0
BBX 13 14 1 0
BITMAP
0CC0
0CC0
0000
E018
E018
E018
FE18
FF98
E398
E198
E198
E398
FF98
FE18
ENDCHAR
STARTCHAR uni04FA
ENCODING 1274
SWIDTH 597 0
DWIDTH 12 0
BBX 11 18 0 -4
BITMAP
3FE0
3FE0
3800
3800
3800
3800
FE00
FE00
3800
3800
3800
3800
3E00
3E00
0E00
0E00
3C00
3800
ENDCHAR
STARTCHAR uni04FB
ENCODING 1275
SWIDTH 460 0
DWIDTH 9 0
BBX 9 15 0 -4
BITMAP
3F80
3F80
3000
3000
FE00
FE00
3000
3000
3000
3C00
3C00
0C00
0C00
3C00
3800
ENDCHAR
STARTCHAR uni04FC
ENCODING 1276
SWIDTH 675 0
DWIDTH 14 0
BBX 13 18 0 -4
BITMAP
F070
70E0
38E0
19C0
1D80
0F80
0700
0F00
0F80
1D80
19C0
38E0
7078
7078
8018
0018
0078
0070
ENDCHAR
STARTCHAR uni04FD
ENCODING 1277
SWIDTH 556 0
DWIDTH 11 0
BBX 11 15 0 -4
BITMAP
E1C0
7380
3300
3F00
1E00
0C00
1E00
3F00
3300
73E0
61E0
80E0
00E0
03C0
0380
ENDCHAR
STARTCHAR uni04FE
ENCODING 1278
SWIDTH 632 0
DWIDTH 13 0
BBX 12 14 0 0
BITMAP
F070
70E0
38E0
19C0
1D80
0F80
1FC0
1FC0
0F80
1D80
19C0
38E0
7060
F070
ENDCHAR
STARTCHAR uni04FF
ENCODING 1279
SWIDTH 502 0
DWIDTH 10 0
BBX 10 11 0 0
BITMAP
E1C0
7380
3300
1E00
3F00
3F00
1E00
3F00
3300
7380
E1C0
ENDCHAR
STARTCHAR uni0500
ENCODING 1280
SWIDTH 628 0
DWIDTH 13 0
BBX 10 14 1 0
BITMAP
00C0
00C0
00C0
00C0
00C0
1FC0
7FC0
E0C0
E0C0
C0C0
E0C0
E0C0
7FC0
1FC0
ENDCHAR
STARTCHAR uni0501
ENCODING 1281
SWIDTH 564 0
DWIDTH 11 0
BBX 9 15 1 0
BITMAP
0180
0180
0180
0180
3D80
7F80
E380
C180
C180
C180
C180
C180
E380
7F80
3D80
ENDCHAR
STARTCHAR uni0502
ENCODING 1282
SWIDTH 867 0
DWIDTH 17 0
BBX 16 14 1 0
BITMAP
00C0
00C0
00C0
00C0
00C0
3FC0
7FCE
E0C6
C0C6
C0C7
C0C6
E0CE
7FFE
3FF8
ENDCHAR
STARTCHAR uni0503
ENCODING 1283
SWIDTH 857 0
DWIDTH 17 0
BBX 15 15 1 0
BITMAP
0180
0180
0180
0180
3D80
7F80
E38E
E186
C186
C186
C186
C18E
E38C
7FFC
3CF8
ENDCHAR
STARTCHAR uni0504
ENCODING 1284
SWIDTH 790 0
DWIDTH 16 0
BBX 14 14 1 0
BITMAP
FC00
FE00
0700
0300
0300
0718
7E1C
7E1C
071C
031C
031C
0338
03F8
01E0
ENDCHAR
STARTCHAR uni0505
ENCODING 1285
SWIDTH 644 0
DWIDTH 13 0
BBX 13 11 0 0
BITMAP
FC00
7E00
0600
0630
0630
7C30
7E38
0730
0770
07F0
03C0
ENDCHAR
STARTCHAR uni0506
ENCODING 1286
SWIDTH 560 0
DWIDTH 11 0
BBX 9 17 1 -3
BITMAP
F800
FE00
0E00
0600
0600
0E00
FC00
FC00
0E00
0600
0600
0600
0780
0780
0180
0180
0300
ENDCHAR
STARTCHAR uni0507
ENCODING 1287
SWIDTH 530 0
DWIDTH 11 0
BBX 9 14 1 -3
BITMAP
FC00
FE00
0600
0700
0600
7E00
7E00
0600
0700
0780
0780
0180
0180
0300
ENDCHAR
STARTCHAR uni0508
ENCODING 1288
SWIDTH 967 0
DWIDTH 19 0
BBX 19 14 0 0
BITMAP
1FF000
1FF000
1C3000
1C3000
1C3000
1C31C0
1C30C0
1C30C0
1C30E0
1830E0
1830C0
3839C0
F03F80
E01F00
ENDCHAR
STARTCHAR uni0509
ENCODING 1289
SWIDTH 826 0
DWIDTH 17 0
BBX 15 11 1 0
BITMAP
3F80
3F80
318E
318E
3186
3186
3186
318E
71CE
E1FC
C078
ENDCHAR
STARTCHAR uni050A
ENCODING 1290
SWIDTH 998 0
DWIDTH 20 0
BBX 18 14 1 0
BITMAP
E07000
E07000
E07000
E07000
E07000
E07180
FFF1C0
FFF1C0
E071C0
E071C0
E071C0
E07380
E03F80
E01E00
ENDCHAR
STARTCHAR uni050B
ENCODING 1291
SWIDTH 827 0
DWIDTH 17 0
BBX 15 11 1 0
BITMAP
E180
E180
E18E
E18E
FF86
FF86
E186
E186
E1CE
E0FC
E078
ENDCHAR
STARTCHAR uni050C
ENCODING 1292
SWIDTH 626 0
DWIDTH 13 0
BBX 11 14 1 0
BITMAP
0F80
3FC0
7080
6000
E000
E000
E0E0
E0E0
E060
E060
60E0
70E0
3FC0
0F80
ENDCHAR
STARTCHAR uni050D
ENCODING 1293
SWIDTH 521 0
DWIDTH 10 0
BBX 9 11 1 0
BITMAP
3E00
7E00
E200
C000
C000
C000
C300
C300
E380
7F00
3E00
ENDCHAR
STARTCHAR uni050E
ENCODING 1294
SWIDTH 708 0
DWIDTH 14 0
BBX 13 14 0 0
BITMAP
FFF0
FFF0
0600
0600
0600
0638
0618
0618
0618
0618
0618
0638
07F0
03E0
ENDCHAR
STARTCHAR uni050F
ENCODING 1295
SWIDTH 639 0
DWIDTH 13 0
BBX 11 11 1 0
BITMAP
FF80
FF80
1800
1800
18E0
1860
1860
1860
1CE0
0FC0
0780
ENDCHAR
STARTCHAR uni0510
ENCODING 1296
SWIDTH 666 0
DWIDTH 13 0
BBX 11 14 1 0
BITMAP
1F80
7FC0
E0E0
E000
6000
3F00
3F00
7000
E000
E000
E060
70E0
7FC0
1F80
ENDCHAR
STARTCHAR uni0511
ENCODING 1297
SWIDTH 546 0
DWIDTH 11 0
BBX 9 11 1 0
BITMAP
3E00
7F00
E380
E000
7C00
7C00
E000
C180
E380
7F00
3E00
ENDCHAR
STARTCHAR uni0512
ENCODING 1298
SWIDTH 785 0
DWIDTH 16 0
BBX 15 18 0 -4
BITMAP
1FF8
1FF8
1C38
1C38
1C38
1C38
1C38
1838
1838
1838
1838
3838
F03E
E03E
000E
000E
003C
0038
ENDCHAR
STARTCHAR uni0513
ENCODING 1299
SWIDTH 655 0
DWIDTH 13 0
BBX 11 15 1 -4
BITMAP
3F80
3F80
3180
3180
3180
3180
7180
7180
6180
E1E0
C1E0
0060
0060
01E0
01C0
ENDCHAR
STARTCHAR uni1E00
ENCODING 7680
SWIDTH 665 0
DWIDTH 13 0
BBX 13 18 0 -4
BITMAP
0700
0700
0780
0D80
0D80
1CC0
18C0
18E0
3860
3FE0
3FF0
7030
6038
E038
0000
0700
0500
0780
ENDCHAR
STARTCHAR uni1E01
ENCODING 7681
SWIDTH 541 0
DWIDTH 11 0
BBX 9 15 1 -4
BITMAP
3E00
7F00
E300
0380
3F80
7F80
E380
C380
E380
7F80
3B80
0000
3800
2800
3C00
ENDCHAR
STARTCHAR uni1E3E
ENCODING 7742
SWIDTH 875 0
DWIDTH 18 0
BBX 15 18 1 0
BITMAP
00E0
01C0
0380
0000
F00E
F01E
F81E
F81E
F836
EC36
EC76
EE66
E666
E6C6
E7C6
E3C6
E386
E186
ENDCHAR
STARTCHAR uni1E3F
ENCODING 7743
SWIDTH 870 0
DWIDTH 17 0
BBX 15 15 1 0
BITMAP
00E0
01C0
0180
0000
DE7C
FFFC
E38E
C386
C386
C386
C386
C386
C386
C386
C386
ENDCHAR
STARTCHAR Wgrave
ENCODING 7808
SWIDTH 879 0
DWIDTH 18 0
BBX 16 18 1 0
BITMAP
0700
0300
0180
0000
C183
C183
E3C7
E3C7
63C6
6366
6666
766E
366C
363C
3C3C
3C3C
1C3C
1818
ENDCHAR
STARTCHAR wgrave
ENCODING 7809
SWIDTH 743 0
DWIDTH 15 0
BBX 15 15 0 0
BITMAP
0E00
0700
0380
0000
E38E
638C
638C
639C
36D8
36D8
36D8
3C78
1C70
1C70
1830
ENDCHAR
STARTCHAR Wacute
ENCODING 7810
SWIDTH 879 0
DWIDTH 18 0
BBX 16 18 1 0
BITMAP
00E0
01C0
0180
0000
C183
C183
E3C7
E3C7
63C6
6366
6666
766E
366C
363C
3C3C
3C3C
1C3C
1818
ENDCHAR
STARTCHAR wacute
ENCODING 7811
SWIDTH 743 0
DWIDTH 15 0
BBX 15 15 0 0
BITMAP
00E0
0180
0380
0000
E38E
638C
638C
639C
36D8
36D8
36D8
3C78
1C70
1C70
1830
ENDCHAR
STARTCHAR Wdieresis
ENCODING 7812
SWIDTH 879 0
DWIDTH 18 0
BBX 16 17 1 0
BITMAP
0660
0E60
0000
C183
C183
E3C7
E3C7
63C6
6366
6666
766E
366C
363C
3C3C
3C3C
1C3C
1818
ENDCHAR
STARTCHAR wdieresis
ENCODING 7813
SWIDTH 743 0
DWIDTH 15 0
BBX 15 14 0 0
BITMAP
0C60
0CE0
0000
E38E
638C
638C
639C
36D8
36D8
36D8
3C78
1C70
1C70
1830
ENDCHAR
STARTCHAR uni1EA0
ENCODING 7840
SWIDTH 665 0
DWIDTH 13 0
BBX 13 17 0 -3
BITMAP
0700
0700
0780
0D80
0D80
1CC0
18C0
18E0
3860
3FE0
3FF0
7030
6038
E038
0000
0300
0700
ENDCHAR
STARTCHAR uni1EA1
ENCODING 7841
SWIDTH 541 0
DWIDTH 11 0
BBX 9 14 1 -3
BITMAP
3E00
7F00
E300
0380
3F80
7F80
E380
C380
E380
7F80
3B80
0000
1800
3800
ENDCHAR
STARTCHAR uni1EA2
ENCODING 7842
SWIDTH 665 0
DWIDTH 13 0
BBX 13 19 0 0
BITMAP
0300
0180
0380
0300
0000
0700
0700
0780
0D80
0D80
1CC0
18C0
18E0
3860
3FE0
3FF0
7030
6038
E038
ENDCHAR
STARTCHAR uni1EA3
ENCODING 7843
SWIDTH 541 0
DWIDTH 11 0
BBX 9 16 1 0
BITMAP
0C00
1600
0E00
0800
0000
3E00
7F00
E300
0380
3F80
7F80
E380
C380
E380
7F80
3B80
ENDCHAR
STARTCHAR uni1EA4
ENCODING 7844
SWIDTH 665 0
DWIDTH 13 0
BBX 13 20 0 0
BITMAP
0018
0030
0020
0700
1CC0
0000
0700
0700
0780
0D80
0D80
1CC0
18C0
18E0
3860
3FE0
3FF0
7030
6038
E038
ENDCHAR
STARTCHAR uni1EA5
ENCODING 7845
SWIDTH 541 0
DWIDTH 11 0
BBX 11 17 1 0
BITMAP
0060
00C0
0180
1C00
7700
0000
3E00
7F00
E300
0380
3F80
7F80
E380
C380
E380
7F80
3B80
ENDCHAR
STARTCHAR uni1EA6
ENCODING 7846
SWIDTH 665 0
DWIDTH 13 0
BBX 13 20 0 0
BITMAP
E000
6000
3000
0700
1CC0
0000
0700
0700
0780
0D80
0D80
1CC0
18C0
18E0
3860
3FE0
3FF0
7030
6038
E038
ENDCHAR
STARTCHAR uni1EA7
ENCODING 7847
SWIDTH 541 0
DWIDTH 11 0
BBX 11 17 -1 0
BITMAP
C000
6000
3000
0700
1DC0
0000
0F80
1FC0
38C0
00E0
0FE0
1FE0
38E0
30E0
38E0
1FE0
0EE0
ENDCHAR
STARTCHAR uni1EA8
ENCODING 7848
SWIDTH 665 0
DWIDTH 13 0
BBX 13 19 0 0
BITMAP
0070
0030
07E0
1CC0
0000
0700
0700
0780
0D80
0D80
1CC0
18C0
18E0
3860
3FE0
3FF0
7030
6038
E038
ENDCHAR
STARTCHAR uni1EA9
ENCODING 7849
SWIDTH 541 0
DWIDTH 11 0
BBX 10 16 1 0
BITMAP
0180
00C0
1D80
6300
0000
3E00
7F00
E300
0380
3F80
7F80
E380
C380
E380
7F80
3B80
ENDCHAR
STARTCHAR uni1EAA
ENCODING 7850
SWIDTH 665 0
DWIDTH 13 0
BBX 13 20 0 0
BITMAP
0680
0980
0000
0700
1CC0
0000
0700
0700
0780
0D80
0D80
1CC0
18C0
18E0
3860
3FE0
3FF0
7030
6038
E038
ENDCHAR
STARTCHAR uni1EAB
ENCODING 7851
SWIDTH 541 0
DWIDTH 11 0
BBX 9 17 1 0
BITMAP
3A00
2600
0000
1C00
7300
0000
3E00
7F00
E300
0380
3F80
7F80
E380
C380
E380
7F80
3B80
ENDCHAR
STARTCHAR uni1EAC
ENCODING 7852
SWIDTH 665 0
DWIDTH 13 0
BBX 13 21 0 -3
BITMAP
0700
0F80
1CC0
0000
0700
0700
0780
0D80
0D80
1CC0
18C0
18E0
3860
3FE0
3FF0
7030
6038
E038
0000
0300
0700
ENDCHAR
STARTCHAR uni1EAD
ENCODING 7853
SWIDTH 541 0
DWIDTH 11 0
BBX 9 18 1 -3
BITMAP
1C00
3600
7300
0000
3E00
7F00
E300
0380
3F80
7F80
E380
C380
E380
7F80
3B80
0000
1800
3800
ENDCHAR
STARTCHAR uni1EAE
ENCODING 7854
SWIDTH 665 0
DWIDTH 13 0
BBX 13 19 0 0
BITMAP
0180
0300
18C0
0F80
0000
0700
0700
0780
0D80
0D80
1CC0
18C0
18E0
3860
3FE0
3FF0
7030
6038
E038
ENDCHAR
STARTCHAR uni1EAF
ENCODING 7855
SWIDTH 541 0
DWIDTH 11 0
BBX 9 16 1 0
BITMAP
0600
0C00
6300
3E00
0000
3E00
7F00
E300
0380
3F80
7F80
E380
C380
E380
7F80
3B80
ENDCHAR
STARTCHAR uni1EB0
ENCODING 7856
SWIDTH 665 0
DWIDTH 13 0
BBX 13 19 0 0
BITMAP
0600
0200
18C0
0F80
0000
0700
0700
0780
0D80
0D80
1CC0
18C0
18E0
3860
3FE0
3FF0
7030
6038
E038
ENDCHAR
STARTCHAR uni1EB1
ENCODING 7857
SWIDTH 541 0
DWIDTH 11 0
BBX 9 16 1 0
BITMAP
3800
0800
6300
3E00
0000
3E00
7F00
E300
0380
3F80
7F80
E380
C380
E380
7F80
3B80
ENDCHAR
STARTCHAR uni1EB2
ENCODING 7858
SWIDTH 665 0
DWIDTH 13 0
BBX 13 20 0 0
BITMAP
0300
0180
0200
18C0
0F80
0000
0700
0700
0780
0D80
0D80
1CC0
18C0
18E0
3860
3FE0
3FF0
7030
6038
E038
ENDCHAR
STARTCHAR uni1EB3
ENCODING 7859
SWIDTH 541 0
DWIDTH 11 0
BBX 9 17 1 0
BITMAP
0C00
0600
0800
6300
3E00
0000
3E00
7F00
E300
0380
3F80
7F80
E380
C380
E380
7F80
3B80
ENDCHAR
STARTCHAR uni1EB4
ENCODING 7860
SWIDTH 665 0
DWIDTH 13 0
BBX 13 20 0 0
BITMAP
0E80
0980
0000
18C0
0F80
0000
0700
0700
0780
0D80
0D80
1CC0
18C0
18E0
3860
3FE0
3FF0
7030
6038
E038
ENDCHAR
STARTCHAR uni1EB5
ENCODING 7861
SWIDTH 541 0
DWIDTH 11 0
BBX 9 17 1 0
BITMAP
3200
2E00
0000
6300
3E00
0000
3E00
7F00
E300
0380
3F80
7F80
E380
C380
E380
7F80
3B80
ENDCHAR
STARTCHAR uni1EB6
ENCODING 7862
SWIDTH 665 0
DWIDTH 13 0
BBX 13 21 0 -3
BITMAP
08C0
0CC0
0780
0000
0700
0700
0780
0D80
0D80
1CC0
18C0
18E0
3860
3FE0
3FF0
7030
6038
E038
0000
0300
0700
ENDCHAR
STARTCHAR uni1EB7
ENCODING 7863
SWIDTH 541 0
DWIDTH 11 0
BBX 9 18 1 -3
BITMAP
6300
3200
1C00
0000
3E00
7F00
E300
0380
3F80
7F80
E380
C380
E380
7F80
3B80
0000
1800
3800
ENDCHAR
STARTCHAR uni1EB8
ENCODING 7864
SWIDTH 565 0
DWIDTH 11 0
BBX 10 17 1 -3
BITMAP
FFC0
FFC0
E000
E000
E000
E000
FF80
FF80
E000
E000
E000
E000
FFC0
FFC0
0000
0C00
0C00
ENDCHAR
STARTCHAR uni1EB9
ENCODING 7865
SWIDTH 536 0
DWIDTH 11 0
BBX 9 14 1 -3
BITMAP
1E00
7F00
6380
C180
FF80
FF80
C000
E000
7180
7F80
1E00
0000
1C00
1C00
ENDCHAR
STARTCHAR uni1EBA
ENCODING 7866
SWIDTH 565 0
DWIDTH 11 0
BBX 10 19 1 0
BITMAP
0E00
0600
0E00
0C00
0000
FFC0
FFC0
E000
E000
E000
E000
FF80
FF80
E000
E000
E000
E000
FFC0
FFC0
ENDCHAR
STARTCHAR uni1EBB
ENCODING 7867
SWIDTH 536 0
DWIDTH 11 0
BBX 9 16 1 0
BITMAP
1C00
0600
1E00
0800
0000
1E00
7F00
6380
C180
FF80
FF80
C000
E000
7180
7F80
1E00
ENDCHAR
STARTCHAR uni1EBC
ENCODING 7868
SWIDTH 565 0
DWIDTH 11 0
BBX 10 18 1 0
BITMAP
3980
3F00
2700
0000
FFC0
FFC0
E000
E000
E000
E000
FF80
FF80
E000
E000
E000
E000
FFC0
FFC0
ENDCHAR
STARTCHAR uni1EBD
ENCODING 7869
SWIDTH 536 0
DWIDTH 11 0
BBX 9 15 1 0
BITMAP
3300
7F00
4E00
0000
1E00
7F00
6380
C180
FF80
FF80
C000
E000
7180
7F80
1E00
ENDCHAR
STARTCHAR uni1EBE
ENCODING 7870
SWIDTH 565 0
DWIDTH 11 0
BBX 12 20 1 0
BITMAP
0070
0060
00C0
1E00
7380
0000
FFC0
FFC0
E000
E000
E000
E000
FF80
FF80
E000
E000
E000
E000
FFC0
FFC0
ENDCHAR
STARTCHAR uni1EBF
ENCODING 7871
SWIDTH 536 0
DWIDTH 11 0
BBX 11 17 1 0
BITMAP
00E0
00C0
0180
1C00
7700
0000
1E00
7F00
6380
C180
FF80
FF80
C000
E000
7180
7F80
1E00
ENDCHAR
STARTCHAR uni1EC0
ENCODING 7872
SWIDTH 565 0
DWIDTH 11 0
BBX 11 20 0 0
BITMAP
C000
6000
6000
0F00
39C0
0000
7FE0
7FE0
7000
7000
7000
7000
7FC0
7FC0
7000
7000
7000
7000
7FE0
7FE0
ENDCHAR
STARTCHAR uni1EC1
ENCODING 7873
SWIDTH 536 0
DWIDTH 11 0
BBX 11 17 -1 0
BITMAP
C000
6000
3000
0700
1DC0
0000
0780
1FC0
18E0
3060
3FE0
3FE0
3000
3800
1C60
1FE0
0780
ENDCHAR
STARTCHAR uni1EC2
ENCODING 7874
SWIDTH 565 0
DWIDTH 11 0
BBX 10 19 1 0
BITMAP
00C0
0040
1E80
7380
0000
FFC0
FFC0
E000
E000
E000
E000
FF80
FF80
E000
E000
E000
E000
FFC0
FFC0
ENDCHAR
STARTCHAR uni1EC3
ENCODING 7875
SWIDTH 536 0
DWIDTH 11 0
BBX 10 16 1 0
BITMAP
0180
00C0
1D80
6700
0000
1E00
7F00
6380
C180
FF80
FF80
C000
E000
7180
7F80
1E00
ENDCHAR
STARTCHAR uni1EC4
ENCODING 7876
SWIDTH 565 0
DWIDTH 11 0
BBX 10 20 1 0
BITMAP
1900
1600
0000
1E00
7380
0000
FFC0
FFC0
E000
E000
E000
E000
FF80
FF80
E000
E000
E000
E000
FFC0
FFC0
ENDCHAR
STARTCHAR uni1EC5
ENCODING 7877
SWIDTH 536 0
DWIDTH 11 0
BBX 9 17 1 0
BITMAP
3200
2C00
0000
1C00
6700
0000
1E00
7F00
6380
C180
FF80
FF80
C000
E000
7180
7F80
1E00
ENDCHAR
STARTCHAR uni1EC6
ENCODING 7878
SWIDTH 565 0
DWIDTH 11 0
BBX 10 21 1 -3
BITMAP
0C00
1E00
3300
0000
FFC0
FFC0
E000
E000
E000
E000
FF80
FF80
E000
E000
E000
E000
FFC0
FFC0
0000
0C00
0C00
ENDCHAR
STARTCHAR uni1EC7
ENCODING 7879
SWIDTH 536 0
DWIDTH 11 0
BBX 9 18 1 -3
BITMAP
1C00
3600
6700
0000
1E00
7F00
6380
C180
FF80
FF80
C000
E000
7180
7F80
1E00
0000
1C00
1C00
ENDCHAR
STARTCHAR uni1EC8
ENCODING 7880
SWIDTH 282 0
DWIDTH 6 0
BBX 3 19 2 0
BITMAP
C0
60
E0
C0
00
C0
C0
C0
C0
C0
C0
C0
C0
C0
C0
C0
C0
C0
C0
ENDCHAR
STARTCHAR uni1EC9
ENCODING 7881
SWIDTH 262 0
DWIDTH 5 0
BBX 4 16 1 0
BITMAP
60
30
70
60
00
E0
E0
E0
E0
E0
E0
E0
E0
E0
E0
E0
ENDCHAR
STARTCHAR uni1ECA
ENCODING 7882
SWIDTH 282 0
DWIDTH 6 0
BBX 3 17 1 -3
BITMAP
60
60
60
60
60
60
60
60
60
60
60
60
60
60
00
60
E0
ENDCHAR
STARTCHAR uni1ECB
ENCODING 7883
SWIDTH 255 0
DWIDTH 5 0
BBX 3 19 1 -3
BITMAP
E0
E0
E0
00
00
E0
E0
E0
E0
E0
E0
E0
E0
E0
E0
E0
00
E0
E0
ENDCHAR
STARTCHAR uni1ECC
ENCODING 7884
SWIDTH 690 0
DWIDTH 14 0
BBX 12 17 1 -3
BITMAP
0F00
3FC0
70E0
6060
E070
E070
E070
E070
E070
E070
6060
70E0
3FC0
0F00
0000
0600
0600
ENDCHAR
STARTCHAR uni1ECD
ENCODING 7885
SWIDTH 569 0
DWIDTH 11 0
BBX 9 14 1 -3
BITMAP
3E00
7F00
E380
C180
C180
C180
C180
C180
E380
7F00
3E00
0000
1C00
1C00
ENDCHAR
STARTCHAR uni1ECE
ENCODING 7886
SWIDTH 690 0
DWIDTH 14 0
BBX 12 19 1 0
BITMAP
0600
0300
0700
0600
0000
0F00
3FC0
70E0
6060
E070
E070
E070
E070
E070
E070
6060
70E0
3FC0
0F00
ENDCHAR
STARTCHAR uni1ECF
ENCODING 7887
SWIDTH 569 0
DWIDTH 11 0
BBX 9 16 1 0
BITMAP
0C00
0600
0E00
0C00
0000
3E00
7F00
E380
C180
C180
C180
C180
C180
E380
7F00
3E00
ENDCHAR
STARTCHAR uni1ED0
ENCODING 7888
SWIDTH 690 0
DWIDTH 14 0
BBX 12 20 1 0
BITMAP
0030
0060
0060
0F00
39C0
0000
0F00
3FC0
70E0
6060
E070
E070
E070
E070
E070
E070
6060
70E0
3FC0
0F00
ENDCHAR
STARTCHAR uni1ED1
ENCODING 7889
SWIDTH 569 0
DWIDTH 11 0
BBX 11 17 1 0
BITMAP
0060
00C0
0080
1C00
7700
0000
3E00
7F00
E380
C180
C180
C180
C180
C180
E380
7F00
3E00
ENDCHAR
STARTCHAR uni1ED2
ENCODING 7890
SWIDTH 690 0
DWIDTH 14 0
BBX 13 20 0 0
BITMAP
E000
6000
3000
0780
1CE0
0000
0780
1FE0
3870
3030
7038
7038
7038
7038
7038
7038
3030
3870
1FE0
0780
ENDCHAR
STARTCHAR uni1ED3
ENCODING 7891
SWIDTH 569 0
DWIDTH 11 0
BBX 11 17 -1 0
BITMAP
E000
6000
3000
0700
1DC0
0000
0F80
1FC0
38E0
3060
3060
3060
3060
3060
38E0
1FC0
0F80
ENDCHAR
STARTCHAR uni1ED4
ENCODING 7892
SWIDTH 690 0
DWIDTH 14 0
BBX 12 19 1 0
BITMAP
00E0
0020
0F40
39C0
0000
0F00
3FC0
70E0
6060
E070
E070
E070
E070
E070
E070
6060
70E0
3FC0
0F00
ENDCHAR
STARTCHAR uni1ED5
ENCODING 7893
SWIDTH 569 0
DWIDTH 11 0
BBX 10 16 1 0
BITMAP
0180
00C0
1D80
7300
0000
3E00
7F00
E380
C180
C180
C180
C180
C180
E380
7F00
3E00
ENDCHAR
STARTCHAR uni1ED6
ENCODING 7894
SWIDTH 690 0
DWIDTH 14 0
BBX 12 20 1 0
BITMAP
0D00
1300
0000
0F00
39C0
0000
0F00
3FC0
70E0
6060
E070
E070
E070
E070
E070
E070
6060
70E0
3FC0
0F00
ENDCHAR
STARTCHAR uni1ED7
ENCODING 7895
SWIDTH 569 0
DWIDTH 11 0
BBX 9 17 1 0
BITMAP
1A00
2600
0000
1C00
7300
0000
3E00
7F00
E380
C180
C180
C180
C180
C180
E380
7F00
3E00
ENDCHAR
STARTCHAR uni1ED8
ENCODING 7896
SWIDTH 690 0
DWIDTH 14 0
BBX 12 21 1 -3
BITMAP
0600
0F00
1980
0000
0F00
3FC0
70E0
6060
E070
E070
E070
E070
E070
E070
6060
70E0
3FC0
0F00
0000
0600
0600
ENDCHAR
STARTCHAR uni1ED9
ENCODING 7897
SWIDTH 569 0
DWIDTH 11 0
BBX 9 18 1 -3
BITMAP
1C00
3E00
7300
0000
3E00
7F00
E380
C180
C180
C180
C180
C180
E380
7F00
3E00
0000
1C00
1C00
ENDCHAR
STARTCHAR uni1EDA
ENCODING 7898
SWIDTH 692 0
DWIDTH 14 0
BBX 13 18 1 0
BITMAP
0380
0700
0600
0018
1F18
3F98
70F0
6060
E060
C070
C070
C070
C070
E070
6060
70E0
3FC0
1F00
ENDCHAR
STARTCHAR uni1EDB
ENCODING 7899
SWIDTH 577 0
DWIDTH 12 0
BBX 11 15 1 0
BITMAP
0700
0E00
1C00
0060
1F60
7FC0
6380
E1C0
C1C0
C1C0
C1C0
E180
6380
7F00
1E00
ENDCHAR
STARTCHAR uni1EDC
ENCODING 7900
SWIDTH 692 0
DWIDTH 14 0
BBX 13 18 1 0
BITMAP
3C00
0C00
0600
0018
1F18
3F98
70F0
6060
E060
C070
C070
C070
C070
E070
6060
70E0
3FC0
1F00
ENDCHAR
STARTCHAR uni1EDD
ENCODING 7901
SWIDTH 577 0
DWIDTH 12 0
BBX 11 15 1 0
BITMAP
7000
1800
1C00
0060
1F60
7FC0
6380
E1C0
C1C0
C1C0
C1C0
E180
6380
7F00
1E00
ENDCHAR
STARTCHAR uni1EDE
ENCODING 7902
SWIDTH 692 0
DWIDTH 14 0
BBX 13 19 1 0
BITMAP
0600
0300
0700
0600
0018
1F18
3F98
70F0
6060
E060
C070
C070
C070
C070
E070
6060
70E0
3FC0
1F00
ENDCHAR
STARTCHAR uni1EDF
ENCODING 7903
SWIDTH 577 0
DWIDTH 12 0
BBX 11 16 1 0
BITMAP
0C00
0600
0E00
0C00
0060
1F60
7FC0
6380
E1C0
C1C0
C1C0
C1C0
E180
6380
7F00
1E00
ENDCHAR
STARTCHAR uni1EE0
ENCODING 7904
SWIDTH 692 0
DWIDTH 14 0
BBX 13 18 1 0
BITMAP
1C80
1F80
3380
0018
1F18
3F98
70F0
6060
E060
C070
C070
C070
C070
E070
6060
70E0
3FC0
1F00
ENDCHAR
STARTCHAR uni1EE1
ENCODING 7905
SWIDTH 577 0
DWIDTH 12 0
BBX 11 15 1 0
BITMAP
3900
7F00
6600
0060
1F60
7FC0
6380
E1C0
C1C0
C1C0
C1C0
E180
6380
7F00
1E00
ENDCHAR
STARTCHAR uni1EE2
ENCODING 7906
SWIDTH 692 0
DWIDTH 14 0
BBX 13 18 1 -3
BITMAP
0018
1F18
3F98
70F0
6060
E060
C070
C070
C070
C070
E070
6060
70E0
3FC0
1F00
0000
0E00
0E00
ENDCHAR
STARTCHAR uni1EE3
ENCODING 7907
SWIDTH 577 0
DWIDTH 12 0
BBX 11 15 1 -3
BITMAP
0060
1F60
7FC0
6380
E1C0
C1C0
C1C0
C1C0
E180
6380
7F00
1E00
0000
1C00
1C00
ENDCHAR
STARTCHAR uni1EE4
ENCODING 7908
SWIDTH 651 0
DWIDTH 13 0
BBX 11 17 1 -3
BITMAP
E0E0
E0E0
E0E0
E0E0
E0E0
E0E0
E0E0
E0E0
E0E0
E0E0
E0E0
71C0
7FC0
1F00
0000
0E00
0E00
ENDCHAR
STARTCHAR uni1EE5
ENCODING 7909
SWIDTH 555 0
DWIDTH 11 0
BBX 9 14 1 -3
BITMAP
C380
C380
C380
C380
C380
C380
C380
E380
E380
7F80
3D80
0000
1800
3800
ENDCHAR
STARTCHAR uni1EE6
ENCODING 7910
SWIDTH 651 0
DWIDTH 13 0
BBX 11 19 1 0
BITMAP
0600
0B00
0700
0400
0000
E0E0
E0E0
E0E0
E0E0
E0E0
E0E0
E0E0
E0E0
E0E0
E0E0
E0E0
71C0
7FC0
1F00
ENDCHAR
STARTCHAR uni1EE7
ENCODING 7911
SWIDTH 555 0
DWIDTH 11 0
BBX 9 16 1 0
BITMAP
0C00
0600
0E00
0800
0000
C380
C380
C380
C380
C380
C380
C380
E380
E380
7F80
3D80
ENDCHAR
STARTCHAR uni1EE8
ENCODING 7912
SWIDTH 705 0
DWIDTH 14 0
BBX 15 18 1 0
BITMAP
0380
0700
0600
0006
E0E4
E0EC
E0F8
E0E0
E0E0
E0E0
E0E0
E0E0
E0E0
E0E0
E0E0
71C0
7FC0
1F00
ENDCHAR
STARTCHAR uni1EE9
ENCODING 7913
SWIDTH 618 0
DWIDTH 12 0
BBX 12 15 1 0
BITMAP
0700
0E00
1C00
0030
C3A0
C3E0
C380
C380
C380
C380
C380
C380
E380
7F80
7F80
ENDCHAR
STARTCHAR uni1EEA
ENCODING 7914
SWIDTH 705 0
DWIDTH 14 0
BBX 15 18 1 0
BITMAP
1C00
0C00
0600
0006
E0E4
E0EC
E0F8
E0E0
E0E0
E0E0
E0E0
E0E0
E0E0
E0E0
E0E0
71C0
7FC0
1F00
ENDCHAR
STARTCHAR uni1EEB
ENCODING 7915
SWIDTH 618 0
DWIDTH 12 0
BBX 12 15 1 0
BITMAP
7000
1800
1C00
0030
C3A0
C3E0
C380
C380
C380
C380
C380
C380
E380
7F80
7F80
ENDCHAR
STARTCHAR uni1EEC
ENCODING 7916
SWIDTH 705 0
DWIDTH 14 0
BBX 15 19 1 0
BITMAP
0600
0300
0700
0600
0006
E0E4
E0EC
E0F8
E0E0
E0E0
E0E0
E0E0
E0E0
E0E0
E0E0
E0E0
71C0
7FC0
1F00
ENDCHAR
STARTCHAR uni1EED
ENCODING 7917
SWIDTH 618 0
DWIDTH 12 0
BBX 12 16 1 0
BITMAP
0C00
0600
0E00
0C00
0030
C3A0
C3E0
C380
C380
C380
C380
C380
C380
E380
7F80
7F80
ENDCHAR
STARTCHAR uni1EEE
ENCODING 7918
SWIDTH 705 0
DWIDTH 14 0
BBX 15 18 1 0
BITMAP
1C80
1F80
3380
0006
E0E4
E0EC
E0F8
E0E0
E0E0
E0E0
E0E0
E0E0
E0E0
E0E0
E0E0
71C0
7FC0
1F00
ENDCHAR
STARTCHAR uni1EEF
ENCODING 7919
SWIDTH 618 0
DWIDTH 12 0
BBX 12 15 1 0
BITMAP
3900
7F00
6600
0030
C3A0
C3E0
C380
C380
C380
C380
C380
C380
E380
7F80
7F80
ENDCHAR
STARTCHAR uni1EF0
ENCODING 7920
SWIDTH 705 0
DWIDTH 14 0
BBX 15 18 1 -3
BITMAP
0006
E0E4
E0EC
E0F8
E0E0
E0E0
E0E0
E0E0
E0E0
E0E0
E0E0
E0E0
71C0
7FC0
1F00
0000
0600
0600
ENDCHAR
STARTCHAR uni1EF1
ENCODING 7921
SWIDTH 618 0
DWIDTH 12 0
BBX 12 15 1 -3
BITMAP
0030
C3A0
C3E0
C380
C380
C380
C380
C380
C380
E380
7F80
7F80
0000
1C00
1C00
ENDCHAR
STARTCHAR Ygrave
ENCODING 7922
SWIDTH 609 0
DWIDTH 12 0
BBX 12 18 0 0
BITMAP
1C00
0E00
0600
0000
E070
7060
70E0
38C0
39C0
1D80
0F80
0F00
0700
0600
0600
0600
0600
0600
ENDCHAR
STARTCHAR ygrave
ENCODING 7923
SWIDTH 486 0
DWIDTH 10 0
BBX 10 19 0 -4
BITMAP
3800
1800
0C00
0000
E1C0
6180
7380
7380
3300
3B00
1F00
1E00
1E00
0C00
0C00
0C00
1800
7800
7000
ENDCHAR
STARTCHAR uni1EF4
ENCODING 7924
SWIDTH 609 0
DWIDTH 12 0
BBX 12 17 0 -3
BITMAP
E070
7060
70E0
38C0
39C0
1D80
0F80
0F00
0700
0600
0600
0600
0600
0600
0000
0600
0600
ENDCHAR
STARTCHAR uni1EF5
ENCODING 7925
SWIDTH 486 0
DWIDTH 10 0
BBX 10 15 0 -4
BITMAP
E1C0
6180
7380
7380
3300
3B00
1F00
1E00
1E00
0C00
0C00
0C00
1800
7B00
7380
ENDCHAR
STARTCHAR uni1EF6
ENCODING 7926
SWIDTH 609 0
DWIDTH 12 0
BBX 12 19 0 0
BITMAP
0700
0300
0700
0600
0000
E070
7060
70E0
38C0
39C0
1D80
0F80
0F00
0700
0600
0600
0600
0600
0600
ENDCHAR
STARTCHAR uni1EF7
ENCODING 7927
SWIDTH 486 0
DWIDTH 10 0
BBX 10 20 0 -4
BITMAP
0E00
0600
0E00
0C00
0000
E1C0
6180
7380
7380
3300
3B00
1F00
1E00
1E00
0C00
0C00
0C00
1800
7800
7000
ENDCHAR
STARTCHAR uni1EF8
ENCODING 7928
SWIDTH 609 0
DWIDTH 12 0
BBX 12 18 0 0
BITMAP
1CC0
1F80
1380
0000
E070
7060
70E0
38C0
39C0
1D80
0F80
0F00
0700
0600
0600
0600
0600
0600
ENDCHAR
STARTCHAR uni1EF9
ENCODING 7929
SWIDTH 486 0
DWIDTH 10 0
BBX 10 19 0 -4
BITMAP
3980
3F00
6700
0000
E1C0
6180
7380
7380
3300
3B00
1F00
1E00
1E00
0C00
0C00
0C00
1800
7800
7000
ENDCHAR
STARTCHAR uni1F4D
ENCODING 8013
SWIDTH 724 0
DWIDTH 15 0
BBX 19 15 -5 0
BITMAP
CC0000
CC3E00
487F80
70E380
01C1C0
01C0C0
0180E0
0180E0
0180E0
0180E0
01C0C0
01C1C0
00E180
007F80
003E00
ENDCHAR
STARTCHAR uni2000
ENCODING 8192
SWIDTH 509 0
DWIDTH 10 0
BBX 1 1 0 0
BITMAP
00
ENDCHAR
STARTCHAR uni2001
ENCODING 8193
SWIDTH 1020 0
DWIDTH 20 0
BBX 1 1 0 0
BITMAP
00
ENDCHAR
STARTCHAR uni2002
ENCODING 8194
SWIDTH 509 0
DWIDTH 10 0
BBX 1 1 0 0
BITMAP
00
ENDCHAR
STARTCHAR uni2003
ENCODING 8195
SWIDTH 1020 0
DWIDTH 20 0
BBX 1 1 0 0
BITMAP
00
ENDCHAR
STARTCHAR uni2004
ENCODING 8196
SWIDTH 340 0
DWIDTH 7 0
BBX 1 1 0 0
BITMAP
00
ENDCHAR
STARTCHAR uni2005
ENCODING 8197
SWIDTH 254 0
DWIDTH 5 0
BBX 1 1 0 0
BITMAP
00
ENDCHAR
STARTCHAR uni2006
ENCODING 8198
SWIDTH 169 0
DWIDTH 3 0
BBX 1 1 0 0
BITMAP
00
ENDCHAR
STARTCHAR uni2007
ENCODING 8199
SWIDTH 562 0
DWIDTH 11 0
BBX 1 1 0 0
BITMAP
00
ENDCHAR
STARTCHAR uni2008
ENCODING 8200
SWIDTH 273 0
DWIDTH 5 0
BBX 1 1 0 0
BITMAP
00
ENDCHAR
STARTCHAR uni2009
ENCODING 8201
SWIDTH 204 0
DWIDTH 4 0
BBX 1 1 0 0
BITMAP
00
ENDCHAR
STARTCHAR uni200A
ENCODING 8202
SWIDTH 102 0
DWIDTH 2 0
BBX 1 1 0 0
BITMAP
00
ENDCHAR
STARTCHAR uni200B
ENCODING 8203
SWIDTH 0 0
DWIDTH 0 0
BBX 1 1 0 0
BITMAP
00
ENDCHAR
STARTCHAR uni2010
ENCODING 8208
SWIDTH 328 0
DWIDTH 7 0
BBX 5 2 1 5
BITMAP
F8
F8
ENDCHAR
STARTCHAR uni2011
ENCODING 8209
SWIDTH 328 0
DWIDTH 7 0
BBX 5 2 1 5
BITMAP
F8
F8
ENDCHAR
STARTCHAR endash
ENCODING 8211
SWIDTH 645 0
DWIDTH 13 0
BBX 9 2 2 6
BITMAP
FF80
FF80
ENDCHAR
STARTCHAR emdash
ENCODING 8212
SWIDTH 773 0
DWIDTH 15 0
BBX 14 2 1 6
BITMAP
FFFC
FFFC
ENDCHAR
STARTCHAR uni2015
ENCODING 8213
SWIDTH 773 0
DWIDTH 15 0
BBX 14 2 1 6
BITMAP
FFFC
FFFC
ENDCHAR
STARTCHAR underscoredbl
ENCODING 8215
SWIDTH 451 0
DWIDTH 9 0
BBX 9 5 0 -5
BITMAP
FF80
FF80
0000
FF80
FF80
ENDCHAR
STARTCHAR quoteleft
ENCODING 8216
SWIDTH 218 0
DWIDTH 4 0
BBX 3 5 1 10
BITMAP
40
E0
C0
C0
C0
ENDCHAR
STARTCHAR quoteright
ENCODING 8217
SWIDTH 216 0
DWIDTH 4 0
BBX 3 5 0 10
BITMAP
60
60
60
60
C0
ENDCHAR
STARTCHAR quotesinglbase
ENCODING 8218
SWIDTH 225 0
DWIDTH 5 0
BBX 3 5 1 -2
BITMAP
60
60
E0
C0
80
ENDCHAR
STARTCHAR quotereversed
ENCODING 8219
SWIDTH 207 0
DWIDTH 4 0
BBX 3 5 1 10
BITMAP
C0
C0
C0
C0
60
ENDCHAR
STARTCHAR quotedblleft
ENCODING 8220
SWIDTH 384 0
DWIDTH 8 0
BBX 6 5 1 10
BITMAP
4C
EC
D8
D8
D8
ENDCHAR
STARTCHAR quotedblright
ENCODING 8221
SWIDTH 388 0
DWIDTH 8 0
BBX 7 5 0 10
BITMAP
66
66
6E
6C
C8
ENDCHAR
STARTCHAR quotedblbase
ENCODING 8222
SWIDTH 378 0
DWIDTH 8 0
BBX 6 6 1 -3
BITMAP
6C
6C
EC
D8
D8
90
ENDCHAR
STARTCHAR dagger
ENCODING 8224
SWIDTH 545 0
DWIDTH 11 0
BBX 9 14 1 0
BITMAP
1C00
1C00
1C00
FF80
FF80
1C00
1C00
1C00
1C00
1C00
1C00
1C00
1C00
1C00
ENDCHAR
STARTCHAR daggerdbl
ENCODING 8225
SWIDTH 574 0
DWIDTH 12 0
BBX 10 18 1 -4
BITMAP
0C00
0C00
0C00
FFC0
FFC0
0C00
0C00
0C00
0C00
0C00
0C00
0C00
FFC0
FFC0
0C00
0C00
0C00
0C00
ENDCHAR
STARTCHAR bullet
ENCODING 8226
SWIDTH 349 0
DWIDTH 7 0
BBX 5 5 1 5
BITMAP
70
F8
F8
F8
70
ENDCHAR
STARTCHAR twodotenleader
ENCODING 8229
SWIDTH 497 0
DWIDTH 10 0
BBX 7 3 2 0
BITMAP
CC
CE
CC
ENDCHAR
STARTCHAR ellipsis
ENCODING 8230
SWIDTH 706 0
DWIDTH 14 0
BBX 11 3 2 0
BITMAP
CC60
CEE0
CC60
ENDCHAR
STARTCHAR uni2027
ENCODING 8231
SWIDTH 222 0
DWIDTH 4 0
BBX 2 3 1 4
BITMAP
C0
C0
C0
ENDCHAR
STARTCHAR perthousand
ENCODING 8240
SWIDTH 956 0
DWIDTH 19 0
BBX 17 14 1 0
BITMAP
700000
C84000
8CC000
8C8000
8D8000
CB0000
720000
06F700
0D9980
099880
199880
119880
319980
00F700
ENDCHAR
STARTCHAR minute
ENCODING 8242
SWIDTH 168 0
DWIDTH 3 0
BBX 2 5 1 10
BITMAP
C0
C0
C0
80
80
ENDCHAR
STARTCHAR second
ENCODING 8243
SWIDTH 324 0
DWIDTH 6 0
BBX 5 5 1 10
BITMAP
D8
D8
D8
90
90
ENDCHAR
STARTCHAR guilsinglleft
ENCODING 8249
SWIDTH 305 0
DWIDTH 6 0
BBX 5 8 1 1
BITMAP
18
30
60
C0
C0
60
30
18
ENDCHAR
STARTCHAR guilsinglright
ENCODING 8250
SWIDTH 301 0
DWIDTH 6 0
BBX 4 8 1 1
BITMAP
C0
60
60
30
30
60
60
C0
ENDCHAR
STARTCHAR exclamdbl
ENCODING 8252
SWIDTH 536 0
DWIDTH 11 0
BBX 8 14 1 0
BITMAP
E3
E3
E3
E3
E3
E3
E3
E3
63
00
00
63
E3
63
ENDCHAR
STARTCHAR fraction
ENCODING 8260
SWIDTH 451 0
DWIDTH 9 0
BBX 9 12 0 1
BITMAP
0100
0380
0300
0600
0400
0C00
1800
1000
3000
2000
6000
C000
ENDCHAR
STARTCHAR uni2074
ENCODING 8308
SWIDTH 370 0
DWIDTH 7 0
BBX 6 8 1 6
BITMAP
18
38
78
58
D8
FC
18
18
ENDCHAR
STARTCHAR uni207F
ENCODING 8319
SWIDTH 419 0
DWIDTH 8 0
BBX 6 8 1 6
BITMAP
B8
FC
CC
CC
CC
CC
CC
CC
ENDCHAR
STARTCHAR franc
ENCODING 8355
SWIDTH 549 0
DWIDTH 11 0
BBX 10 14 0 0
BITMAP
7FC0
7FC0
7000
7000
7000
7000
7FC0
7FC0
7000
7000
FE00
FE00
7000
7000
ENDCHAR
STARTCHAR lira
ENCODING 8356
SWIDTH 588 0
DWIDTH 12 0
BBX 10 14 1 0
BITMAP
1F00
3FC0
31C0
70C0
7000
FE00
3000
3000
FE00
3000
3000
7000
FFC0
FFC0
ENDCHAR
STARTCHAR uni20A6
ENCODING 8358
SWIDTH 804 0
DWIDTH 16 0
BBX 16 14 0 0
BITMAP
381C
3C1C
3C1C
3E1C
3F1C
FFFF
FFFF
399C
FFFF
FFFF
38FC
387C
383C
381C
ENDCHAR
STARTCHAR peseta
ENCODING 8359
SWIDTH 839 0
DWIDTH 17 0
BBX 14 14 2 0
BITMAP
FC70
FF70
C770
C3FC
C3FC
C370
C770
FE70
FC70
C070
C070
C070
C03C
C03C
ENDCHAR
STARTCHAR uni20A8
ENCODING 8360
SWIDTH 1071 0
DWIDTH 21 0
BBX 19 14 1 0
BITMAP
FF0000
FF8000
E1C000
E0C780
E0CFE0
E0DC60
E1D860
FF9E00
FF0FC0
E301E0
E39860
E1DC60
E1DFE0
E0E7C0
ENDCHAR
STARTCHAR uni20A9
ENCODING 8361
SWIDTH 769 0
DWIDTH 15 0
BBX 15 14 0 0
BITMAP
638C
638C
639C
739C
FFFE
FEFE
36D8
FFFE
FFFE
3EF0
1EF0
1C70
1C70
1C70
ENDCHAR
STARTCHAR uni20AA
ENCODING 8362
SWIDTH 818 0
DWIDTH 16 0
BBX 14 11 1 0
BITMAP
FF8C
FF8C
C1CC
C0CC
CCCC
CCCC
CCCC
CC0C
CC1C
CFF8
CFF0
ENDCHAR
STARTCHAR dong
ENCODING 8363
SWIDTH 579 0
DWIDTH 12 0
BBX 11 18 1 -3
BITMAP
0180
0FE0
0FE0
0180
3D80
7F80
E380
C180
C180
C180
C180
C180
E380
7F80
3D80
0000
7F80
7F80
ENDCHAR
STARTCHAR Euro
ENCODING 8364
SWIDTH 568 0
DWIDTH 11 0
BBX 9 14 1 0
BITMAP
0F80
1F80
3800
3000
7000
FE00
7000
7000
FE00
7000
3000
3800
1F80
0F80
ENDCHAR
STARTCHAR uni20B1
ENCODING 8369
SWIDTH 744 0
DWIDTH 15 0
BBX 15 14 0 0
BITMAP
3FC0
3FE0
3870
FFFE
FFFE
3838
FFFE
FFFE
3870
3FF0
3FC0
3800
3800
3800
ENDCHAR
STARTCHAR uni20B9
ENCODING 8377
SWIDTH 525 0
DWIDTH 11 0
BBX 9 14 1 0
BITMAP
FF80
FF80
0E00
FF80
FF80
0E00
FE00
F800
6000
7000
3800
1C00
0E00
0F00
ENDCHAR
STARTCHAR uni20BA
ENCODING 8378
SWIDTH 579 0
DWIDTH 12 0
BBX 10 14 1 0
BITMAP
3000
3400
3C00
F800
F400
BC00
F800
F0C0
B1C0
31C0
3180
3380
3F00
3E00
ENDCHAR
STARTCHAR uni20BC
ENCODING 8380
SWIDTH 670 0
DWIDTH 13 0
BBX 11 11 1 0
BITMAP
0E00
0E00
1F00
7F80
6FC0
EEE0
CE60
CE60
CE60
CE60
CE60
ENDCHAR
STARTCHAR uni20BD
ENCODING 8381
SWIDTH 686 0
DWIDTH 14 0
BBX 12 14 1 0
BITMAP
3FC0
3FE0
3070
3030
3030
3030
3070
FFE0
FFC0
3000
FE00
FE00
3000
3000
ENDCHAR
STARTCHAR uni2105
ENCODING 8453
SWIDTH 736 0
DWIDTH 15 0
BBX 13 14 1 0
BITMAP
7800
4C40
CCE0
C080
CD80
4D00
7B00
06F0
0598
0D98
1998
1998
3198
00F0
ENDCHAR
STARTCHAR uni2113
ENCODING 8467
SWIDTH 485 0
DWIDTH 10 0
BBX 8 15 1 0
BITMAP
1E
3F
33
33
33
37
36
3E
3C
F8
F0
30
38
1C
0C
ENDCHAR
STARTCHAR uni2116
ENCODING 8470
SWIDTH 1022 0
DWIDTH 20 0
BBX 18 14 1 0
BITMAP
E0C780
F0CCC0
F0D8C0
F0D8C0
F8D8C0
F8D8C0
ECCCC0
ECC780
E6C000
E6CFC0
E3C000
E3C000
E1C000
E1C000
ENDCHAR
STARTCHAR trademark
ENCODING 8482
SWIDTH 629 0
DWIDTH 13 0
BBX 10 5 1 9
BITMAP
F4C0
66C0
6740
6740
6540
ENDCHAR
STARTCHAR uni03A9.dup2
ENCODING 8486
SWIDTH 669 0
DWIDTH 13 0
BBX 11 14 1 0
BITMAP
1F00
3F80
71C0
E0E0
E0E0
E0E0
E0E0
E0E0
E0E0
E0C0
60C0
3180
FBE0
FBE0
ENDCHAR
STARTCHAR estimated
ENCODING 8494
SWIDTH 634 0
DWIDTH 13 0
BBX 10 11 2 0
BITMAP
1E00
6100
4180
C180
C1C0
FFC0
C000
C000
C000
6100
1E00
ENDCHAR
STARTCHAR oneeighth
ENCODING 8539
SWIDTH 775 0
DWIDTH 16 0
BBX 13 14 1 0
BITMAP
3000
F040
30C0
3180
3100
3300
36F0
3498
0C98
0870
1898
3198
2098
00F0
ENDCHAR
STARTCHAR threeeighths
ENCODING 8540
SWIDTH 857 0
DWIDTH 17 0
BBX 15 14 1 0
BITMAP
7800
CC20
0C30
3060
0CC0
0C80
CDBC
7966
0366
063C
0466
0C66
0866
003C
ENDCHAR
STARTCHAR fiveeighths
ENCODING 8541
SWIDTH 852 0
DWIDTH 17 0
BBX 15 14 1 0
BITMAP
F800
C020
C060
F840
08C0
0D80
C9BC
7B64
0266
0638
0C64
0866
1866
003C
ENDCHAR
STARTCHAR seveneighths
ENCODING 8542
SWIDTH 829 0
DWIDTH 17 0
BBX 14 14 1 0
BITMAP
FC00
0C40
18E0
18C0
3180
3100
2378
66CC
04CC
0C78
08CC
18CC
30CC
0078
ENDCHAR
STARTCHAR partialdiff
ENCODING 8706
SWIDTH 570 0
DWIDTH 11 0
BBX 9 15 1 0
BITMAP
7C00
7F00
8700
0380
0180
3D80
7F80
E380
C180
C180
C180
C180
E380
7F00
3E00
ENDCHAR
STARTCHAR uni0394.dup3
ENCODING 8710
SWIDTH 718 0
DWIDTH 14 0
BBX 14 14 0 0
BITMAP
0380
0780
0780
07C0
0EC0
0CE0
1C60
1860
1870
3830
3038
7018
7FF8
FFFC
ENDCHAR
STARTCHAR product
ENCODING 8719
SWIDTH 698 0
DWIDTH 14 0
BBX 10 16 2 -2
BITMAP
FFC0
FFC0
C0C0
C0C0
C0C0
C0C0
C0C0
C0C0
C0C0
C0C0
C0C0
C0C0
C0C0
C0C0
C0C0
C0C0
ENDCHAR
STARTCHAR summation
ENCODING 8721
SWIDTH 605 0
DWIDTH 12 0
BBX 11 17 1 -3
BITMAP
FFC0
FFC0
E000
7000
3800
1C00
0C00
0600
0700
0600
0C00
1C00
3800
7000
E000
FFE0
FFE0
ENDCHAR
STARTCHAR minus
ENCODING 8722
SWIDTH 563 0
DWIDTH 11 0
BBX 8 2 2 6
BITMAP
FF
FF
ENDCHAR
STARTCHAR radical
ENCODING 8730
SWIDTH 586 0
DWIDTH 12 0
BBX 11 14 1 0
BITMAP
00E0
00C0
00C0
0180
0180
0180
E300
F300
3300
3600
1E00
1E00
1C00
0C00
ENDCHAR
STARTCHAR infinity
ENCODING 8734
SWIDTH 1033 0
DWIDTH 21 0
BBX 19 11 1 0
BITMAP
1E0F00
7F1F80
71B1C0
E1E0E0
C0E0E0
C0E0E0
C0E0E0
E1E0E0
73B1C0
7F1F80
1E0F00
ENDCHAR
STARTCHAR integral
ENCODING 8747
SWIDTH 271 0
DWIDTH 5 0
BBX 7 19 -1 -4
BITMAP
0E
1E
38
38
38
38
38
38
38
38
38
38
38
38
38
38
38
F0
E0
ENDCHAR
STARTCHAR approxequal
ENCODING 8776
SWIDTH 569 0
DWIDTH 11 0
BBX 9 7 1 3
BITMAP
F880
FF80
8700
0000
F880
FF80
8700
ENDCHAR
STARTCHAR notequal
ENCODING 8800
SWIDTH 559 0
DWIDTH 11 0
BBX 9 10 1 1
BITMAP
0300
0200
FF80
FF80
0C00
0800
FF80
FF80
2000
6000
ENDCHAR
STARTCHAR lessequal
ENCODING 8804
SWIDTH 508 0
DWIDTH 10 0
BBX 8 11 1 0
BITMAP
01
0F
3E
F0
E0
7C
1F
03
00
FF
FF
ENDCHAR
STARTCHAR greaterequal
ENCODING 8805
SWIDTH 520 0
DWIDTH 10 0
BBX 9 11 1 0
BITMAP
8000
F000
7C00
0F00
0700
3E00
F800
C000
0000
FF80
FF80
ENDCHAR
STARTCHAR lozenge
ENCODING 9674
SWIDTH 505 0
DWIDTH 10 0
BBX 10 14 0 0
BITMAP
0C00
1E00
1E00
3300
3300
6180
6180
E1C0
6180
3300
3300
1E00
1E00
0C00
ENDCHAR
STARTCHAR uniEE01
ENCODING 60929
SWIDTH 294 0
DWIDTH 6 0
BBX 3 11 2 2
BITMAP
C0
E0
C0
00
00
00
00
00
C0
E0
C0
ENDCHAR
STARTCHAR uniEE02
ENCODING 60930
SWIDTH 324 0
DWIDTH 6 0
BBX 4 4 1 7
BITMAP
90
90
90
90
ENDCHAR
STARTCHAR uniF6C3
ENCODING 63171
SWIDTH 242 0
DWIDTH 5 0
BBX 2 4 1 -1
BITMAP
C0
C0
C0
80
ENDCHAR
STARTCHAR uniFB01
ENCODING 64257
SWIDTH 582 0
DWIDTH 12 0
BBX 10 15 0 0
BITMAP
0F80
1F80
3800
3000
FCC0
FCC0
30C0
30C0
30C0
30C0
30C0
30C0
30C0
30C0
30C0
ENDCHAR
STARTCHAR uniFB02
ENCODING 64258
SWIDTH 591 0
DWIDTH 12 0
BBX 10 15 1 0
BITMAP
1FC0
3FC0
71C0
71C0
FDC0
FDC0
71C0
71C0
71C0
71C0
71C0
71C0
71C0
71C0
71C0
ENDCHAR
STARTCHAR uniFB03
ENCODING 64259
SWIDTH 892 0
DWIDTH 18 0
BBX 16 15 1 0
BITMAP
1C7C
3CFC
71C0
71C0
FFF7
FFF7
71C7
71C7
71C7
71C7
71C7
71C7
71C7
71C7
71C7
ENDCHAR
STARTCHAR uniFB04
ENCODING 64260
SWIDTH 892 0
DWIDTH 18 0
BBX 16 15 1 0
BITMAP
1C7F
3CFF
71C7
71C7
FFF7
FFF7
71C7
71C7
71C7
71C7
71C7
71C7
71C7
71C7
71C7
ENDCHAR
STARTCHAR uniFEFF
ENCODING 65279
SWIDTH 0 0
DWIDTH 0 0
BBX 1 1 0 0
BITMAP
00
ENDCHAR
STARTCHAR uniFFFC
ENCODING 65532
SWIDTH 1023 0
DWIDTH 20 0
BBX 19 18 1 -4
BITMAP
EECCE0
800060
800060
000000
800060
800060
1DE100
A32160
A3E160
A31960
1DE700
800060
800060
800060
000000
800060
800060
EECCE0
ENDCHAR
STARTCHAR uniFFFD
ENCODING 65533
SWIDTH 1025 0
DWIDTH 21 0
BBX 19 19 1 -3
BITMAP
004000
00E000
01F000
03F800
07FC00
0E1E00
1E0F00
3CCF80
7FCFC0
FF9FE0
7F3FC0
3FFF80
1F3F00
0F3E00
07FC00
03F800
01F000
00E000
004000
ENDCHAR
STARTCHAR .notdef
ENCODING -1
SWIDTH 443 0
DWIDTH 9 0
BBX 7 14 1 0
BITMAP
FE
82
C6
CA
AA
B2
92
92
B2
AA
CA
C6
82
FE
ENDCHAR
STARTCHAR glyph369
ENCODING -1
SWIDTH 396 0
DWIDTH 8 0
BBX 6 4 1 11
BITMAP
CC
C8
D8
70
ENDCHAR
STARTCHAR uni2009.locl
ENCODING -1
SWIDTH 125 0
DWIDTH 3 0
BBX 1 1 0 0
BITMAP
00
ENDCHAR
STARTCHAR f_f.dlig
ENCODING -1
SWIDTH 638 0
DWIDTH 13 0
BBX 13 15 0 0
BITMAP
1E78
3EF8
38C0
30C0
FFF0
FFF0
30C0
30C0
30C0
30C0
30C0
30C0
30C0
30C0
30C0
ENDCHAR
STARTCHAR longs_t.dlig
ENCODING -1
SWIDTH 633 0
DWIDTH 13 0
BBX 11 15 1 0
BITMAP
1F00
3F80
7180
7180
F7E0
F7E0
7180
7180
7180
7180
7180
7180
7180
71E0
70E0
ENDCHAR
STARTCHAR s_t.dlig
ENCODING -1
SWIDTH 839 0
DWIDTH 17 0
BBX 15 15 1 0
BITMAP
01F0
03F8
0718
0318
3F7E
7F7E
E318
E098
7018
3E18
0718
C398
E31C
7F1E
3E0E
ENDCHAR
STARTCHAR two.dnom
ENCODING -1
SWIDTH 370 0
DWIDTH 7 0
BBX 7 8 0 0
BITMAP
38
6C
CC
0C
18
30
60
7E
ENDCHAR
STARTCHAR one.dnom
ENCODING -1
SWIDTH 370 0
DWIDTH 7 0
BBX 4 8 1 0
BITMAP
30
F0
30
30
30
30
30
30
ENDCHAR
STARTCHAR zero.dnom
ENCODING -1
SWIDTH 370 0
DWIDTH 7 0
BBX 5 8 1 0
BITMAP
70
D8
88
88
88
88
D8
70
ENDCHAR
STARTCHAR nine.c2sc
ENCODING -1
SWIDTH 514 0
DWIDTH 10 0
BBX 8 11 1 0
BITMAP
3C
FE
C7
C3
C3
FF
7B
07
0E
3E
38
ENDCHAR
STARTCHAR eight.c2sc
ENCODING -1
SWIDTH 514 0
DWIDTH 10 0
BBX 8 11 1 0
BITMAP
7C
FF
E7
E7
7E
7E
C7
C3
C7
FF
3C
ENDCHAR
STARTCHAR seven.c2sc
ENCODING -1
SWIDTH 514 0
DWIDTH 10 0
BBX 9 11 0 0
BITMAP
FF80
FF80
0180
0300
0300
0600
0E00
0C00
1C00
1800
3800
ENDCHAR
STARTCHAR six.c2sc
ENCODING -1
SWIDTH 513 0
DWIDTH 10 0
BBX 8 11 1 0
BITMAP
1E
3E
70
E0
DE
FF
C3
C3
E3
7F
3E
ENDCHAR
STARTCHAR five.c2sc
ENCODING -1
SWIDTH 514 0
DWIDTH 10 0
BBX 8 11 1 0
BITMAP
7F
7F
60
E0
FE
FF
03
03
C3
FF
3E
ENDCHAR
STARTCHAR four.c2sc
ENCODING -1
SWIDTH 514 0
DWIDTH 10 0
BBX 10 11 0 0
BITMAP
0700
0700
0F00
1B00
3B00
3300
6300
FFC0
FFC0
0300
0300
ENDCHAR
STARTCHAR three.c2sc
ENCODING -1
SWIDTH 514 0
DWIDTH 10 0
BBX 9 11 0 0
BITMAP
3E00
7F80
6380
0380
1F00
1F00
0380
0180
E380
7F80
3E00
ENDCHAR
STARTCHAR two.c2sc
ENCODING -1
SWIDTH 514 0
DWIDTH 10 0
BBX 9 11 0 0
BITMAP
1E00
7F80
6380
6180
8380
0700
0E00
1C00
3000
7F80
7F80
ENDCHAR
STARTCHAR one.c2sc
ENCODING -1
SWIDTH 514 0
DWIDTH 10 0
BBX 6 11 1 0
BITMAP
0C
3C
FC
DC
1C
1C
1C
1C
1C
1C
1C
ENDCHAR
STARTCHAR zero.c2sc
ENCODING -1
SWIDTH 514 0
DWIDTH 10 0
BBX 8 11 1 0
BITMAP
3C
7E
E7
C3
C3
C3
C3
C3
E7
7E
3C
ENDCHAR
STARTCHAR Z.c2sc
ENCODING -1
SWIDTH 520 0
DWIDTH 10 0
BBX 9 11 1 0
BITMAP
FF80
FF80
0700
0E00
0C00
1800
3800
7000
E000
FF80
FF80
ENDCHAR
STARTCHAR Y.c2sc
ENCODING -1
SWIDTH 529 0
DWIDTH 11 0
BBX 11 11 0 0
BITMAP
E0E0
61C0
7180
3380
1B00
1E00
0E00
0C00
0C00
0C00
0C00
ENDCHAR
STARTCHAR X.c2sc
ENCODING -1
SWIDTH 545 0
DWIDTH 11 0
BBX 11 11 0 0
BITMAP
E1E0
71C0
3B80
1B00
1F00
0E00
1F00
1B00
3B80
71C0
E0E0
ENDCHAR
STARTCHAR W.c2sc
ENCODING -1
SWIDTH 753 0
DWIDTH 15 0
BBX 15 11 0 0
BITMAP
E38E
638C
638C
62CC
36DC
36D8
36D8
3478
1C78
1C70
1C30
ENDCHAR
STARTCHAR V.c2sc
ENCODING -1
SWIDTH 560 0
DWIDTH 11 0
BBX 11 11 0 0
BITMAP
E0E0
60E0
60C0
71C0
3180
3980
1B80
1B00
1F00
0E00
0E00
ENDCHAR
STARTCHAR U.c2sc
ENCODING -1
SWIDTH 564 0
DWIDTH 11 0
BBX 9 11 1 0
BITMAP
C180
C180
C180
C180
C180
C180
C180
C180
E380
7F00
3E00
ENDCHAR
STARTCHAR T.c2sc
ENCODING -1
SWIDTH 528 0
DWIDTH 11 0
BBX 10 11 0 0
BITMAP
FFC0
FFC0
0C00
0C00
0C00
0C00
0C00
0C00
0C00
0C00
0C00
ENDCHAR
STARTCHAR S.c2sc
ENCODING -1
SWIDTH 525 0
DWIDTH 11 0
BBX 9 11 1 0
BITMAP
3E00
7F00
E380
E000
7C00
3F00
0780
0180
E380
7F80
3E00
ENDCHAR
STARTCHAR R.c2sc
ENCODING -1
SWIDTH 544 0
DWIDTH 11 0
BBX 10 11 1 0
BITMAP
FE00
FF80
E380
E180
E380
FF00
FE00
E700
E300
E380
E1C0
ENDCHAR
STARTCHAR Q.c2sc
ENCODING -1
SWIDTH 593 0
DWIDTH 12 0
BBX 10 13 1 -2
BITMAP
1E00
7F80
E180
C1C0
C0C0
C0C0
C0C0
E1C0
E1C0
7F80
1F80
01C0
0080
ENDCHAR
STARTCHAR P.c2sc
ENCODING -1
SWIDTH 553 0
DWIDTH 11 0
BBX 9 11 1 0
BITMAP
FE00
FF80
E180
E180
E180
FF80
FE00
E000
E000
E000
E000
ENDCHAR
STARTCHAR O.c2sc
ENCODING -1
SWIDTH 593 0
DWIDTH 12 0
BBX 10 11 1 0
BITMAP
1E00
7F80
E1C0
E1C0
C0C0
C0C0
C0C0
E1C0
E1C0
7F80
1E00
ENDCHAR
STARTCHAR N.c2sc
ENCODING -1
SWIDTH 607 0
DWIDTH 12 0
BBX 10 11 1 0
BITMAP
E0C0
F0C0
F0C0
F8C0
FCC0
ECC0
E6C0
E7C0
E3C0
E1C0
E1C0
ENDCHAR
STARTCHAR M.c2sc
ENCODING -1
SWIDTH 752 0
DWIDTH 15 0
BBX 13 11 1 0
BITMAP
E038
F078
F078
D8D8
D8D8
D8D8
CD98
CD98
C738
C738
C738
ENDCHAR
STARTCHAR L.c2sc
ENCODING -1
SWIDTH 465 0
DWIDTH 9 0
BBX 8 11 1 0
BITMAP
E0
E0
E0
E0
E0
E0
E0
E0
E0
FF
FF
ENDCHAR
STARTCHAR K.c2sc
ENCODING -1
SWIDTH 544 0
DWIDTH 11 0
BBX 10 11 1 0
BITMAP
E3C0
E300
E700
EE00
FC00
FC00
FE00
E600
E700
E380
E1C0
ENDCHAR
STARTCHAR J.c2sc
ENCODING -1
SWIDTH 479 0
DWIDTH 10 0
BBX 8 12 1 0
BITMAP
07
07
07
07
07
07
07
07
C7
C6
FE
7C
ENDCHAR
STARTCHAR I.c2sc
ENCODING -1
SWIDTH 248 0
DWIDTH 5 0
BBX 3 11 1 0
BITMAP
E0
E0
E0
E0
E0
E0
E0
E0
E0
E0
E0
ENDCHAR
STARTCHAR H.c2sc
ENCODING -1
SWIDTH 608 0
DWIDTH 12 0
BBX 10 11 1 0
BITMAP
E0C0
E0C0
E0C0
E0C0
FFC0
FFC0
E0C0
E0C0
E0C0
E0C0
E0C0
ENDCHAR
STARTCHAR G.c2sc
ENCODING -1
SWIDTH 581 0
DWIDTH 12 0
BBX 10 11 1 0
BITMAP
1F00
7F80
61C0
E0C0
C000
C7C0
C7C0
E0C0
70C0
7FC0
1F00
ENDCHAR
STARTCHAR F.c2sc
ENCODING -1
SWIDTH 471 0
DWIDTH 9 0
BBX 8 11 1 0
BITMAP
FF
FF
E0
E0
E0
FE
FE
E0
E0
E0
E0
ENDCHAR
STARTCHAR dollar.c2sc
ENCODING -1
SWIDTH 525 0
DWIDTH 11 0
BBX 9 15 1 -2
BITMAP
0800
0800
3E00
7F00
E380
E000
7C00
3F00
0780
C180
E380
7F80
3E00
0800
0800
ENDCHAR
STARTCHAR sterling.c2sc
ENCODING -1
SWIDTH 549 0
DWIDTH 11 0
BBX 9 11 1 0
BITMAP
1E00
3F00
7380
6180
6000
FE00
6000
6000
6000
FF80
FF80
ENDCHAR
STARTCHAR yen.c2sc
ENCODING -1
SWIDTH 455 0
DWIDTH 9 0
BBX 9 11 0 0
BITMAP
E380
6300
7700
3600
3600
7F00
1C00
1C00
7F00
1C00
1C00
ENDCHAR
STARTCHAR Gamma.c2sc
ENCODING -1
SWIDTH 465 0
DWIDTH 9 0
BBX 8 11 1 0
BITMAP
FF
FF
C0
C0
C0
C0
C0
C0
C0
C0
C0
ENDCHAR
STARTCHAR uni0394.c2sc
ENCODING -1
SWIDTH 560 0
DWIDTH 11 0
BBX 11 11 0 0
BITMAP
0E00
0E00
1B00
1B00
1B00
3180
3180
71C0
60C0
7FC0
FFE0
ENDCHAR
STARTCHAR Theta.c2sc
ENCODING -1
SWIDTH 593 0
DWIDTH 12 0
BBX 10 11 1 0
BITMAP
1E00
7F80
E1C0
E1C0
DEC0
DEC0
C0C0
E1C0
E1C0
7F80
1E00
ENDCHAR
STARTCHAR Lambda.c2sc
ENCODING -1
SWIDTH 560 0
DWIDTH 11 0
BBX 11 11 0 0
BITMAP
0E00
0E00
1B00
1B00
1B00
3180
3180
71C0
60C0
60C0
E0E0
ENDCHAR
STARTCHAR Xi.c2sc
ENCODING -1
SWIDTH 449 0
DWIDTH 9 0
BBX 7 11 1 0
BITMAP
FE
FE
00
00
FE
FE
00
00
00
FE
FE
ENDCHAR
STARTCHAR Pi.c2sc
ENCODING -1
SWIDTH 605 0
DWIDTH 12 0
BBX 10 11 1 0
BITMAP
FFC0
FFC0
C1C0
C1C0
C1C0
C1C0
C1C0
C1C0
C1C0
C1C0
C1C0
ENDCHAR
STARTCHAR Sigma.c2sc
ENCODING -1
SWIDTH 512 0
DWIDTH 10 0
BBX 9 11 1 0
BITMAP
FF00
FF00
E000
7000
3800
1800
3000
7000
E000
FF80
FF80
ENDCHAR
STARTCHAR Phi.c2sc
ENCODING -1
SWIDTH 701 0
DWIDTH 14 0
BBX 12 11 1 0
BITMAP
0600
3FC0
7FE0
E670
C630
C630
C630
E670
7FE0
3F80
0600
ENDCHAR
STARTCHAR Psi.c2sc
ENCODING -1
SWIDTH 666 0
DWIDTH 13 0
BBX 11 11 1 0
BITMAP
CE60
CE60
CE60
CE60
CE60
EEE0
7FC0
3F80
0E00
0E00
0E00
ENDCHAR
STARTCHAR uni03A9.c2sc
ENCODING -1
SWIDTH 611 0
DWIDTH 12 0
BBX 10 11 1 0
BITMAP
3E00
7F80
E1C0
C0C0
C0C0
C0C0
C0C0
E1C0
6180
F3C0
F3C0
ENDCHAR
STARTCHAR uni0402.c2sc
ENCODING -1
SWIDTH 695 0
DWIDTH 14 0
BBX 13 11 0 0
BITMAP
FFC0
FFC0
0C00
0C00
0FE0
0FF8
0C18
0C18
0C18
0C78
0C70
ENDCHAR
STARTCHAR uni0404.c2sc
ENCODING -1
SWIDTH 562 0
DWIDTH 11 0
BBX 10 11 1 0
BITMAP
3E00
7F80
E180
C180
FC40
FC00
C000
C1C0
E180
7F80
3E00
ENDCHAR
STARTCHAR uni0409.c2sc
ENCODING -1
SWIDTH 916 0
DWIDTH 18 0
BBX 18 11 0 0
BITMAP
1FE000
1FE000
18E000
38E000
38FF00
38FF80
38E180
38E1C0
30E180
F0FF80
E0FF00
ENDCHAR
STARTCHAR uni040A.c2sc
ENCODING -1
SWIDTH 917 0
DWIDTH 18 0
BBX 17 11 1 0
BITMAP
C1C000
C1C000
C1C000
C1C000
FFFE00
FFFF00
C1C300
C1C380
C1C300
C1FF00
C1FE00
ENDCHAR
STARTCHAR uni040B.c2sc
ENCODING -1
SWIDTH 698 0
DWIDTH 14 0
BBX 13 11 0 0
BITMAP
FFC0
FFC0
0C00
0C00
0FE0
0FF8
0C38
0C18
0C18
0C18
0C18
ENDCHAR
STARTCHAR uni040F.c2sc
ENCODING -1
SWIDTH 604 0
DWIDTH 12 0
BBX 10 14 1 -3
BITMAP
C0C0
C0C0
C0C0
C0C0
C0C0
C0C0
C0C0
C0C0
C0C0
FFC0
FFC0
0C00
0C00
0C00
ENDCHAR
STARTCHAR uni0411.c2sc
ENCODING -1
SWIDTH 555 0
DWIDTH 11 0
BBX 9 11 1 0
BITMAP
FF00
FF00
C000
C000
FE00
FF80
C180
C180
C180
FF80
FE00
ENDCHAR
STARTCHAR uni0414.c2sc
ENCODING -1
SWIDTH 668 0
DWIDTH 13 0
BBX 13 14 0 -3
BITMAP
1FE0
1FE0
1860
1860
1860
1860
1860
3860
3060
FFF8
FFF8
E038
E038
E038
ENDCHAR
STARTCHAR uni0416.c2sc
ENCODING -1
SWIDTH 778 0
DWIDTH 16 0
BBX 16 11 0 0
BITMAP
718E
398C
399C
1DB8
0FF0
0FF8
1DB8
399C
399C
718E
F18F
ENDCHAR
STARTCHAR uni0417.c2sc
ENCODING -1
SWIDTH 534 0
DWIDTH 11 0
BBX 9 11 1 0
BITMAP
3E00
FF00
E380
0380
1F00
1F00
0380
0180
C380
FF00
3E00
ENDCHAR
STARTCHAR uni0418.c2sc
ENCODING -1
SWIDTH 611 0
DWIDTH 12 0
BBX 10 11 1 0
BITMAP
C1C0
C1C0
C3C0
C6C0
CEC0
CCC0
D8C0
F8C0
F0C0
E0C0
E0C0
ENDCHAR
STARTCHAR uni041A.c2sc
ENCODING -1
SWIDTH 544 0
DWIDTH 11 0
BBX 10 11 1 0
BITMAP
E380
E700
E600
EE00
FC00
FC00
EE00
E600
E700
E380
E3C0
ENDCHAR
STARTCHAR uni041B.c2sc
ENCODING -1
SWIDTH 599 0
DWIDTH 12 0
BBX 11 11 0 0
BITMAP
1FE0
1FE0
18E0
18E0
18E0
18E0
38E0
38E0
30E0
F0E0
E0E0
ENDCHAR
STARTCHAR uni0423.c2sc
ENCODING -1
SWIDTH 534 0
DWIDTH 11 0
BBX 11 11 0 0
BITMAP
E0E0
70C0
31C0
3980
1B80
1F00
0F00
0E00
0E00
3C00
3800
ENDCHAR
STARTCHAR uni0426.c2sc
ENCODING -1
SWIDTH 670 0
DWIDTH 13 0
BBX 12 14 1 -3
BITMAP
C1C0
C1C0
C1C0
C1C0
C1C0
C1C0
C1C0
C1C0
C1C0
FFF0
FFF0
0060
0060
0060
ENDCHAR
STARTCHAR uni0427.c2sc
ENCODING -1
SWIDTH 568 0
DWIDTH 11 0
BBX 10 11 0 0
BITMAP
E0C0
E0C0
E0C0
E0C0
60C0
7FC0
3FC0
00C0
00C0
00C0
00C0
ENDCHAR
STARTCHAR uni0428.c2sc
ENCODING -1
SWIDTH 814 0
DWIDTH 16 0
BBX 14 11 1 0
BITMAP
C30C
C30C
C30C
C30C
C30C
C30C
C30C
C30C
C30C
FFFC
FFFC
ENDCHAR
STARTCHAR uni0429.c2sc
ENCODING -1
SWIDTH 879 0
DWIDTH 18 0
BBX 16 14 1 -3
BITMAP
E38C
E38C
E38C
E38C
E38C
E38C
E38C
E38C
E38C
FFFF
FFFF
0003
0003
0003
ENDCHAR
STARTCHAR uni042A.c2sc
ENCODING -1
SWIDTH 668 0
DWIDTH 13 0
BBX 13 11 0 0
BITMAP
FC00
FC00
1C00
1C00
1FE0
1FF0
1C30
1C38
1C30
1FF0
1FE0
ENDCHAR
STARTCHAR uni042B.c2sc
ENCODING -1
SWIDTH 765 0
DWIDTH 15 0
BBX 13 11 1 0
BITMAP
E018
E018
E018
E018
FE18
FF98
E198
E198
E198
FF98
FE18
ENDCHAR
STARTCHAR uni042C.c2sc
ENCODING -1
SWIDTH 550 0
DWIDTH 11 0
BBX 9 11 1 0
BITMAP
E000
E000
E000
E000
FE00
FF80
E180
E180
E180
FF80
FE00
ENDCHAR
STARTCHAR uni042D.c2sc
ENCODING -1
SWIDTH 562 0
DWIDTH 11 0
BBX 10 11 0 0
BITMAP
1F00
7F80
61C0
60C0
8FC0
0FC0
00C0
E0C0
61C0
7F80
1F00
ENDCHAR
STARTCHAR uni042E.c2sc
ENCODING -1
SWIDTH 821 0
DWIDTH 16 0
BBX 14 11 1 0
BITMAP
C1F0
C7F8
C71C
CE0C
FE0C
FC0C
CE0C
CE0C
C71C
C3F8
C1F0
ENDCHAR
STARTCHAR uni042F.c2sc
ENCODING -1
SWIDTH 566 0
DWIDTH 11 0
BBX 10 11 0 0
BITMAP
1FC0
3FC0
70C0
60C0
70C0
3FC0
1FC0
38C0
30C0
70C0
E0C0
ENDCHAR
STARTCHAR uni0492.c2sc
ENCODING -1
SWIDTH 516 0
DWIDTH 10 0
BBX 10 11 0 0
BITMAP
3FC0
3FC0
3000
3000
3000
FC00
FC00
3000
3000
3000
3000
ENDCHAR
STARTCHAR uni0496.c2sc
ENCODING -1
SWIDTH 821 0
DWIDTH 16 0
BBX 16 14 0 -3
BITMAP
E38E
739C
3BB8
1BB0
1FF0
1FF0
3BB8
3BB8
739C
739F
E38F
0003
0003
0003
ENDCHAR
STARTCHAR uni049A.c2sc
ENCODING -1
SWIDTH 576 0
DWIDTH 12 0
BBX 10 14 1 -3
BITMAP
E3C0
E300
E700
EE00
FC00
FC00
EE00
E700
E700
E3C0
E1C0
00C0
00C0
00C0
ENDCHAR
STARTCHAR uni049C.c2sc
ENCODING -1
SWIDTH 637 0
DWIDTH 13 0
BBX 12 11 1 0
BITMAP
E0E0
E1C0
F980
FB00
FF00
FF00
FB80
FB80
E1C0
E0E0
E0F0
ENDCHAR
STARTCHAR uni04A0.c2sc
ENCODING -1
SWIDTH 678 0
DWIDTH 14 0
BBX 13 11 1 0
BITMAP
F870
F8E0
18C0
1980
1F80
1F80
1980
19C0
18E0
1860
1878
ENDCHAR
STARTCHAR uni04A8.c2sc
ENCODING -1
SWIDTH 742 0
DWIDTH 15 0
BBX 13 11 1 0
BITMAP
39E0
7BF0
E738
C638
C638
C638
C638
E770
73F0
7FF8
1F38
ENDCHAR
STARTCHAR uni04B0.c2sc
ENCODING -1
SWIDTH 543 0
DWIDTH 11 0
BBX 11 11 0 0
BITMAP
E0E0
61C0
7180
3380
1B00
1E00
3F80
3F80
0C00
0C00
0C00
ENDCHAR
STARTCHAR uni04B2.c2sc
ENCODING -1
SWIDTH 595 0
DWIDTH 12 0
BBX 11 14 0 -3
BITMAP
E1E0
71C0
3B80
1B00
1E00
0E00
1F00
1B00
3B80
71E0
60E0
8060
0060
0060
ENDCHAR
STARTCHAR uni04B4.c2sc
ENCODING -1
SWIDTH 822 0
DWIDTH 16 0
BBX 15 14 0 -3
BITMAP
FF98
FF98
1C18
1C18
1C18
1C18
1C18
1C18
1C18
1FFE
1FFE
0006
0006
0006
ENDCHAR
STARTCHAR uni04B8.c2sc
ENCODING -1
SWIDTH 568 0
DWIDTH 11 0
BBX 10 11 0 0
BITMAP
E0C0
E0C0
E0C0
ECC0
6CC0
7FC0
3FC0
0CC0
0CC0
00C0
00C0
ENDCHAR
STARTCHAR uni04BA.c2sc
ENCODING -1
SWIDTH 568 0
DWIDTH 11 0
BBX 10 11 1 0
BITMAP
C000
C000
C000
C000
FF00
FF80
C180
C1C0
C1C0
C1C0
C1C0
ENDCHAR
STARTCHAR uni04BC.c2sc
ENCODING -1
SWIDTH 749 0
DWIDTH 15 0
BBX 14 11 0 0
BITMAP
01F0
07F8
0E1C
CC0C
EC0C
7FFC
3FFC
0C00
0E10
07F8
03F0
ENDCHAR
STARTCHAR uni04D8.c2sc
ENCODING -1
SWIDTH 602 0
DWIDTH 12 0
BBX 10 11 1 0
BITMAP
7E00
7F80
41C0
01C0
00C0
FFC0
FFC0
C0C0
E1C0
7F80
3E00
ENDCHAR
STARTCHAR uni04E0.c2sc
ENCODING -1
SWIDTH 534 0
DWIDTH 11 0
BBX 9 11 1 0
BITMAP
FF80
FF80
0600
0C00
1E00
1F00
0380
0180
E380
FF00
3E00
ENDCHAR
STARTCHAR uni04E8.c2sc
ENCODING -1
SWIDTH 593 0
DWIDTH 12 0
BBX 10 11 1 0
BITMAP
1E00
7F80
E1C0
C0C0
FFC0
FFC0
C0C0
E1C0
E1C0
7F80
1E00
ENDCHAR
STARTCHAR lira.c2sc
ENCODING -1
SWIDTH 549 0
DWIDTH 11 0
BBX 9 11 1 0
BITMAP
1E00
3F00
7380
6180
6000
FE00
6000
FE00
6000
FF80
FF80
ENDCHAR
STARTCHAR Euro.c2sc
ENCODING -1
SWIDTH 495 0
DWIDTH 10 0
BBX 8 11 1 0
BITMAP
0F
3F
30
70
FE
70
FE
70
30
3F
0F
ENDCHAR
STARTCHAR uni2116.c2sc
ENCODING -1
SWIDTH 1026 0
DWIDTH 21 0
BBX 19 11 1 0
BITMAP
E0C780
F0CCC0
F0CC60
F8CC60
FCCC60
EECC40
E6C780
E3C000
E3C7C0
E1C000
E0C000
ENDCHAR
STARTCHAR uni20BD.c2sc
ENCODING -1
SWIDTH 614 0
DWIDTH 12 0
BBX 11 11 0 0
BITMAP
3FC0
3FE0
3860
3860
3860
FFE0
FFC0
3800
FE00
FE00
3800
ENDCHAR
STARTCHAR three.dnom
ENCODING -1
SWIDTH 370 0
DWIDTH 7 0
BBX 6 8 0 0
BITMAP
78
CC
0C
38
0C
04
CC
78
ENDCHAR
STARTCHAR four.dnom
ENCODING -1
SWIDTH 370 0
DWIDTH 7 0
BBX 6 8 1 0
BITMAP
18
38
78
58
D8
FC
18
18
ENDCHAR
STARTCHAR five.dnom
ENCODING -1
SWIDTH 370 0
DWIDTH 7 0
BBX 6 8 1 0
BITMAP
F8
C0
C0
F8
18
0C
98
70
ENDCHAR
STARTCHAR six.dnom
ENCODING -1
SWIDTH 370 0
DWIDTH 7 0
BBX 6 8 1 0
BITMAP
30
C0
C0
B8
C8
8C
D8
78
ENDCHAR
STARTCHAR seven.dnom
ENCODING -1
SWIDTH 370 0
DWIDTH 7 0
BBX 6 8 1 0
BITMAP
FC
08
18
10
30
30
60
E0
ENDCHAR
STARTCHAR eight.dnom
ENCODING -1
SWIDTH 370 0
DWIDTH 7 0
BBX 5 8 1 0
BITMAP
70
D8
D8
70
D8
88
D8
70
ENDCHAR
STARTCHAR nine.dnom
ENCODING -1
SWIDTH 370 0
DWIDTH 7 0
BBX 6 8 0 0
BITMAP
38
6C
C4
64
7C
0C
0C
30
ENDCHAR
STARTCHAR glyph550
ENCODING -1
SWIDTH 465 0
DWIDTH 9 0
BBX 7 2 1 6
BITMAP
FE
FE
ENDCHAR
STARTCHAR glyph551
ENCODING -1
SWIDTH 336 0
DWIDTH 7 0
BBX 6 6 1 11
BITMAP
1C
30
60
50
D0
70
ENDCHAR
STARTCHAR E.c2sc
ENCODING -1
SWIDTH 484 0
DWIDTH 10 0
BBX 8 11 1 0
BITMAP
FF
FF
E0
E0
FE
FE
E0
E0
E0
FF
FF
ENDCHAR
STARTCHAR g.ss01
ENCODING -1
SWIDTH 528 0
DWIDTH 11 0
BBX 10 15 0 -4
BITMAP
1FC0
3FC0
7180
61C0
71C0
3F80
1F00
2000
3F80
3FC0
60C0
E0C0
E1C0
7F80
3F00
ENDCHAR
STARTCHAR alpha.ss02
ENCODING -1
SWIDTH 591 0
DWIDTH 12 0
BBX 10 11 1 0
BITMAP
3CC0
7EC0
E380
E180
C180
C180
C180
E180
E380
7EC0
3CC0
ENDCHAR
STARTCHAR R.ss03
ENCODING -1
SWIDTH 658 0
DWIDTH 13 0
BBX 11 14 1 0
BITMAP
FF80
FFC0
E0E0
E0E0
E0E0
E0C0
FF80
FF80
E1C0
E0E0
E0E0
E0E0
E0E0
E0E0
ENDCHAR
STARTCHAR K.ss04
ENCODING -1
SWIDTH 644 0
DWIDTH 13 0
BBX 11 14 2 0
BITMAP
C1E0
C380
C380
C700
CE00
CE00
FC00
FC00
CE00
C700
C700
C380
C1C0
C0E0
ENDCHAR
STARTCHAR k.ss04
ENCODING -1
SWIDTH 523 0
DWIDTH 10 0
BBX 10 15 1 0
BITMAP
E000
E000
E000
E000
E380
E700
E600
EE00
FC00
FC00
EE00
E600
E700
E380
E3C0
ENDCHAR
STARTCHAR K.ss05
ENCODING -1
SWIDTH 652 0
DWIDTH 13 0
BBX 11 14 2 0
BITMAP
C1C0
C380
C700
CE00
DC00
DC00
F800
F800
DC00
CE00
C700
C700
C380
C1E0
ENDCHAR
STARTCHAR k.ss05
ENCODING -1
SWIDTH 521 0
DWIDTH 10 0
BBX 9 15 1 0
BITMAP
E000
E000
E000
E000
E380
E700
EE00
FC00
F800
F800
FC00
EE00
E600
E700
E380
ENDCHAR
STARTCHAR D.c2sc
ENCODING -1
SWIDTH 559 0
DWIDTH 11 0
BBX 9 11 1 0
BITMAP
FC00
FF00
C380
C180
C180
C180
C180
C180
C380
FF00
FC00
ENDCHAR
STARTCHAR C.c2sc
ENCODING -1
SWIDTH 562 0
DWIDTH 11 0
BBX 10 11 1 0
BITMAP
3E00
7F80
E180
C180
C040
C000
C000
C1C0
E180
7F80
3E00
ENDCHAR
STARTCHAR B.c2sc
ENCODING -1
SWIDTH 546 0
DWIDTH 11 0
BBX 9 11 1 0
BITMAP
FE00
FF80
E380
E380
FF00
FF00
E380
E180
E380
FF80
FE00
ENDCHAR
STARTCHAR A.c2sc
ENCODING -1
SWIDTH 577 0
DWIDTH 12 0
BBX 11 11 0 0
BITMAP
0E00
0E00
0F00
1B00
1B80
3980
31C0
3FC0
7FC0
60E0
E060
ENDCHAR
STARTCHAR glyph564
ENCODING -1
SWIDTH 252 0
DWIDTH 5 0
BBX 3 4 1 11
BITMAP
60
60
E0
C0
ENDCHAR
STARTCHAR glyph565
ENCODING -1
SWIDTH 453 0
DWIDTH 9 0
BBX 7 4 1 12
BITMAP
60
30
C6
7C
ENDCHAR
STARTCHAR glyph566
ENCODING -1
SWIDTH 0 0
DWIDTH 0 0
BBX 5 5 -8 12
BITMAP
38
20
40
C8
B8
ENDCHAR
STARTCHAR glyph567
ENCODING -1
SWIDTH 505 0
DWIDTH 10 0
BBX 10 5 1 12
BITMAP
00C0
0180
0180
3C00
E600
ENDCHAR
STARTCHAR glyph568
ENCODING -1
SWIDTH 505 0
DWIDTH 10 0
BBX 10 5 -2 12
BITMAP
E000
6000
3000
0780
1CC0
ENDCHAR
STARTCHAR glyph569
ENCODING -1
SWIDTH 505 0
DWIDTH 10 0
BBX 9 4 1 12
BITMAP
0380
0080
3F00
E600
ENDCHAR
STARTCHAR glyph570
ENCODING -1
SWIDTH 505 0
DWIDTH 10 0
BBX 7 5 1 12
BITMAP
34
4C
00
38
E6
ENDCHAR
STARTCHAR uni0490.c2sc
ENCODING -1
SWIDTH 465 0
DWIDTH 9 0
BBX 8 14 1 0
BITMAP
07
07
07
FF
FF
C0
C0
C0
C0
C0
C0
C0
C0
C0
ENDCHAR
STARTCHAR glyph572
ENCODING -1
SWIDTH 453 0
DWIDTH 9 0
BBX 7 4 1 12
BITMAP
1C
10
C6
7C
ENDCHAR
STARTCHAR glyph573
ENCODING -1
SWIDTH 453 0
DWIDTH 9 0
BBX 6 5 1 12
BITMAP
38
0C
30
C4
78
ENDCHAR
STARTCHAR zero.numr
ENCODING -1
SWIDTH 370 0
DWIDTH 7 0
BBX 5 8 1 6
BITMAP
70
D8
88
88
88
88
D8
70
ENDCHAR
STARTCHAR four.numr
ENCODING -1
SWIDTH 370 0
DWIDTH 7 0
BBX 6 8 1 6
BITMAP
18
38
78
58
D8
FC
18
18
ENDCHAR
STARTCHAR five.numr
ENCODING -1
SWIDTH 370 0
DWIDTH 7 0
BBX 6 8 1 6
BITMAP
F8
C0
C0
F8
18
0C
98
70
ENDCHAR
STARTCHAR six.numr
ENCODING -1
SWIDTH 370 0
DWIDTH 7 0
BBX 6 8 1 6
BITMAP
30
C0
C0
B8
C8
8C
D8
78
ENDCHAR
STARTCHAR seven.numr
ENCODING -1
SWIDTH 370 0
DWIDTH 7 0
BBX 6 8 1 6
BITMAP
FC
08
18
10
30
30
60
E0
ENDCHAR
STARTCHAR eight.numr
ENCODING -1
SWIDTH 370 0
DWIDTH 7 0
BBX 5 8 1 6
BITMAP
70
D8
D8
70
D8
88
D8
70
ENDCHAR
STARTCHAR nine.numr
ENCODING -1
SWIDTH 370 0
DWIDTH 7 0
BBX 6 8 0 6
BITMAP
38
6C
C4
64
7C
0C
0C
30
ENDCHAR
STARTCHAR C.ss06
ENCODING -1
SWIDTH 684 0
DWIDTH 14 0
BBX 12 14 1 0
BITMAP
0F80
3FC0
78E0
7070
E070
E000
E000
E000
E000
E070
7070
78E0
3FE0
0F80
ENDCHAR
STARTCHAR G.ss06
ENCODING -1
SWIDTH 704 0
DWIDTH 14 0
BBX 12 14 1 0
BITMAP
0F80
3FC0
70E0
6070
E070
E000
C000
C1F0
E1F0
E070
6070
7870
3FE0
0FC0
ENDCHAR
STARTCHAR D.ss06
ENCODING -1
SWIDTH 690 0
DWIDTH 14 0
BBX 11 14 2 0
BITMAP
FE00
FF00
C380
C1C0
C0C0
C0E0
C0E0
C0E0
C0E0
C0C0
C1C0
C380
FF00
FE00
ENDCHAR
STARTCHAR O.ss06
ENCODING -1
SWIDTH 734 0
DWIDTH 15 0
BBX 13 14 1 0
BITMAP
0F80
3FE0
38E0
7070
6030
E038
E038
E038
E038
6030
7070
38E0
3FE0
0F80
ENDCHAR
STARTCHAR Q.ss06
ENCODING -1
SWIDTH 735 0
DWIDTH 15 0
BBX 13 16 1 -2
BITMAP
0F80
3FE0
38E0
7070
6030
E038
E038
E038
E038
6030
7070
38E0
3FE0
0FE0
0070
0030
ENDCHAR
STARTCHAR one.oldstyle.pnum
ENCODING -1
SWIDTH 513 0
DWIDTH 10 0
BBX 6 11 1 0
BITMAP
04
3C
FC
CC
0C
0C
0C
0C
0C
0C
0C
ENDCHAR
STARTCHAR two.oldstyle.pnum
ENCODING -1
SWIDTH 563 0
DWIDTH 11 0
BBX 9 11 1 0
BITMAP
3E00
7F00
E380
C380
0300
0700
0E00
1800
7000
FF80
FF80
ENDCHAR
STARTCHAR three.oldstyle.pnum
ENCODING -1
SWIDTH 542 0
DWIDTH 11 0
BBX 10 14 0 -3
BITMAP
7FC0
7FC0
0380
0700
0E00
1F00
1F80
01C0
01C0
00C0
01C0
4380
FF80
7E00
ENDCHAR
STARTCHAR four.oldstyle.pnum
ENCODING -1
SWIDTH 592 0
DWIDTH 12 0
BBX 10 14 1 -3
BITMAP
0380
0780
0F80
0F80
1B80
3B80
3380
6380
C380
FFC0
FFC0
0380
0380
0380
ENDCHAR
STARTCHAR five.oldstyle.pnum
ENCODING -1
SWIDTH 552 0
DWIDTH 11 0
BBX 9 14 1 -3
BITMAP
7F80
7F80
6000
6000
6000
7E00
FF00
E380
0180
0180
0180
8380
FF00
7E00
ENDCHAR
STARTCHAR seven.oldstyle.pnum
ENCODING -1
SWIDTH 522 0
DWIDTH 10 0
BBX 9 14 1 -3
BITMAP
FF80
FF80
0380
0300
0300
0600
0600
0C00
0C00
1800
1800
3800
3000
7000
ENDCHAR
STARTCHAR glyph592
ENCODING -1
SWIDTH 453 0
DWIDTH 9 0
BBX 6 5 1 12
BITMAP
64
5C
00
C4
78
ENDCHAR
STARTCHAR glyph593
ENCODING -1
SWIDTH 212 0
DWIDTH 4 0
BBX 2 5 1 -3
BITMAP
C0
C0
C0
C0
C0
ENDCHAR
STARTCHAR OE.c2sc
ENCODING -1
SWIDTH 824 0
DWIDTH 16 0
BBX 15 11 1 0
BITMAP
3FFE
7FFE
E180
C180
C1FC
C1FC
C180
C180
E180
7FFE
3FFE
ENDCHAR
STARTCHAR nine.oldstyle.pnum
ENCODING -1
SWIDTH 587 0
DWIDTH 12 0
BBX 10 14 1 -3
BITMAP
1E00
7F80
6180
E1C0
E0C0
E0C0
71C0
7FC0
3FC0
01C0
0180
0380
3F00
7E00
ENDCHAR
STARTCHAR glyph596
ENCODING -1
SWIDTH 257 0
DWIDTH 5 0
BBX 5 6 -1 -4
BITMAP
38
38
38
38
F0
E0
ENDCHAR
STARTCHAR three.oldstyle
ENCODING -1
SWIDTH 568 0
DWIDTH 11 0
BBX 9 14 1 -3
BITMAP
FF80
FF80
0300
0600
0C00
1E00
1F00
0380
0180
0180
0180
8380
FF00
7C00
ENDCHAR
STARTCHAR five.oldstyle
ENCODING -1
SWIDTH 568 0
DWIDTH 11 0
BBX 9 14 1 -3
BITMAP
7F80
7F80
6000
6000
6000
7E00
FF00
E380
0180
0180
0180
8380
FF00
7E00
ENDCHAR
STARTCHAR four.oldstyle
ENCODING -1
SWIDTH 568 0
DWIDTH 11 0
BBX 11 14 0 -3
BITMAP
0180
0380
0780
0780
0D80
1980
1980
3180
6180
FFE0
FFE0
0180
0180
0180
ENDCHAR
STARTCHAR two.oldstyle
ENCODING -1
SWIDTH 568 0
DWIDTH 11 0
BBX 9 11 1 0
BITMAP
3E00
7F00
E380
C380
0300
0700
0E00
3800
7000
FF80
FF80
ENDCHAR
STARTCHAR seven.oldstyle
ENCODING -1
SWIDTH 568 0
DWIDTH 11 0
BBX 9 14 1 -3
BITMAP
FF80
FF80
0180
0380
0300
0700
0600
0E00
0C00
1C00
1800
1800
3000
7000
ENDCHAR
STARTCHAR zero.oldstyle
ENCODING -1
SWIDTH 568 0
DWIDTH 11 0
BBX 11 11 0 0
BITMAP
1F00
3F80
71C0
60C0
E0E0
E0E0
E0E0
60C0
71C0
3F80
1F00
ENDCHAR
STARTCHAR six.oldstyle
ENCODING -1
SWIDTH 568 0
DWIDTH 11 0
BBX 9 14 1 0
BITMAP
0E00
3E00
7800
6000
E000
DE00
FF00
E380
C180
C180
E180
6380
7F00
3E00
ENDCHAR
STARTCHAR nine.oldstyle
ENCODING -1
SWIDTH 568 0
DWIDTH 11 0
BBX 10 14 1 -3
BITMAP
3E00
7F00
E380
E180
C1C0
E1C0
E1C0
7FC0
3FC0
0180
0380
0780
7F00
7C00
ENDCHAR
STARTCHAR eight.oldstyle
ENCODING -1
SWIDTH 568 0
DWIDTH 11 0
BBX 9 14 1 0
BITMAP
3E00
7F00
E380
E380
E380
6300
7F00
7F00
E380
C180
C180
E380
7F00
3E00
ENDCHAR
STARTCHAR one.oldstyle
ENCODING -1
SWIDTH 568 0
DWIDTH 11 0
BBX 6 11 2 0
BITMAP
0C
3C
FC
CC
0C
0C
0C
0C
0C
0C
0C
ENDCHAR
STARTCHAR glyph607
ENCODING -1
SWIDTH 268 0
DWIDTH 5 0
BBX 5 15 -1 -4
BITMAP
38
38
38
38
38
38
38
38
38
38
38
38
38
F0
E0
ENDCHAR
STARTCHAR glyph608
ENCODING -1
SWIDTH 268 0
DWIDTH 5 0
BBX 5 15 -1 -4
BITMAP
38
38
38
38
38
38
38
38
38
38
38
38
38
F0
E0
ENDCHAR
STARTCHAR glyph609
ENCODING -1
SWIDTH 263 0
DWIDTH 5 0
BBX 3 11 1 0
BITMAP
E0
E0
E0
E0
E0
E0
E0
E0
E0
E0
E0
ENDCHAR
STARTCHAR glyph610
ENCODING -1
SWIDTH 263 0
DWIDTH 5 0
BBX 4 15 0 -4
BITMAP
70
70
70
70
70
70
70
70
70
70
70
C0
C0
F0
70
ENDCHAR
STARTCHAR glyph611
ENCODING -1
SWIDTH 263 0
DWIDTH 5 0
BBX 3 11 1 0
BITMAP
E0
E0
E0
E0
E0
E0
E0
E0
E0
E0
E0
ENDCHAR
STARTCHAR germandbls.sc
ENCODING -1
SWIDTH 546 0
DWIDTH 11 0
BBX 9 11 1 0
BITMAP
3C00
7F00
E300
E600
EC00
EF00
EF80
E180
E180
FF80
FF00
ENDCHAR
STARTCHAR zero.oldstyle.pnum
ENCODING -1
SWIDTH 614 0
DWIDTH 12 0
BBX 10 11 1 0
BITMAP
1E00
7F80
E1C0
E1C0
C0C0
C0C0
C0C0
E1C0
E1C0
7F80
1E00
ENDCHAR
STARTCHAR seven.pnum
ENCODING -1
SWIDTH 524 0
DWIDTH 11 0
BBX 9 14 1 0
BITMAP
FF80
FF80
0300
0300
0600
0600
0E00
0C00
1C00
1800
1800
3000
3000
7000
ENDCHAR
STARTCHAR b.ss06
ENCODING -1
SWIDTH 566 0
DWIDTH 11 0
BBX 10 15 1 0
BITMAP
C000
C000
C000
C000
DE00
FF00
E380
C180
C180
C1C0
C180
C180
E380
FF00
DE00
ENDCHAR
STARTCHAR c.ss06
ENCODING -1
SWIDTH 529 0
DWIDTH 11 0
BBX 9 11 1 0
BITMAP
1E00
7F00
6380
E180
C000
C000
C000
E180
6380
7F00
1E00
ENDCHAR
STARTCHAR d.ss06
ENCODING -1
SWIDTH 574 0
DWIDTH 11 0
BBX 9 15 1 0
BITMAP
0180
0180
0180
0180
3D80
7F80
E380
C180
C180
C180
C180
C180
E380
7F80
3D80
ENDCHAR
STARTCHAR g.ss06
ENCODING -1
SWIDTH 571 0
DWIDTH 11 0
BBX 9 15 1 -4
BITMAP
3D80
7F80
E380
C180
C180
C180
C180
C180
E380
7F80
3D80
0380
4380
7F00
3E00
ENDCHAR
STARTCHAR o.ss06
ENCODING -1
SWIDTH 578 0
DWIDTH 12 0
BBX 10 11 1 0
BITMAP
1E00
7F80
6180
E1C0
C0C0
C0C0
C0C0
E1C0
6180
7F80
1E00
ENDCHAR
STARTCHAR p.ss06
ENCODING -1
SWIDTH 572 0
DWIDTH 11 0
BBX 9 15 1 -4
BITMAP
DE00
FF00
E380
C180
C180
C180
C180
C180
E380
FF00
DE00
C000
C000
C000
C000
ENDCHAR
STARTCHAR q.ss06
ENCODING -1
SWIDTH 577 0
DWIDTH 12 0
BBX 9 15 1 -4
BITMAP
3D80
7F80
7180
E180
C180
C180
C180
E180
7180
7F80
3D80
0180
0180
0180
0180
ENDCHAR
STARTCHAR e.ss07
ENCODING -1
SWIDTH 536 0
DWIDTH 11 0
BBX 9 11 1 0
BITMAP
1E00
7F00
6380
C180
FF80
FF80
C000
E000
7100
7F80
1F00
ENDCHAR
STARTCHAR g.ss07
ENCODING -1
SWIDTH 566 0
DWIDTH 11 0
BBX 9 15 1 -4
BITMAP
3D80
7F80
E380
C380
C380
C380
C380
C380
E380
7F80
3F80
0380
4300
7F00
7C00
ENDCHAR
STARTCHAR one.pnum
ENCODING -1
SWIDTH 455 0
DWIDTH 9 0
BBX 6 14 1 0
BITMAP
0C
7C
FC
9C
1C
1C
1C
1C
1C
1C
1C
1C
1C
1C
ENDCHAR
STARTCHAR ampersand.c2sc
ENCODING -1
SWIDTH 626 0
DWIDTH 13 0
BBX 11 11 1 0
BITMAP
3C00
7E00
6700
6600
3E00
38C0
7CC0
E6C0
E380
7F80
3EE0
ENDCHAR
STARTCHAR Lslash.c2sc
ENCODING -1
SWIDTH 470 0
DWIDTH 9 0
BBX 9 11 0 0
BITMAP
6000
6000
6000
6400
7C00
E000
6000
6000
6000
7F80
7F80
ENDCHAR
STARTCHAR AE.c2sc
ENCODING -1
SWIDTH 784 0
DWIDTH 16 0
BBX 15 11 0 0
BITMAP
03FE
07FE
07C0
0DC0
0DFC
19FC
39C0
3FC0
7FC0
70FE
E0FE
ENDCHAR
STARTCHAR Thorn.c2sc
ENCODING -1
SWIDTH 504 0
DWIDTH 10 0
BBX 9 11 1 0
BITMAP
C000
C000
FE00
FF00
C300
C380
C300
FF00
FE00
C000
C000
ENDCHAR
STARTCHAR Oslash.c2sc
ENCODING -1
SWIDTH 593 0
DWIDTH 12 0
BBX 10 11 1 0
BITMAP
1EC0
7F80
E3C0
E2C0
C6C0
CCC0
C8C0
D1C0
F1C0
7F80
DE00
ENDCHAR
STARTCHAR Hbar.c2sc
ENCODING -1
SWIDTH 629 0
DWIDTH 13 0
BBX 11 11 1 0
BITMAP
E0C0
FFE0
FFE0
E0C0
E0C0
FFC0
FFC0
E0C0
E0C0
E0C0
E0C0
ENDCHAR
STARTCHAR Eng.c2sc
ENCODING -1
SWIDTH 607 0
DWIDTH 12 0
BBX 10 15 1 -4
BITMAP
E0C0
E0C0
F0C0
F8C0
DCC0
CCC0
C6C0
C7C0
C3C0
C1C0
C1C0
00C0
01C0
0780
0780
ENDCHAR
STARTCHAR Dcroat.c2sc
ENCODING -1
SWIDTH 559 0
DWIDTH 11 0
BBX 11 11 -1 0
BITMAP
3F00
3FC0
30E0
3060
FE60
FE60
3060
3060
30E0
3FC0
3F00
ENDCHAR
STARTCHAR Eth.c2sc
ENCODING -1
SWIDTH 559 0
DWIDTH 11 0
BBX 11 11 -1 0
BITMAP
3F00
3FC0
30E0
3060
FE60
FE60
3060
3060
30E0
3FC0
3F00
ENDCHAR
STARTCHAR Tbar.c2sc
ENCODING -1
SWIDTH 528 0
DWIDTH 11 0
BBX 10 11 0 0
BITMAP
FFC0
FFC0
0C00
0C00
3F00
3F00
0C00
0C00
0C00
0C00
0C00
ENDCHAR
STARTCHAR Agrave.c2sc
ENCODING -1
SWIDTH 577 0
DWIDTH 12 0
BBX 11 15 0 0
BITMAP
3C00
0C00
0600
0000
0E00
0E00
0F00
1B00
1B80
3980
31C0
3FC0
7FC0
60E0
E060
ENDCHAR
STARTCHAR Aacute.c2sc
ENCODING -1
SWIDTH 577 0
DWIDTH 12 0
BBX 11 15 0 0
BITMAP
0380
0700
0600
0000
0E00
0E00
0F00
1B00
1B80
3980
31C0
3FC0
7FC0
60E0
E060
ENDCHAR
STARTCHAR Acircumflex.c2sc
ENCODING -1
SWIDTH 577 0
DWIDTH 12 0
BBX 11 15 0 0
BITMAP
0600
1F00
3980
0000
0E00
0E00
0F00
1B00
1B80
3980
31C0
3FC0
7FC0
60E0
E060
ENDCHAR
STARTCHAR Atilde.c2sc
ENCODING -1
SWIDTH 577 0
DWIDTH 12 0
BBX 11 15 0 0
BITMAP
1C80
3F80
3300
0000
0E00
0E00
0F00
1B00
1B80
3980
31C0
3FC0
7FC0
60E0
E060
ENDCHAR
STARTCHAR Adieresis.c2sc
ENCODING -1
SWIDTH 577 0
DWIDTH 12 0
BBX 11 14 0 0
BITMAP
3980
3980
0000
0E00
0E00
0F00
1B00
1B80
3980
31C0
3FC0
7FC0
60E0
E060
ENDCHAR
STARTCHAR Aring.c2sc
ENCODING -1
SWIDTH 577 0
DWIDTH 12 0
BBX 11 16 0 0
BITMAP
0E00
0900
0900
0E00
0000
0E00
0E00
0F00
1B00
1B80
3980
31C0
3FC0
7FC0
60E0
E060
ENDCHAR
STARTCHAR Aringacute.c2sc
ENCODING -1
SWIDTH 577 0
DWIDTH 12 0
BBX 11 17 0 0
BITMAP
0380
0600
0600
0900
0900
0600
0E00
0E00
0F00
1B00
1B80
3980
31C0
3FC0
7FC0
60E0
E060
ENDCHAR
STARTCHAR Ccedilla.c2sc
ENCODING -1
SWIDTH 562 0
DWIDTH 11 0
BBX 10 15 1 -4
BITMAP
3E00
7F80
E180
C180
C040
C000
C000
C1C0
E180
7F80
3E00
0800
0600
0600
0C00
ENDCHAR
STARTCHAR Egrave.c2sc
ENCODING -1
SWIDTH 484 0
DWIDTH 10 0
BBX 8 15 1 0
BITMAP
70
38
1C
00
FF
FF
E0
E0
FE
FE
E0
E0
E0
FF
FF
ENDCHAR
STARTCHAR Eacute.c2sc
ENCODING -1
SWIDTH 484 0
DWIDTH 10 0
BBX 8 15 1 0
BITMAP
07
0C
18
00
FF
FF
E0
E0
FE
FE
E0
E0
E0
FF
FF
ENDCHAR
STARTCHAR Ecircumflex.c2sc
ENCODING -1
SWIDTH 484 0
DWIDTH 10 0
BBX 8 15 1 0
BITMAP
1C
3E
67
00
FF
FF
E0
E0
FE
FE
E0
E0
E0
FF
FF
ENDCHAR
STARTCHAR Edieresis.c2sc
ENCODING -1
SWIDTH 484 0
DWIDTH 10 0
BBX 8 14 1 0
BITMAP
67
67
00
FF
FF
E0
E0
FE
FE
E0
E0
E0
FF
FF
ENDCHAR
STARTCHAR Igrave.c2sc
ENCODING -1
SWIDTH 248 0
DWIDTH 5 0
BBX 5 15 -1 0
BITMAP
E0
70
38
00
38
38
38
38
38
38
38
38
38
38
38
ENDCHAR
STARTCHAR Iacute.c2sc
ENCODING -1
SWIDTH 248 0
DWIDTH 5 0
BBX 5 15 1 0
BITMAP
38
70
E0
00
E0
E0
E0
E0
E0
E0
E0
E0
E0
E0
E0
ENDCHAR
STARTCHAR Icircumflex.c2sc
ENCODING -1
SWIDTH 248 0
DWIDTH 5 0
BBX 7 15 -1 0
BITMAP
38
6C
C6
00
38
38
38
38
38
38
38
38
38
38
38
ENDCHAR
STARTCHAR Idieresis.c2sc
ENCODING -1
SWIDTH 248 0
DWIDTH 5 0
BBX 7 14 -1 0
BITMAP
C6
EE
00
38
38
38
38
38
38
38
38
38
38
38
ENDCHAR
STARTCHAR Ntilde.c2sc
ENCODING -1
SWIDTH 607 0
DWIDTH 12 0
BBX 10 15 1 0
BITMAP
3980
3F00
2700
0000
E0C0
F0C0
F0C0
F8C0
FCC0
ECC0
E6C0
E7C0
E3C0
E1C0
E1C0
ENDCHAR
STARTCHAR Ograve.c2sc
ENCODING -1
SWIDTH 593 0
DWIDTH 12 0
BBX 10 15 1 0
BITMAP
3800
1800
0C00
0000
1E00
7F80
E1C0
E1C0
C0C0
C0C0
C0C0
E1C0
E1C0
7F80
1E00
ENDCHAR
STARTCHAR Oacute.c2sc
ENCODING -1
SWIDTH 593 0
DWIDTH 12 0
BBX 10 15 1 0
BITMAP
0700
0E00
0C00
0000
1E00
7F80
E1C0
E1C0
C0C0
C0C0
C0C0
E1C0
E1C0
7F80
1E00
ENDCHAR
STARTCHAR Ocircumflex.c2sc
ENCODING -1
SWIDTH 593 0
DWIDTH 12 0
BBX 10 15 1 0
BITMAP
0C00
1E00
3300
0000
1E00
7F80
E1C0
E1C0
C0C0
C0C0
C0C0
E1C0
E1C0
7F80
1E00
ENDCHAR
STARTCHAR Otilde.c2sc
ENCODING -1
SWIDTH 593 0
DWIDTH 12 0
BBX 10 15 1 0
BITMAP
3980
3F00
6700
0000
1E00
7F80
E1C0
E1C0
C0C0
C0C0
C0C0
E1C0
E1C0
7F80
1E00
ENDCHAR
STARTCHAR Odieresis.c2sc
ENCODING -1
SWIDTH 593 0
DWIDTH 12 0
BBX 10 14 1 0
BITMAP
3300
7300
0000
1E00
7F80
E1C0
E1C0
C0C0
C0C0
C0C0
E1C0
E1C0
7F80
1E00
ENDCHAR
STARTCHAR Ugrave.c2sc
ENCODING -1
SWIDTH 564 0
DWIDTH 11 0
BBX 9 15 1 0
BITMAP
7000
1800
1C00
0000
C180
C180
C180
C180
C180
C180
C180
C180
E380
7F00
3E00
ENDCHAR
STARTCHAR Uacute.c2sc
ENCODING -1
SWIDTH 564 0
DWIDTH 11 0
BBX 9 15 1 0
BITMAP
0700
0E00
1C00
0000
C180
C180
C180
C180
C180
C180
C180
C180
E380
7F00
3E00
ENDCHAR
STARTCHAR Ucircumflex.c2sc
ENCODING -1
SWIDTH 564 0
DWIDTH 11 0
BBX 9 15 1 0
BITMAP
1C00
3600
7300
0000
C180
C180
C180
C180
C180
C180
C180
C180
E380
7F00
3E00
ENDCHAR
STARTCHAR Udieresis.c2sc
ENCODING -1
SWIDTH 564 0
DWIDTH 11 0
BBX 9 14 1 0
BITMAP
6300
7300
0000
C180
C180
C180
C180
C180
C180
C180
C180
E380
7F00
3E00
ENDCHAR
STARTCHAR Yacute.c2sc
ENCODING -1
SWIDTH 529 0
DWIDTH 11 0
BBX 11 15 0 0
BITMAP
0380
0600
0C00
0000
E0E0
61C0
7180
3380
1B00
1E00
0E00
0C00
0C00
0C00
0C00
ENDCHAR
STARTCHAR Amacron.c2sc
ENCODING -1
SWIDTH 577 0
DWIDTH 12 0
BBX 11 14 0 0
BITMAP
1F80
1F80
0000
0E00
0E00
0F00
1B00
1B80
3980
31C0
3FC0
7FC0
60E0
E060
ENDCHAR
STARTCHAR Abreve.c2sc
ENCODING -1
SWIDTH 577 0
DWIDTH 12 0
BBX 11 15 0 0
BITMAP
1180
1980
0F00
0000
0E00
0E00
0F00
1B00
1B80
3980
31C0
3FC0
7FC0
60E0
E060
ENDCHAR
STARTCHAR Aogonek.c2sc
ENCODING -1
SWIDTH 577 0
DWIDTH 12 0
BBX 12 15 0 -4
BITMAP
0600
0F00
0F00
1F80
1980
1980
39C0
3FC0
7FE0
6060
6060
80D0
00C0
00E0
00E0
ENDCHAR
STARTCHAR Cacute.c2sc
ENCODING -1
SWIDTH 562 0
DWIDTH 11 0
BBX 10 15 1 0
BITMAP
0700
0E00
0C00
0000
3E00
7F80
E180
C180
C040
C000
C000
C1C0
E180
7F80
3E00
ENDCHAR
STARTCHAR Ccircumflex.c2sc
ENCODING -1
SWIDTH 562 0
DWIDTH 11 0
BBX 10 15 1 0
BITMAP
0C00
3E00
7300
0000
3E00
7F80
E180
C180
C040
C000
C000
C1C0
E180
7F80
3E00
ENDCHAR
STARTCHAR Cdotaccent.c2sc
ENCODING -1
SWIDTH 562 0
DWIDTH 11 0
BBX 10 14 1 0
BITMAP
0C00
1C00
0000
3E00
7F80
E180
C180
C040
C000
C000
C1C0
E180
7F80
3E00
ENDCHAR
STARTCHAR Ccaron.c2sc
ENCODING -1
SWIDTH 562 0
DWIDTH 11 0
BBX 10 15 1 0
BITMAP
7300
1E00
0C00
0000
3E00
7F80
E180
C180
C040
C000
C000
C1C0
E180
7F80
3E00
ENDCHAR
STARTCHAR Dcaron.c2sc
ENCODING -1
SWIDTH 559 0
DWIDTH 11 0
BBX 9 15 1 0
BITMAP
CE00
6C00
3800
0000
FC00
FF00
C380
C180
C180
C180
C180
C180
C380
FF00
FC00
ENDCHAR
STARTCHAR Emacron.c2sc
ENCODING -1
SWIDTH 484 0
DWIDTH 10 0
BBX 8 14 1 0
BITMAP
7F
7F
00
FF
FF
E0
E0
FE
FE
E0
E0
E0
FF
FF
ENDCHAR
STARTCHAR Ebreve.c2sc
ENCODING -1
SWIDTH 484 0
DWIDTH 10 0
BBX 8 15 1 0
BITMAP
62
26
3C
00
FF
FF
E0
E0
FE
FE
E0
E0
E0
FF
FF
ENDCHAR
STARTCHAR Edotaccent.c2sc
ENCODING -1
SWIDTH 484 0
DWIDTH 10 0
BBX 8 14 1 0
BITMAP
18
1C
00
FF
FF
E0
E0
FE
FE
E0
E0
E0
FF
FF
ENDCHAR
STARTCHAR Eogonek.c2sc
ENCODING -1
SWIDTH 484 0
DWIDTH 10 0
BBX 8 15 1 -4
BITMAP
FF
FF
E0
E0
FF
FF
E0
E0
E0
FF
FF
06
0C
0F
07
ENDCHAR
STARTCHAR Ecaron.c2sc
ENCODING -1
SWIDTH 484 0
DWIDTH 10 0
BBX 8 15 1 0
BITMAP
67
3C
1C
00
FF
FF
E0
E0
FE
FE
E0
E0
E0
FF
FF
ENDCHAR
STARTCHAR Gcircumflex.c2sc
ENCODING -1
SWIDTH 581 0
DWIDTH 12 0
BBX 10 15 1 0
BITMAP
0C00
3E00
7300
0000
1F00
7F80
61C0
E0C0
C000
C7C0
C7C0
E0C0
70C0
7FC0
1F00
ENDCHAR
STARTCHAR Gbreve.c2sc
ENCODING -1
SWIDTH 581 0
DWIDTH 12 0
BBX 10 15 1 0
BITMAP
2300
3300
1E00
0000
1F00
7F80
61C0
E0C0
C000
C7C0
C7C0
E0C0
70C0
7FC0
1F00
ENDCHAR
STARTCHAR Gdotaccent.c2sc
ENCODING -1
SWIDTH 581 0
DWIDTH 12 0
BBX 10 14 1 0
BITMAP
0C00
1C00
0000
1F00
7F80
61C0
E0C0
C000
C7C0
C7C0
E0C0
70C0
7FC0
1F00
ENDCHAR
STARTCHAR uni0122.c2sc
ENCODING -1
SWIDTH 581 0
DWIDTH 12 0
BBX 10 16 1 -5
BITMAP
1F00
7F80
61C0
E0C0
C000
C7C0
C7C0
E0C0
70C0
7FC0
1F00
0000
0C00
0C00
0C00
1800
ENDCHAR
STARTCHAR Hcircumflex.c2sc
ENCODING -1
SWIDTH 608 0
DWIDTH 12 0
BBX 10 15 1 0
BITMAP
0C00
1E00
3300
0000
E0C0
E0C0
E0C0
E0C0
FFC0
FFC0
E0C0
E0C0
E0C0
E0C0
E0C0
ENDCHAR
STARTCHAR Itilde.c2sc
ENCODING -1
SWIDTH 248 0
DWIDTH 5 0
BBX 7 15 -1 0
BITMAP
66
FE
9C
00
38
38
38
38
38
38
38
38
38
38
38
ENDCHAR
STARTCHAR Imacron.c2sc
ENCODING -1
SWIDTH 248 0
DWIDTH 5 0
BBX 7 14 -1 0
BITMAP
FE
FE
00
38
38
38
38
38
38
38
38
38
38
38
ENDCHAR
STARTCHAR Ibreve.c2sc
ENCODING -1
SWIDTH 248 0
DWIDTH 5 0
BBX 7 15 -1 0
BITMAP
C6
6C
38
00
38
38
38
38
38
38
38
38
38
38
38
ENDCHAR
STARTCHAR Iogonek.c2sc
ENCODING -1
SWIDTH 248 0
DWIDTH 5 0
BBX 4 15 0 -4
BITMAP
70
70
70
70
70
70
70
70
70
70
70
60
C0
F0
70
ENDCHAR
STARTCHAR Idotaccent.c2sc
ENCODING -1
SWIDTH 248 0
DWIDTH 5 0
BBX 3 14 1 0
BITMAP
E0
E0
00
E0
E0
E0
E0
E0
E0
E0
E0
E0
E0
E0
ENDCHAR
STARTCHAR Jcircumflex.c2sc
ENCODING -1
SWIDTH 479 0
DWIDTH 10 0
BBX 10 16 1 -1
BITMAP
0600
0F80
19C0
0000
0700
0700
0700
0700
0700
0700
0700
0700
C700
EE00
7E00
3800
ENDCHAR
STARTCHAR uni0136.c2sc
ENCODING -1
SWIDTH 544 0
DWIDTH 11 0
BBX 10 15 1 -4
BITMAP
E3C0
E300
E700
EE00
FC00
FC00
FE00
E600
E700
E380
E1C0
1800
1800
1800
3000
ENDCHAR
STARTCHAR Lacute.c2sc
ENCODING -1
SWIDTH 465 0
DWIDTH 9 0
BBX 8 15 1 0
BITMAP
38
60
E0
00
E0
E0
E0
E0
E0
E0
E0
E0
E0
FF
FF
ENDCHAR
STARTCHAR uni013B.c2sc
ENCODING -1
SWIDTH 465 0
DWIDTH 9 0
BBX 8 15 1 -4
BITMAP
E0
E0
E0
E0
E0
E0
E0
E0
E0
FF
FF
18
18
18
30
ENDCHAR
STARTCHAR Lcaron.c2sc
ENCODING -1
SWIDTH 465 0
DWIDTH 9 0
BBX 8 11 1 0
BITMAP
EC
EC
EC
E8
E0
E0
E0
E0
E0
FF
FF
ENDCHAR
STARTCHAR Ldot.c2sc
ENCODING -1
SWIDTH 465 0
DWIDTH 9 0
BBX 8 11 1 0
BITMAP
E0
E0
E0
E0
EC
EC
E0
E0
E0
FF
FF
ENDCHAR
STARTCHAR Nacute.c2sc
ENCODING -1
SWIDTH 607 0
DWIDTH 12 0
BBX 10 15 1 0
BITMAP
0780
0600
0C00
0000
E0C0
F0C0
F0C0
F8C0
FCC0
ECC0
E6C0
E7C0
E3C0
E1C0
E1C0
ENDCHAR
STARTCHAR uni0145.c2sc
ENCODING -1
SWIDTH 607 0
DWIDTH 12 0
BBX 10 16 1 -5
BITMAP
E0C0
F0C0
F0C0
F8C0
FCC0
ECC0
E6C0
E7C0
E3C0
E1C0
E1C0
0000
0C00
0C00
0C00
1800
ENDCHAR
STARTCHAR Ncaron.c2sc
ENCODING -1
SWIDTH 607 0
DWIDTH 12 0
BBX 10 15 1 0
BITMAP
3380
1E00
0C00
0000
E0C0
F0C0
F0C0
F8C0
FCC0
ECC0
E6C0
E7C0
E3C0
E1C0
E1C0
ENDCHAR
STARTCHAR Omacron.c2sc
ENCODING -1
SWIDTH 593 0
DWIDTH 12 0
BBX 10 14 1 0
BITMAP
3F00
3F00
0000
1E00
7F80
E1C0
E1C0
C0C0
C0C0
C0C0
E1C0
E1C0
7F80
1E00
ENDCHAR
STARTCHAR Obreve.c2sc
ENCODING -1
SWIDTH 593 0
DWIDTH 12 0
BBX 10 15 1 0
BITMAP
3300
3300
1E00
0000
1E00
7F80
E1C0
E1C0
C0C0
C0C0
C0C0
E1C0
E1C0
7F80
1E00
ENDCHAR
STARTCHAR Ohungarumlaut.c2sc
ENCODING -1
SWIDTH 593 0
DWIDTH 12 0
BBX 10 15 1 0
BITMAP
0DC0
1B80
3700
0000
1E00
7F80
E1C0
E1C0
C0C0
C0C0
C0C0
E1C0
E1C0
7F80
1E00
ENDCHAR
STARTCHAR Racute.c2sc
ENCODING -1
SWIDTH 544 0
DWIDTH 11 0
BBX 10 15 1 0
BITMAP
0E00
0C00
1800
0000
FE00
FF80
E380
E180
E380
FF00
FE00
E700
E300
E380
E1C0
ENDCHAR
STARTCHAR uni0156.c2sc
ENCODING -1
SWIDTH 544 0
DWIDTH 11 0
BBX 10 15 1 -4
BITMAP
FE00
FF80
E380
E180
E380
FF00
FE00
E700
E300
E380
E180
1840
1800
1800
3000
ENDCHAR
STARTCHAR Rcaron.c2sc
ENCODING -1
SWIDTH 544 0
DWIDTH 11 0
BBX 10 15 1 0
BITMAP
6600
3C00
1800
0000
FE00
FF80
E380
E180
E380
FF00
FE00
E700
E300
E380
E1C0
ENDCHAR
STARTCHAR Sacute.c2sc
ENCODING -1
SWIDTH 525 0
DWIDTH 11 0
BBX 9 15 1 0
BITMAP
0700
0C00
1C00
0000
3E00
7F00
E380
E000
7C00
3F00
0780
0180
E380
7F80
3E00
ENDCHAR
STARTCHAR Scircumflex.c2sc
ENCODING -1
SWIDTH 525 0
DWIDTH 11 0
BBX 9 15 1 0
BITMAP
1C00
3600
6700
0000
3E00
7F00
E380
E000
7C00
3F00
0780
0180
E380
7F80
3E00
ENDCHAR
STARTCHAR Scedilla.c2sc
ENCODING -1
SWIDTH 525 0
DWIDTH 11 0
BBX 9 15 1 -4
BITMAP
3E00
7F00
E380
E000
7C00
3F00
0780
0180
E380
7F80
3E00
1800
0E00
0600
1C00
ENDCHAR
STARTCHAR Scaron.c2sc
ENCODING -1
SWIDTH 525 0
DWIDTH 11 0
BBX 9 15 1 0
BITMAP
6700
3600
1C00
0000
3E00
7F00
E380
E000
7C00
3F00
0780
0180
E380
7F80
3E00
ENDCHAR
STARTCHAR uni021A.c2sc
ENCODING -1
SWIDTH 528 0
DWIDTH 11 0
BBX 10 16 0 -5
BITMAP
FFC0
FFC0
0C00
0C00
0C00
0C00
0C00
0C00
0C00
0C00
0C00
0000
0C00
0C00
0C00
0800
ENDCHAR
STARTCHAR Tcaron.c2sc
ENCODING -1
SWIDTH 528 0
DWIDTH 11 0
BBX 10 15 0 0
BITMAP
3380
1E00
0C00
0000
FFC0
FFC0
0C00
0C00
0C00
0C00
0C00
0C00
0C00
0C00
0C00
ENDCHAR
STARTCHAR uni0162.c2sc
ENCODING -1
SWIDTH 528 0
DWIDTH 11 0
BBX 10 15 0 -4
BITMAP
FFC0
FFC0
0C00
0C00
0C00
0C00
0C00
0C00
0C00
0C00
0C00
0C00
0600
0600
0E00
ENDCHAR
STARTCHAR Utilde.c2sc
ENCODING -1
SWIDTH 564 0
DWIDTH 11 0
BBX 9 15 1 0
BITMAP
3900
7F00
6600
0000
C180
C180
C180
C180
C180
C180
C180
C180
E380
7F00
3E00
ENDCHAR
STARTCHAR Umacron.c2sc
ENCODING -1
SWIDTH 564 0
DWIDTH 11 0
BBX 9 14 1 0
BITMAP
7F00
7F00
0000
C180
C180
C180
C180
C180
C180
C180
C180
E380
7F00
3E00
ENDCHAR
STARTCHAR Ubreve.c2sc
ENCODING -1
SWIDTH 564 0
DWIDTH 11 0
BBX 9 15 1 0
BITMAP
6300
3200
1E00
0000
C180
C180
C180
C180
C180
C180
C180
C180
E380
7F00
3E00
ENDCHAR
STARTCHAR Uring.c2sc
ENCODING -1
SWIDTH 564 0
DWIDTH 11 0
BBX 9 16 1 0
BITMAP
1C00
1200
3200
1C00
0000
C180
C180
C180
C180
C180
C180
C180
C180
E380
7F00
3E00
ENDCHAR
STARTCHAR Uhungarumlaut.c2sc
ENCODING -1
SWIDTH 564 0
DWIDTH 11 0
BBX 10 15 1 0
BITMAP
1DC0
1B00
3600
0000
C180
C180
C180
C180
C180
C180
C180
C180
E380
7F00
3E00
ENDCHAR
STARTCHAR Uogonek.c2sc
ENCODING -1
SWIDTH 564 0
DWIDTH 11 0
BBX 9 15 1 -4
BITMAP
C180
C180
C180
C180
C180
C180
C180
C180
E380
7F00
3E00
0C00
0C00
0E00
0E00
ENDCHAR
STARTCHAR Wcircumflex.c2sc
ENCODING -1
SWIDTH 753 0
DWIDTH 15 0
BBX 15 15 0 0
BITMAP
0380
06C0
0E60
0000
E38E
638C
638C
62CC
36DC
36D8
36D8
3478
1C78
1C70
1C30
ENDCHAR
STARTCHAR Ycircumflex.c2sc
ENCODING -1
SWIDTH 529 0
DWIDTH 11 0
BBX 11 15 0 0
BITMAP
0C00
1F00
3380
0000
E0E0
61C0
7180
3380
1B00
1E00
0E00
0C00
0C00
0C00
0C00
ENDCHAR
STARTCHAR Ydieresis.c2sc
ENCODING -1
SWIDTH 529 0
DWIDTH 11 0
BBX 11 14 0 0
BITMAP
3380
3380
0000
E0E0
61C0
7180
3380
1B00
1E00
0E00
0C00
0C00
0C00
0C00
ENDCHAR
STARTCHAR Zacute.c2sc
ENCODING -1
SWIDTH 520 0
DWIDTH 10 0
BBX 9 15 1 0
BITMAP
0700
0C00
1800
0000
FF80
FF80
0700
0E00
0C00
1800
3800
7000
E000
FF80
FF80
ENDCHAR
STARTCHAR Zdotaccent.c2sc
ENCODING -1
SWIDTH 520 0
DWIDTH 10 0
BBX 9 14 1 0
BITMAP
1800
1800
0000
FF80
FF80
0700
0E00
0C00
1800
3800
7000
E000
FF80
FF80
ENDCHAR
STARTCHAR Zcaron.c2sc
ENCODING -1
SWIDTH 520 0
DWIDTH 10 0
BBX 9 15 1 0
BITMAP
6700
3C00
1800
0000
FF80
FF80
0700
0E00
0C00
1800
3800
7000
E000
FF80
FF80
ENDCHAR
STARTCHAR two.pnum
ENCODING -1
SWIDTH 568 0
DWIDTH 11 0
BBX 9 14 1 0
BITMAP
3E00
7F00
E380
C380
C380
0380
0700
0600
0C00
1800
3000
6000
FF80
FF80
ENDCHAR
STARTCHAR three.pnum
ENCODING -1
SWIDTH 568 0
DWIDTH 11 0
BBX 9 14 1 0
BITMAP
3E00
7F00
E380
C380
0380
0300
1E00
1F00
0380
0180
C180
E380
7F00
3E00
ENDCHAR
STARTCHAR four.pnum
ENCODING -1
SWIDTH 568 0
DWIDTH 11 0
BBX 10 14 1 0
BITMAP
0700
0700
0F00
1F00
1B00
3300
7300
6300
C300
FFC0
FFC0
0300
0300
0300
ENDCHAR
STARTCHAR five.pnum
ENCODING -1
SWIDTH 568 0
DWIDTH 11 0
BBX 9 14 1 0
BITMAP
7F80
7F80
6000
6000
6000
7E00
7F00
6380
0180
0180
C180
E380
7F00
3E00
ENDCHAR
STARTCHAR six.pnum
ENCODING -1
SWIDTH 578 0
DWIDTH 12 0
BBX 10 14 1 0
BITMAP
0E00
1E00
3800
7000
6000
FF00
FF80
E380
E180
E1C0
E180
6380
7F00
1E00
ENDCHAR
STARTCHAR eight.pnum
ENCODING -1
SWIDTH 587 0
DWIDTH 12 0
BBX 9 14 1 0
BITMAP
3E00
7F00
6380
E180
E180
6380
3F00
7F00
E380
C180
C180
E380
7F80
3E00
ENDCHAR
STARTCHAR nine.pnum
ENCODING -1
SWIDTH 578 0
DWIDTH 12 0
BBX 9 14 1 0
BITMAP
3C00
7F00
E300
C380
C180
C180
E380
7F80
3D80
0380
0300
0700
3E00
3800
ENDCHAR
STARTCHAR zero.pnum
ENCODING -1
SWIDTH 587 0
DWIDTH 12 0
BBX 9 14 1 0
BITMAP
3E00
7F00
6380
E180
C180
C180
C180
C180
C180
C180
E180
6380
7F00
3E00
ENDCHAR
STARTCHAR G_acutecomb.ccmp
ENCODING -1
SWIDTH 680 0
DWIDTH 14 0
BBX 12 18 1 0
BITMAP
0380
0700
0E00
0000
1F80
3FC0
70E0
6060
E070
E000
E000
E3F0
E3F0
E070
6070
7070
3FE0
0F80
ENDCHAR
STARTCHAR g_acutecomb.ccmp
ENCODING -1
SWIDTH 566 0
DWIDTH 11 0
BBX 9 19 1 -4
BITMAP
0700
0C00
1C00
0000
3D80
7F80
E380
C180
C180
C180
C180
C180
E380
7F80
3D80
0380
4380
FF00
3E00
ENDCHAR
STARTCHAR N_gravecomb.ccmp
ENCODING -1
SWIDTH 709 0
DWIDTH 14 0
BBX 12 18 1 0
BITMAP
1C00
0E00
0600
0000
E070
F070
F070
F870
FC70
EC70
EE70
E770
E370
E3F0
E1F0
E0F0
E0F0
E070
ENDCHAR
STARTCHAR n_gravecomb.ccmp
ENCODING -1
SWIDTH 556 0
DWIDTH 11 0
BBX 9 15 1 0
BITMAP
7000
1800
1C00
0000
CE00
FF00
E380
E380
E380
E380
E380
E380
E380
E380
E380
ENDCHAR
STARTCHAR A_uni030F.ccmp
ENCODING -1
SWIDTH 665 0
DWIDTH 13 0
BBX 13 18 0 0
BITMAP
7700
1B00
0D80
0000
0700
0700
0780
0D80
0D80
1CC0
18C0
18E0
3860
3FE0
3FF0
7030
6038
E038
ENDCHAR
STARTCHAR a_uni030F.ccmp
ENCODING -1
SWIDTH 541 0
DWIDTH 11 0
BBX 10 15 0 0
BITMAP
EE00
3600
1B00
0000
1F00
3F80
7180
01C0
1FC0
3FC0
71C0
61C0
71C0
3FC0
1DC0
ENDCHAR
STARTCHAR E_uni030F.ccmp
ENCODING -1
SWIDTH 565 0
DWIDTH 11 0
BBX 10 18 1 0
BITMAP
FC00
7E00
3F00
0000
FFC0
FFC0
E000
E000
E000
E000
FF80
FF80
E000
E000
E000
E000
FFC0
FFC0
ENDCHAR
STARTCHAR e_uni030F.ccmp
ENCODING -1
SWIDTH 536 0
DWIDTH 11 0
BBX 10 15 0 0
BITMAP
EC00
7600
3B00
0000
0F00
3F80
31C0
60C0
7FC0
7FC0
6000
7000
38C0
3FC0
0F00
ENDCHAR
STARTCHAR I_uni030F.ccmp
ENCODING -1
SWIDTH 282 0
DWIDTH 6 0
BBX 8 18 -3 0
BITMAP
EE
37
1B
00
06
06
06
06
06
06
06
06
06
06
06
06
06
06
ENDCHAR
STARTCHAR dotlessi_uni030F.ccmp
ENCODING -1
SWIDTH 262 0
DWIDTH 5 0
BBX 8 15 -3 0
BITMAP
EE
36
1B
00
0E
0E
0E
0E
0E
0E
0E
0E
0E
0E
0E
ENDCHAR
STARTCHAR O_uni030F.ccmp
ENCODING -1
SWIDTH 690 0
DWIDTH 14 0
BBX 12 18 1 0
BITMAP
FE00
3700
1B00
0000
0F00
3FC0
70E0
6060
E070
E070
E070
E070
E070
E070
6060
70E0
3FC0
0F00
ENDCHAR
STARTCHAR o_uni030F.ccmp
ENCODING -1
SWIDTH 569 0
DWIDTH 11 0
BBX 10 15 0 0
BITMAP
EE00
3600
1B00
0000
1F00
3F80
71C0
60C0
60C0
60C0
60C0
60C0
71C0
3F80
1F00
ENDCHAR
STARTCHAR R_uni030F.ccmp
ENCODING -1
SWIDTH 624 0
DWIDTH 12 0
BBX 12 18 0 0
BITMAP
FE00
3700
1B00
0000
7F80
7FC0
70E0
7060
7060
7060
70E0
7FC0
7F80
7180
71C0
70E0
70E0
7070
ENDCHAR
STARTCHAR r_uni030F.ccmp
ENCODING -1
SWIDTH 351 0
DWIDTH 7 0
BBX 8 15 -1 0
BITMAP
FC
7E
3E
00
37
3F
38
38
38
38
38
38
38
38
38
ENDCHAR
STARTCHAR U_uni030F.ccmp
ENCODING -1
SWIDTH 651 0
DWIDTH 13 0
BBX 11 18 1 0
BITMAP
EE00
3600
1B00
0000
E0E0
E0E0
E0E0
E0E0
E0E0
E0E0
E0E0
E0E0
E0E0
E0E0
E0E0
71C0
7FC0
1F00
ENDCHAR
STARTCHAR u_uni030F.ccmp
ENCODING -1
SWIDTH 555 0
DWIDTH 11 0
BBX 10 15 0 0
BITMAP
EE00
3600
1B00
0000
61C0
61C0
61C0
61C0
61C0
61C0
61C0
71C0
71C0
3FC0
1EC0
ENDCHAR
STARTCHAR Upsilon1_acutecomb.ccmp
ENCODING -1
SWIDTH 608 0
DWIDTH 12 0
BBX 15 15 -3 0
BITMAP
C000
CE06
8E0E
071C
0318
03B8
01B0
01B0
00E0
00E0
00E0
00E0
00E0
00E0
00E0
ENDCHAR
STARTCHAR B_dotbelowcomb.ccmp
ENCODING -1
SWIDTH 630 0
DWIDTH 13 0
BBX 10 17 2 -3
BITMAP
FE00
FF80
C380
C180
C180
C380
FF00
FF80
C180
C1C0
C1C0
C1C0
FF80
FF00
0000
1800
1800
ENDCHAR
STARTCHAR b_dotbelowcomb.ccmp
ENCODING -1
SWIDTH 562 0
DWIDTH 11 0
BBX 9 18 1 -3
BITMAP
C000
C000
C000
C000
DE00
FF00
E380
C180
C180
C180
C180
C180
E380
FF00
DE00
0000
0C00
0C00
ENDCHAR
STARTCHAR D_dotbelowcomb.ccmp
ENCODING -1
SWIDTH 653 0
DWIDTH 13 0
BBX 11 17 1 -3
BITMAP
FE00
FF80
E1C0
E0C0
E0E0
E0E0
E060
E060
E0E0
E0E0
E0C0
E1C0
FF80
FE00
0000
1C00
1C00
ENDCHAR
STARTCHAR d_dotbelowcomb.ccmp
ENCODING -1
SWIDTH 564 0
DWIDTH 11 0
BBX 9 18 1 -3
BITMAP
0180
0180
0180
0180
3D80
7F80
E380
C180
C180
C180
C180
C180
E380
7F80
3D80
0000
0C00
0C00
ENDCHAR
STARTCHAR D_uniF6C3.ccmp
ENCODING -1
SWIDTH 653 0
DWIDTH 13 0
BBX 11 18 1 -4
BITMAP
FE00
FF80
E1C0
E0C0
E0E0
E0E0
E060
E060
E0E0
E0E0
E0C0
E1C0
FF80
FE00
0C00
0C00
1800
1800
ENDCHAR
STARTCHAR d_uniF6C3.ccmp
ENCODING -1
SWIDTH 564 0
DWIDTH 11 0
BBX 9 20 1 -5
BITMAP
0180
0180
0180
0180
3D80
7F80
E380
C180
C180
C180
C180
C180
E380
7F80
3D80
0000
0C00
0C00
0C00
1800
ENDCHAR
STARTCHAR H_dotbelowcomb.ccmp
ENCODING -1
SWIDTH 710 0
DWIDTH 14 0
BBX 12 17 1 -3
BITMAP
E070
E070
E070
E070
E070
E070
FFF0
FFF0
E070
E070
E070
E070
E070
E070
0000
0600
0600
ENDCHAR
STARTCHAR h_dotbelowcomb.ccmp
ENCODING -1
SWIDTH 555 0
DWIDTH 11 0
BBX 9 18 1 -3
BITMAP
E000
E000
E000
E000
FE00
FF00
E380
E380
E380
E380
E380
E380
E380
E380
E380
0000
1C00
1C00
ENDCHAR
STARTCHAR K_acutecomb.ccmp
ENCODING -1
SWIDTH 630 0
DWIDTH 13 0
BBX 12 18 1 0
BITMAP
0700
0E00
0C00
0000
E0E0
E1C0
E380
E700
E700
EE00
FC00
FE00
F700
E380
E380
E1C0
E0E0
E0F0
ENDCHAR
STARTCHAR k_acutecomb.ccmp
ENCODING -1
SWIDTH 521 0
DWIDTH 10 0
BBX 10 19 1 0
BITMAP
0700
0E00
0C00
0000
E000
E000
E000
E000
E380
E700
EE00
FC00
F800
FC00
EC00
EE00
E700
E380
E3C0
ENDCHAR
STARTCHAR K_dotbelowcomb.ccmp
ENCODING -1
SWIDTH 630 0
DWIDTH 13 0
BBX 12 16 1 -2
BITMAP
E0E0
E1C0
E380
E700
E700
EE00
FC00
FE00
F700
E380
E380
E1C0
E0E0
E0E0
0E10
0E00
ENDCHAR
STARTCHAR k_dotbelowcomb.ccmp
ENCODING -1
SWIDTH 521 0
DWIDTH 10 0
BBX 10 17 1 -2
BITMAP
E000
E000
E000
E000
E380
E700
EE00
FC00
F800
FC00
EC00
EE00
E700
E380
E380
1840
1C00
ENDCHAR
STARTCHAR L_dotbelowcomb.ccmp
ENCODING -1
SWIDTH 541 0
DWIDTH 11 0
BBX 9 17 1 -3
BITMAP
E000
E000
E000
E000
E000
E000
E000
E000
E000
E000
E000
E000
FF80
FF80
0000
0C00
0C00
ENDCHAR
STARTCHAR l_dotbelowcomb.ccmp
ENCODING -1
SWIDTH 255 0
DWIDTH 5 0
BBX 3 18 1 -3
BITMAP
E0
E0
E0
E0
E0
E0
E0
E0
E0
E0
E0
E0
E0
E0
E0
00
E0
E0
ENDCHAR
STARTCHAR M_dotbelowcomb.ccmp
ENCODING -1
SWIDTH 875 0
DWIDTH 18 0
BBX 15 17 1 -3
BITMAP
F00E
F01E
F81E
F81E
F836
EC36
EC76
EE66
E666
E6C6
E7C6
E3C6
E386
E186
0000
0180
0380
ENDCHAR
STARTCHAR m_dotbelowcomb.ccmp
ENCODING -1
SWIDTH 870 0
DWIDTH 17 0
BBX 15 14 1 -3
BITMAP
DE7C
FFFC
E38E
C386
C386
C386
C386
C386
C386
C386
C386
0000
0180
0380
ENDCHAR
STARTCHAR N_dotbelowcomb.ccmp
ENCODING -1
SWIDTH 709 0
DWIDTH 14 0
BBX 12 17 1 -3
BITMAP
E070
F070
F070
F870
FC70
EC70
EE70
E770
E370
E3F0
E1F0
E0F0
E0F0
E070
0000
0600
0600
ENDCHAR
STARTCHAR n_dotbelowcomb.ccmp
ENCODING -1
SWIDTH 556 0
DWIDTH 11 0
BBX 9 14 1 -3
BITMAP
CE00
FF00
E380
E380
E380
E380
E380
E380
E380
E380
E380
0000
1C00
1C00
ENDCHAR
STARTCHAR O_tildecomb_acutecomb.ccmp
ENCODING -1
SWIDTH 690 0
DWIDTH 14 0
BBX 12 20 1 0
BITMAP
0300
0600
0000
0C80
1300
0000
0F00
3FC0
70E0
6060
E070
E070
E070
E070
E070
E070
6060
70E0
3FC0
0F00
ENDCHAR
STARTCHAR P_acutecomb.ccmp
ENCODING -1
SWIDTH 639 0
DWIDTH 13 0
BBX 10 18 2 0
BITMAP
0E00
1C00
1800
0000
FF00
FF80
C1C0
C0C0
C0C0
C0C0
C1C0
FF80
FF00
C000
C000
C000
C000
C000
ENDCHAR
STARTCHAR p_acutecomb.ccmp
ENCODING -1
SWIDTH 562 0
DWIDTH 11 0
BBX 9 19 1 -4
BITMAP
0380
0600
0C00
0000
DE00
FF00
E380
C180
C180
C180
C180
C180
E380
FF00
DE00
C000
C000
C000
C000
ENDCHAR
STARTCHAR R_dotbelowcomb.ccmp
ENCODING -1
SWIDTH 624 0
DWIDTH 12 0
BBX 11 17 1 -3
BITMAP
FF00
FF80
E1C0
E0C0
E0C0
E0C0
E1C0
FF80
FF00
E300
E380
E1C0
E1C0
E0E0
0000
0C00
0C00
ENDCHAR
STARTCHAR r_dotbelowcomb.ccmp
ENCODING -1
SWIDTH 351 0
DWIDTH 7 0
BBX 6 14 1 -3
BITMAP
DC
FC
E0
E0
E0
E0
E0
E0
E0
E0
E0
00
E0
E0
ENDCHAR
STARTCHAR S_dotbelowcomb.ccmp
ENCODING -1
SWIDTH 603 0
DWIDTH 12 0
BBX 10 17 1 -3
BITMAP
3F00
7F80
E1C0
E0C0
E000
7000
3E00
1F80
03C0
00C0
C0C0
E1C0
7F80
1F00
0000
0C00
0E00
ENDCHAR
STARTCHAR s_dotbelowcomb.ccmp
ENCODING -1
SWIDTH 516 0
DWIDTH 10 0
BBX 8 14 1 -3
BITMAP
3C
FF
E7
C3
F0
7E
0F
C3
C3
FF
3C
00
1C
1C
ENDCHAR
STARTCHAR T_dotbelowcomb.ccmp
ENCODING -1
SWIDTH 606 0
DWIDTH 12 0
BBX 12 17 0 -3
BITMAP
FFF0
FFF0
0600
0600
0600
0600
0600
0600
0600
0600
0600
0600
0600
0600
0000
0600
0600
ENDCHAR
STARTCHAR t_dotbelowcomb.ccmp
ENCODING -1
SWIDTH 332 0
DWIDTH 7 0
BBX 6 17 0 -3
BITMAP
30
30
30
FC
FC
30
30
30
30
30
30
38
3C
1C
00
1C
1C
ENDCHAR
STARTCHAR U_tildecomb_acutecomb.ccmp
ENCODING -1
SWIDTH 651 0
DWIDTH 13 0
BBX 11 20 1 0
BITMAP
0300
0400
0000
1900
1700
0000
E0E0
E0E0
E0E0
E0E0
E0E0
E0E0
E0E0
E0E0
E0E0
E0E0
E0E0
71C0
7FC0
1F00
ENDCHAR
STARTCHAR V_tildecomb.ccmp
ENCODING -1
SWIDTH 646 0
DWIDTH 13 0
BBX 13 18 0 0
BITMAP
0CC0
1FC0
1380
0000
E038
6030
7070
7070
3060
38E0
18C0
18C0
1DC0
0D80
0D80
0F80
0700
0700
ENDCHAR
STARTCHAR v_tildecomb.ccmp
ENCODING -1
SWIDTH 494 0
DWIDTH 10 0
BBX 10 15 0 0
BITMAP
3980
3F00
6700
0000
E1C0
6180
6180
7380
3300
3300
3F00
1E00
1E00
1E00
0C00
ENDCHAR
STARTCHAR V_dotbelowcomb.ccmp
ENCODING -1
SWIDTH 646 0
DWIDTH 13 0
BBX 13 17 0 -3
BITMAP
E038
6030
7070
7070
3060
38E0
18C0
18C0
1DC0
0D80
0D80
0F80
0700
0700
0000
0700
0700
ENDCHAR
STARTCHAR v_dotbelowcomb.ccmp
ENCODING -1
SWIDTH 494 0
DWIDTH 10 0
BBX 10 14 0 -3
BITMAP
E1C0
6180
6180
7380
3300
3300
3F00
1E00
1E00
1E00
0C00
0000
0C00
0C00
ENDCHAR
STARTCHAR W_dotbelowcomb.ccmp
ENCODING -1
SWIDTH 879 0
DWIDTH 18 0
BBX 16 17 1 -3
BITMAP
C183
C183
E3C7
E3C7
63C6
6366
6666
766E
366C
363C
3C3C
3C3C
1C3C
1818
0000
0180
0180
ENDCHAR
STARTCHAR w_dotbelowcomb.ccmp
ENCODING -1
SWIDTH 743 0
DWIDTH 15 0
BBX 15 14 0 -3
BITMAP
E38E
638C
638C
639C
36D8
36D8
36D8
3C78
1C70
1C70
1830
0000
0380
0380
ENDCHAR
STARTCHAR Z_dotbelowcomb.ccmp
ENCODING -1
SWIDTH 602 0
DWIDTH 12 0
BBX 10 17 1 -3
BITMAP
FFC0
FFC0
0180
0380
0700
0600
0E00
1C00
1800
3800
7000
E000
FFC0
FFC0
0000
0C00
0C00
ENDCHAR
STARTCHAR z_dotbelowcomb.ccmp
ENCODING -1
SWIDTH 502 0
DWIDTH 10 0
BBX 8 14 1 -3
BITMAP
FF
FF
06
0E
1C
18
38
70
E0
FF
FF
00
18
18
ENDCHAR
STARTCHAR Alphatonos.c2sc
ENCODING -1
SWIDTH 577 0
DWIDTH 12 0
BBX 11 12 0 0
BITMAP
6000
6E00
4E00
0F00
1B00
1B80
3980
31C0
3FC0
7FC0
60E0
E060
ENDCHAR
STARTCHAR Epsilontonos.c2sc
ENCODING -1
SWIDTH 513 0
DWIDTH 10 0
BBX 12 12 -2 0
BITMAP
E000
CFF0
CFF0
0C00
0C00
0FE0
0FE0
0C00
0C00
0C00
0FF0
0FF0
ENDCHAR
STARTCHAR Etatonos.c2sc
ENCODING -1
SWIDTH 637 0
DWIDTH 13 0
BBX 14 12 -2 0
BITMAP
6000
CC1C
CC1C
0C1C
0C1C
0FFC
0FFC
0C1C
0C1C
0C1C
0C1C
0C1C
ENDCHAR
STARTCHAR Iotatonos.c2sc
ENCODING -1
SWIDTH 277 0
DWIDTH 6 0
BBX 6 12 -2 0
BITMAP
60
CC
CC
0C
0C
0C
0C
0C
0C
0C
0C
0C
ENDCHAR
STARTCHAR Omicrontonos.c2sc
ENCODING -1
SWIDTH 598 0
DWIDTH 12 0
BBX 12 12 -1 0
BITMAP
E000
C7C0
DFE0
1870
3830
3030
3030
3030
3830
1870
1FE0
07C0
ENDCHAR
STARTCHAR Upsilontonos.c2sc
ENCODING -1
SWIDTH 558 0
DWIDTH 11 0
BBX 14 12 -3 0
BITMAP
6000
4E1C
CE18
0738
0330
03F0
01E0
01C0
00C0
00C0
00C0
00C0
ENDCHAR
STARTCHAR Omegatonos.c2sc
ENCODING -1
SWIDTH 616 0
DWIDTH 12 0
BBX 12 12 -1 0
BITMAP
6000
C7C0
DFE0
3870
3830
3030
3030
3030
3830
1C60
3EF0
3EF0
ENDCHAR
STARTCHAR Alpha.c2sc
ENCODING -1
SWIDTH 577 0
DWIDTH 12 0
BBX 11 11 0 0
BITMAP
0E00
0E00
0F00
1B00
1B80
3980
31C0
3FC0
7FC0
60E0
E060
ENDCHAR
STARTCHAR Beta.c2sc
ENCODING -1
SWIDTH 546 0
DWIDTH 11 0
BBX 9 11 1 0
BITMAP
FE00
FF80
E380
E380
FF00
FF00
E380
E180
E380
FF80
FE00
ENDCHAR
STARTCHAR Epsilon.c2sc
ENCODING -1
SWIDTH 484 0
DWIDTH 10 0
BBX 8 11 1 0
BITMAP
FF
FF
E0
E0
FE
FE
E0
E0
E0
FF
FF
ENDCHAR
STARTCHAR Zeta.c2sc
ENCODING -1
SWIDTH 520 0
DWIDTH 10 0
BBX 9 11 1 0
BITMAP
FF80
FF80
0700
0E00
0C00
1800
3800
7000
E000
FF80
FF80
ENDCHAR
STARTCHAR Eta.c2sc
ENCODING -1
SWIDTH 608 0
DWIDTH 12 0
BBX 10 11 1 0
BITMAP
E0C0
E0C0
E0C0
E0C0
FFC0
FFC0
E0C0
E0C0
E0C0
E0C0
E0C0
ENDCHAR
STARTCHAR Iota.c2sc
ENCODING -1
SWIDTH 248 0
DWIDTH 5 0
BBX 3 11 1 0
BITMAP
E0
E0
E0
E0
E0
E0
E0
E0
E0
E0
E0
ENDCHAR
STARTCHAR Kappa.c2sc
ENCODING -1
SWIDTH 544 0
DWIDTH 11 0
BBX 10 11 1 0
BITMAP
E3C0
E300
E700
EE00
FC00
FC00
FE00
E600
E700
E380
E1C0
ENDCHAR
STARTCHAR Mu.c2sc
ENCODING -1
SWIDTH 752 0
DWIDTH 15 0
BBX 13 11 1 0
BITMAP
E038
F078
F078
D8D8
D8D8
D8D8
CD98
CD98
C738
C738
C738
ENDCHAR
STARTCHAR Nu.c2sc
ENCODING -1
SWIDTH 607 0
DWIDTH 12 0
BBX 10 11 1 0
BITMAP
E0C0
F0C0
F0C0
F8C0
FCC0
ECC0
E6C0
E7C0
E3C0
E1C0
E1C0
ENDCHAR
STARTCHAR Omicron.c2sc
ENCODING -1
SWIDTH 593 0
DWIDTH 12 0
BBX 10 11 1 0
BITMAP
1E00
7F80
E1C0
E1C0
C0C0
C0C0
C0C0
E1C0
E1C0
7F80
1E00
ENDCHAR
STARTCHAR Rho.c2sc
ENCODING -1
SWIDTH 553 0
DWIDTH 11 0
BBX 9 11 1 0
BITMAP
FE00
FF80
E180
E180
E180
FF80
FE00
E000
E000
E000
E000
ENDCHAR
STARTCHAR Tau.c2sc
ENCODING -1
SWIDTH 528 0
DWIDTH 11 0
BBX 10 11 0 0
BITMAP
FFC0
FFC0
0C00
0C00
0C00
0C00
0C00
0C00
0C00
0C00
0C00
ENDCHAR
STARTCHAR Upsilon.c2sc
ENCODING -1
SWIDTH 529 0
DWIDTH 11 0
BBX 11 11 0 0
BITMAP
E0E0
61C0
7180
3380
1B00
1E00
0E00
0C00
0C00
0C00
0C00
ENDCHAR
STARTCHAR Chi.c2sc
ENCODING -1
SWIDTH 545 0
DWIDTH 11 0
BBX 11 11 0 0
BITMAP
E1E0
71C0
3B80
1B00
1F00
0E00
1F00
1B00
3B80
71C0
E0E0
ENDCHAR
STARTCHAR Iotadieresis.c2sc
ENCODING -1
SWIDTH 248 0
DWIDTH 5 0
BBX 7 14 -1 0
BITMAP
C6
EE
00
38
38
38
38
38
38
38
38
38
38
38
ENDCHAR
STARTCHAR Upsilondieresis.c2sc
ENCODING -1
SWIDTH 529 0
DWIDTH 11 0
BBX 11 14 0 0
BITMAP
3380
3380
0000
E0E0
61C0
7180
3380
1B00
1E00
0E00
0C00
0C00
0C00
0C00
ENDCHAR
STARTCHAR uni0401.c2sc
ENCODING -1
SWIDTH 484 0
DWIDTH 10 0
BBX 8 14 1 0
BITMAP
67
67
00
FF
FF
E0
E0
FE
FE
E0
E0
E0
FF
FF
ENDCHAR
STARTCHAR uni0403.c2sc
ENCODING -1
SWIDTH 465 0
DWIDTH 9 0
BBX 8 15 1 0
BITMAP
0F
0C
18
00
FF
FF
C0
C0
C0
C0
C0
C0
C0
C0
C0
ENDCHAR
STARTCHAR uni0405.c2sc
ENCODING -1
SWIDTH 525 0
DWIDTH 11 0
BBX 9 11 1 0
BITMAP
3E00
7F00
E380
E000
7C00
3F00
0780
0180
E380
7F80
3E00
ENDCHAR
STARTCHAR uni0406.c2sc
ENCODING -1
SWIDTH 248 0
DWIDTH 5 0
BBX 3 11 1 0
BITMAP
E0
E0
E0
E0
E0
E0
E0
E0
E0
E0
E0
ENDCHAR
STARTCHAR uni0407.c2sc
ENCODING -1
SWIDTH 248 0
DWIDTH 5 0
BBX 7 14 -1 0
BITMAP
C6
EE
00
38
38
38
38
38
38
38
38
38
38
38
ENDCHAR
STARTCHAR uni0408.c2sc
ENCODING -1
SWIDTH 479 0
DWIDTH 10 0
BBX 8 12 1 0
BITMAP
07
07
07
07
07
07
07
07
C7
C6
FE
7C
ENDCHAR
STARTCHAR uni040C.c2sc
ENCODING -1
SWIDTH 544 0
DWIDTH 11 0
BBX 10 15 1 0
BITMAP
0E00
0C00
1800
0000
E3C0
E300
E700
EE00
FC00
FC00
FE00
E600
E700
E380
E1C0
ENDCHAR
STARTCHAR uni040E.c2sc
ENCODING -1
SWIDTH 534 0
DWIDTH 11 0
BBX 11 15 0 0
BITMAP
3180
1300
0E00
0000
E0E0
70C0
31C0
3980
1B80
1F00
0F00
0E00
0E00
3C00
3800
ENDCHAR
STARTCHAR uni0410.c2sc
ENCODING -1
SWIDTH 577 0
DWIDTH 12 0
BBX 11 11 0 0
BITMAP
0E00
0E00
0F00
1B00
1B80
3980
31C0
3FC0
7FC0
60E0
E060
ENDCHAR
STARTCHAR uni0412.c2sc
ENCODING -1
SWIDTH 546 0
DWIDTH 11 0
BBX 9 11 1 0
BITMAP
FE00
FF80
E380
E380
FF00
FF00
E380
E180
E380
FF80
FE00
ENDCHAR
STARTCHAR uni0413.c2sc
ENCODING -1
SWIDTH 465 0
DWIDTH 9 0
BBX 8 11 1 0
BITMAP
FF
FF
C0
C0
C0
C0
C0
C0
C0
C0
C0
ENDCHAR
STARTCHAR uni0415.c2sc
ENCODING -1
SWIDTH 484 0
DWIDTH 10 0
BBX 8 11 1 0
BITMAP
FF
FF
E0
E0
FE
FE
E0
E0
E0
FF
FF
ENDCHAR
STARTCHAR uni0419.c2sc
ENCODING -1
SWIDTH 611 0
DWIDTH 12 0
BBX 10 15 1 0
BITMAP
3300
3300
1E00
0000
C1C0
C1C0
C3C0
C6C0
CEC0
CCC0
D8C0
F8C0
F0C0
E0C0
E0C0
ENDCHAR
STARTCHAR uni041C.c2sc
ENCODING -1
SWIDTH 752 0
DWIDTH 15 0
BBX 13 11 1 0
BITMAP
E038
F078
F078
D8D8
D8D8
D8D8
CD98
CD98
C738
C738
C738
ENDCHAR
STARTCHAR uni041D.c2sc
ENCODING -1
SWIDTH 608 0
DWIDTH 12 0
BBX 10 11 1 0
BITMAP
E0C0
E0C0
E0C0
E0C0
FFC0
FFC0
E0C0
E0C0
E0C0
E0C0
E0C0
ENDCHAR
STARTCHAR uni041E.c2sc
ENCODING -1
SWIDTH 593 0
DWIDTH 12 0
BBX 10 11 1 0
BITMAP
1E00
7F80
E1C0
E1C0
C0C0
C0C0
C0C0
E1C0
E1C0
7F80
1E00
ENDCHAR
STARTCHAR uni041F.c2sc
ENCODING -1
SWIDTH 605 0
DWIDTH 12 0
BBX 10 11 1 0
BITMAP
FFC0
FFC0
C1C0
C1C0
C1C0
C1C0
C1C0
C1C0
C1C0
C1C0
C1C0
ENDCHAR
STARTCHAR uni0420.c2sc
ENCODING -1
SWIDTH 553 0
DWIDTH 11 0
BBX 9 11 1 0
BITMAP
FE00
FF80
E180
E180
E180
FF80
FE00
E000
E000
E000
E000
ENDCHAR
STARTCHAR uni0421.c2sc
ENCODING -1
SWIDTH 562 0
DWIDTH 11 0
BBX 10 11 1 0
BITMAP
3E00
7F80
E180
C180
C040
C000
C000
C1C0
E180
7F80
3E00
ENDCHAR
STARTCHAR uni0422.c2sc
ENCODING -1
SWIDTH 528 0
DWIDTH 11 0
BBX 10 11 0 0
BITMAP
FFC0
FFC0
0C00
0C00
0C00
0C00
0C00
0C00
0C00
0C00
0C00
ENDCHAR
STARTCHAR uni0425.c2sc
ENCODING -1
SWIDTH 545 0
DWIDTH 11 0
BBX 11 11 0 0
BITMAP
E1E0
71C0
3B80
1B00
1F00
0E00
1F00
1B00
3B80
71C0
E0E0
ENDCHAR
STARTCHAR uni0498.c2sc
ENCODING -1
SWIDTH 534 0
DWIDTH 11 0
BBX 9 15 1 -4
BITMAP
3E00
FF00
E380
0380
1F00
1F00
0380
0180
C380
FF00
7E00
1800
1800
1800
1800
ENDCHAR
STARTCHAR uni04A2.c2sc
ENCODING -1
SWIDTH 608 0
DWIDTH 12 0
BBX 12 15 1 -4
BITMAP
C0C0
C0C0
C0C0
C0C0
FFC0
FFC0
C0C0
C0C0
C0C0
C0F0
C0F0
0070
0070
0070
0070
ENDCHAR
STARTCHAR uni04AA.c2sc
ENCODING -1
SWIDTH 562 0
DWIDTH 11 0
BBX 10 15 1 -4
BITMAP
3E00
7F80
E180
C180
C040
C000
C000
C1C0
E180
7F80
3E00
1C00
1C00
1C00
1C00
ENDCHAR
STARTCHAR uni04AE.c2sc
ENCODING -1
SWIDTH 529 0
DWIDTH 11 0
BBX 11 11 0 0
BITMAP
E0E0
61C0
7180
3380
1B00
1E00
0E00
0C00
0C00
0C00
0C00
ENDCHAR
STARTCHAR uni04BE.c2sc
ENCODING -1
SWIDTH 749 0
DWIDTH 15 0
BBX 14 15 0 -4
BITMAP
01F0
07F8
0E1C
CC0C
EC0C
7FFC
3FFC
0C00
0E10
07F8
03F0
00E0
00E0
00E0
00E0
ENDCHAR
STARTCHAR uni04E2.c2sc
ENCODING -1
SWIDTH 611 0
DWIDTH 12 0
BBX 10 14 1 0
BITMAP
3F80
3F80
0000
C1C0
C1C0
C3C0
C6C0
CEC0
CCC0
D8C0
F8C0
F0C0
E0C0
E0C0
ENDCHAR
STARTCHAR uni04EE.c2sc
ENCODING -1
SWIDTH 534 0
DWIDTH 11 0
BBX 11 14 0 0
BITMAP
3F80
3F80
0000
E0E0
70C0
31C0
3980
1B80
1F00
0F00
0E00
0E00
3C00
3800
ENDCHAR
STARTCHAR uni0424.c2sc
ENCODING -1
SWIDTH 701 0
DWIDTH 14 0
BBX 12 11 1 0
BITMAP
0600
3FC0
7FE0
E670
C630
C630
C630
E670
7FE0
3F80
0600
ENDCHAR
STARTCHAR IJ.c2sc
ENCODING -1
SWIDTH 727 0
DWIDTH 15 0
BBX 13 12 1 0
BITMAP
0038
E038
E038
E038
E038
E038
E038
E038
E638
E630
E7F0
E3E0
ENDCHAR
STARTCHAR AEacute.c2sc
ENCODING -1
SWIDTH 784 0
DWIDTH 16 0
BBX 15 15 0 0
BITMAP
0070
00E0
01C0
0000
03FE
07FE
07C0
0DC0
0DFC
19FC
39C0
3FC0
7FC0
70FE
E0FE
ENDCHAR
STARTCHAR Oslashacute.c2sc
ENCODING -1
SWIDTH 593 0
DWIDTH 12 0
BBX 10 15 1 0
BITMAP
0700
0E00
0C00
0000
1EC0
7F80
E3C0
E2C0
C6C0
CCC0
C8C0
D1C0
F1C0
7F80
DE00
ENDCHAR
STARTCHAR uni0218.c2sc
ENCODING -1
SWIDTH 525 0
DWIDTH 11 0
BBX 9 16 1 -5
BITMAP
3E00
7F00
E380
E000
7C00
3F00
0780
0180
E380
7F80
3E00
0000
1800
1800
1800
1000
ENDCHAR
STARTCHAR Wgrave.c2sc
ENCODING -1
SWIDTH 753 0
DWIDTH 15 0
BBX 15 15 0 0
BITMAP
0E00
0700
0380
0000
E38E
638C
638C
62CC
36DC
36D8
36D8
3478
1C78
1C70
1C30
ENDCHAR
STARTCHAR Wacute.c2sc
ENCODING -1
SWIDTH 753 0
DWIDTH 15 0
BBX 15 15 0 0
BITMAP
00E0
01C0
0380
0000
E38E
638C
638C
62CC
36DC
36D8
36D8
3478
1C78
1C70
1C30
ENDCHAR
STARTCHAR Wdieresis.c2sc
ENCODING -1
SWIDTH 753 0
DWIDTH 15 0
BBX 15 14 0 0
BITMAP
0C60
0E60
0000
E38E
638C
638C
62CC
36DC
36D8
36D8
3478
1C78
1C70
1C30
ENDCHAR
STARTCHAR Ygrave.c2sc
ENCODING -1
SWIDTH 529 0
DWIDTH 11 0
BBX 11 15 0 0
BITMAP
3800
1C00
0C00
0000
E0E0
61C0
7180
3380
1B00
1E00
0E00
0C00
0C00
0C00
0C00
ENDCHAR
STARTCHAR Aogonek.locl
ENCODING -1
SWIDTH 665 0
DWIDTH 13 0
BBX 13 18 0 -4
BITMAP
0700
0700
0780
0D80
0D80
1CC0
18C0
18E0
3860
3FE0
3FF0
7030
6038
E738
0400
0C00
0F00
0700
ENDCHAR
STARTCHAR aogonek.locl
ENCODING -1
SWIDTH 541 0
DWIDTH 11 0
BBX 9 15 1 -4
BITMAP
3E00
7F00
E300
0380
3F80
7F80
E380
C380
E380
7F80
3B80
2000
6000
7800
3800
ENDCHAR
STARTCHAR Eogonek.locl
ENCODING -1
SWIDTH 565 0
DWIDTH 11 0
BBX 10 18 1 -4
BITMAP
FFC0
FFC0
E000
E000
E000
E000
FF80
FF80
E000
E000
E000
E000
FFC0
FFC0
1800
1800
1C00
1C00
ENDCHAR
STARTCHAR eogonek.locl
ENCODING -1
SWIDTH 536 0
DWIDTH 11 0
BBX 9 15 1 -4
BITMAP
1E00
7F00
6380
C180
FF80
FF80
C000
E000
7180
7F80
1E00
3000
3000
3C00
1C00
ENDCHAR
STARTCHAR Aogonek.c2sc.locl
ENCODING -1
SWIDTH 577 0
DWIDTH 12 0
BBX 11 15 0 -4
BITMAP
0E00
0E00
0F00
1B00
1B80
3980
31C0
3FC0
7FC0
60E0
E660
0C00
1800
1E00
0E00
ENDCHAR
STARTCHAR Eogonek.c2sc.locl
ENCODING -1
SWIDTH 484 0
DWIDTH 10 0
BBX 8 15 1 -4
BITMAP
FF
FF
E0
E0
FE
FE
E0
E0
E0
FF
FF
30
30
38
1C
ENDCHAR
STARTCHAR glyph1293
ENCODING -1
SWIDTH 262 0
DWIDTH 5 0
BBX 3 14 1 -3
BITMAP
E0
E0
E0
E0
E0
E0
E0
E0
E0
E0
E0
00
E0
E0
ENDCHAR
ENDFONT
